<svg width="357" height="107" viewBox="0 0 357 107" fill="none" xmlns="http://www.w3.org/2000/svg">
<path d="M25.8256 51.7545C27.1424 52.9034 28.1945 54.317 28.9949 55.9888C29.7888 57.6606 30.189 59.455 30.189 61.3786V69.4406C30.189 71.2479 29.8469 72.9391 29.1627 74.5012C28.4785 76.0632 27.5426 77.4381 26.3678 78.6128C25.1866 79.7941 23.8182 80.7236 22.2561 81.4078C20.6941 82.092 19.0093 82.4341 17.1956 82.4341L0.742301 82.3502C1.23286 81.7499 1.67179 81.0592 2.05908 80.2911C2.38827 79.6908 2.69165 78.9614 2.96275 78.1094C3.23385 77.2573 3.37585 76.3666 3.37585 75.4371V56.9312C3.37585 56.602 3.19512 56.1889 2.84011 55.6984C2.48509 55.2078 2.0849 54.7108 1.64597 54.2202C1.15541 53.6199 0.60675 53.0132 0 52.4129C1.14895 51.6447 2.00098 50.7669 2.54964 49.7793C3.0983 48.7917 3.3694 47.9978 3.3694 47.391V28.2268C3.3694 27.4587 3.23385 26.7163 2.95629 26.0063C2.67874 25.2963 2.38182 24.6379 2.05262 24.0312C1.66534 23.4309 1.23286 22.8241 0.735846 22.2238H16.6146C18.422 22.2238 20.1131 22.5659 21.6752 23.2501C23.2372 23.9343 24.6056 24.8509 25.7869 26.0063C26.9681 27.1553 27.8976 28.5172 28.5818 30.0793C29.266 31.6414 29.6081 33.3261 29.6081 35.1399V42.5435C29.6081 44.2992 29.266 45.971 28.5818 47.5589C27.8976 49.1532 26.9746 50.5474 25.8256 51.7545ZM11.6767 46.9779H16.6146C17.8733 46.9779 18.9319 46.539 19.7839 45.6612C20.636 44.7833 21.062 43.7441 21.062 42.537V35.1334C21.062 33.9263 20.636 32.9 19.7839 32.048C18.9319 31.196 17.8798 30.77 16.6146 30.77H11.6767V46.9779ZM21.63 61.3786C21.63 60.1715 21.204 59.1452 20.3519 58.2932C19.4999 57.4411 18.4478 57.0151 17.1826 57.0151H11.6703V73.8815H17.1826C18.4413 73.8815 19.4999 73.4555 20.3519 72.6034C21.204 71.7514 21.63 70.6993 21.63 69.4341V61.3721V61.3786Z" fill="#1C3664"/>
<path d="M66.6263 52.4129C66.0196 52.9615 65.4774 53.5102 64.9803 54.0588C64.5414 54.4978 64.1606 54.9754 63.8314 55.4983C63.5022 56.0211 63.3086 56.4987 63.2569 56.9377V69.6859C63.2569 71.4932 62.9148 73.1844 62.2306 74.7464C61.5464 76.3085 60.5975 77.6963 59.3905 78.9033C58.1835 80.1104 56.8021 81.0592 55.2336 81.7434C53.6716 82.4276 51.9869 82.7697 50.1731 82.7697L47.7073 82.8536C45.9 82.8536 44.2088 82.4986 42.6468 81.7822C41.0847 81.0721 39.6969 80.1233 38.4899 78.942C37.2829 77.7608 36.334 76.3795 35.6498 74.7852C34.9656 73.1973 34.6235 71.4932 34.6235 69.6859V56.9377C34.5138 56.4987 34.2943 56.0211 33.9651 55.4983C33.6359 54.9754 33.2551 54.4978 32.8161 54.0588C32.3256 53.5102 31.8027 52.9615 31.2541 52.4129C32.0738 51.8126 32.7064 51.2187 33.1453 50.6443C33.5843 50.0698 33.9135 49.5469 34.1329 49.0822C34.3524 48.6175 34.4879 48.2044 34.546 47.8493C34.6041 47.4943 34.6299 47.262 34.6299 47.1522V34.7332C34.6299 32.9259 34.972 31.2347 35.6563 29.6727C36.3405 28.1106 37.2893 26.7228 38.4964 25.5158C39.7034 24.3087 41.0847 23.3663 42.6532 22.6757C44.2153 21.9915 45.9 21.6494 47.7138 21.6494H50.2634C52.0708 21.6494 53.7619 21.9915 55.324 22.6757C56.886 23.3599 58.2545 24.3087 59.4357 25.5158C60.6169 26.7228 61.5464 28.1041 62.2306 29.6727C62.9148 31.2347 63.2569 32.9194 63.2569 34.7332V47.1522C63.2569 47.262 63.2827 47.4814 63.3408 47.8106C63.3925 48.1398 63.5345 48.5529 63.7539 49.0435C63.9734 49.534 64.3026 50.0698 64.7415 50.6507C65.1804 51.2252 65.813 51.819 66.6328 52.4193L66.6263 52.4129ZM50.1408 74.2107C51.4124 74.2107 52.4774 73.6749 53.3295 72.6035C54.1879 71.532 54.614 70.3959 54.614 69.1889V56.7699C54.5042 56.3309 54.2848 55.8662 53.9556 55.3692C53.6264 54.8786 53.2455 54.4074 52.8066 53.9685C52.3161 53.4198 51.7932 52.897 51.2446 52.4064C52.0643 51.8061 52.7098 51.2123 53.1745 50.6378C53.6393 50.0633 53.9814 49.5276 54.2009 49.0306C54.4203 48.54 54.5559 48.1269 54.614 47.7977C54.6656 47.4685 54.6979 47.249 54.6979 47.1393V35.2109C54.6979 34.0038 54.2589 32.8678 53.3746 31.7963C52.4903 30.7248 51.4447 30.189 50.2247 30.189H47.6557C46.3841 30.189 45.3191 30.7248 44.467 31.7963C43.6086 32.8678 43.1825 34.0038 43.1825 35.2109V47.1393C43.1825 47.249 43.2084 47.4685 43.2664 47.7977C43.3181 48.1269 43.4601 48.54 43.6796 49.0306C43.899 49.5211 44.2282 50.0569 44.6671 50.6378C45.1061 51.2123 45.7386 51.8061 46.5584 52.4064C46.0097 52.9551 45.4869 53.5037 44.9963 54.0524C44.5574 54.4913 44.1572 54.969 43.8022 55.4918C43.4472 56.0146 43.2406 56.4923 43.1825 56.9312V69.1889C43.1825 70.3959 43.6086 71.5449 44.467 72.6422C45.3255 73.7395 46.3841 74.2881 47.6557 74.2881L50.1408 74.2042V74.2107Z" fill="#1C3664"/>
<path d="M87.6818 82.4341C88.2304 81.8338 88.6952 81.227 89.0825 80.6267C89.4117 80.0781 89.7021 79.4455 89.9474 78.7355C90.1927 78.0255 90.2637 77.2832 90.154 76.5151C90.0442 75.7469 89.9345 74.9659 89.8248 74.172C89.715 73.378 89.6053 72.6809 89.4956 72.0742C89.3858 71.3641 89.2761 70.6476 89.1664 69.9376H78.2255L77.3218 76.6829C77.2121 77.3412 77.2831 78.0126 77.5284 78.6968C77.7737 79.381 78.0641 80.0006 78.3933 80.5493C78.7742 81.2077 79.2131 81.8402 79.7101 82.4405H66.3035C66.7425 82.0016 67.1233 81.5369 67.4525 81.0398C67.73 80.6009 67.9882 80.1491 68.2335 79.6844C68.4788 79.2196 68.6595 78.7678 68.7693 78.3288L71.4867 58.6676C71.5965 57.8994 71.4867 57.1571 71.1575 56.4471C70.8283 55.7371 70.4733 55.0787 70.086 54.472C69.5955 53.8136 69.0726 53.1552 68.524 52.4968C69.6729 51.8965 70.5637 51.2897 71.1963 50.6894C71.8288 50.0891 72.2807 49.5082 72.5518 48.9596C72.881 48.3593 73.0746 47.7525 73.1262 47.1522C73.8944 41.5043 74.5398 36.9278 75.0562 33.4164C75.5791 29.905 75.8889 28.0138 76.0051 27.7427C76.1148 27.1424 76.0309 26.5227 75.7598 25.8901C75.4822 25.2576 75.1853 24.6702 74.8561 24.1215C74.4688 23.5212 74.0364 22.8887 73.5393 22.2303H93.9429C93.3943 22.8887 92.9295 23.5212 92.5422 24.1215C92.213 24.6702 91.9226 25.2576 91.6773 25.8901C91.432 26.5227 91.361 27.0843 91.4707 27.5748L94.3496 47.2361C94.4012 47.5137 94.498 47.8687 94.64 48.3076C94.7756 48.7465 95.008 49.2113 95.3372 49.7083C95.6664 50.1989 96.1053 50.683 96.6539 51.1477C97.2026 51.6125 97.9126 52.0385 98.7905 52.4258C98.1837 53.0325 97.6673 53.6328 97.2284 54.2331C96.8411 54.7818 96.499 55.4144 96.2021 56.1244C95.8987 56.8409 95.8019 57.6025 95.9116 58.4287C96.2408 60.5653 96.5571 62.747 96.8605 64.9674C97.1639 67.1879 97.435 69.2341 97.6802 71.093C97.9255 72.9585 98.1321 74.5076 98.2999 75.7405C98.4613 76.9733 98.571 77.6769 98.6291 77.8383C98.7388 78.3288 98.9325 78.8517 99.2036 79.4003C99.4747 79.949 99.7522 80.446 100.023 80.8785C100.353 81.4271 100.733 81.95 101.172 82.4405H87.6818V82.4341ZM88.011 61.6239L83.7314 31.4348L79.4519 61.6239H88.0045H88.011Z" fill="#1C3664"/>
<path d="M130.703 34.8881C129.935 34.0684 129.141 33.3261 128.315 32.6677C127.598 32.0674 126.849 31.5316 126.056 31.0604C125.262 30.5957 124.532 30.3633 123.874 30.3633H117.871V47.1458C117.871 47.2555 117.897 47.475 117.955 47.8041C118.006 48.1333 118.129 48.5465 118.323 49.037C118.516 49.5276 118.846 50.0633 119.31 50.6443C119.775 51.2187 120.421 51.8126 121.24 52.4129C120.634 52.9615 120.091 53.5102 119.594 54.0588C119.155 54.4978 118.775 54.9948 118.445 55.537C118.116 56.0856 117.922 56.5827 117.871 57.0151V78.0707C117.871 78.5612 118.006 79.0711 118.284 79.594C118.555 80.1168 118.858 80.5945 119.188 81.0334C119.568 81.5821 120.04 82.0791 120.588 82.5115H106.685C107.175 82.021 107.614 81.4981 108.001 80.9495C108.331 80.5106 108.634 80.0329 108.905 79.5101C109.176 78.9872 109.318 78.4579 109.318 77.9093V57.0151C109.26 56.5762 109.073 56.0856 108.744 55.537C108.415 54.9883 108.027 54.4978 107.595 54.0588C107.104 53.5102 106.556 52.9615 105.949 52.4129C106.769 51.8126 107.414 51.2058 107.879 50.6055C108.344 50.0052 108.686 49.4566 108.905 48.9596C109.125 48.469 109.247 48.0559 109.273 47.7267C109.299 47.3975 109.312 47.2039 109.312 47.1522V30.3698H103.638C102.98 30.3698 102.25 30.6021 101.456 31.0669C100.662 31.5316 99.933 32.0674 99.2746 32.6741C98.4549 33.3325 97.6609 34.0748 96.8864 34.8946L99.1907 22.3077H128.392L130.697 34.8946L130.703 34.8881Z" fill="#1C3664"/>
<path d="M156.206 73.591C156.916 73.236 157.548 72.8616 158.097 72.4808C158.697 72.0419 159.278 71.5513 159.827 71.0026L157.523 82.518H131.942C132.381 81.8596 132.794 81.2012 133.175 80.5428C133.504 79.9425 133.808 79.297 134.079 78.6128C134.35 77.9286 134.492 77.2573 134.492 76.5989V56.9376C134.434 56.4987 134.247 56.0211 133.917 55.4982C133.588 54.9754 133.201 54.4977 132.769 54.0588C132.278 53.5102 131.729 52.9615 131.123 52.4129C131.942 51.8126 132.575 51.2187 133.014 50.6442C133.453 50.0697 133.782 49.534 134.001 49.037C134.221 48.5464 134.356 48.1333 134.415 47.8041C134.466 47.4749 134.498 47.2555 134.498 47.1457V27.3231C134.498 26.7744 134.363 26.1999 134.085 25.5932C133.808 24.9929 133.511 24.4443 133.182 23.9472C132.794 23.3469 132.388 22.766 131.949 22.2173H157.368L159.672 33.7327C159.014 33.184 158.381 32.6935 157.781 32.2545C157.174 31.8737 156.548 31.5122 155.89 31.183C155.231 30.8539 154.521 30.6344 153.753 30.5247H142.812V48.9531H150.874C151.475 48.9531 152.055 48.8304 152.604 48.5852C153.153 48.3399 153.643 48.0494 154.082 47.7202C154.573 47.3394 155.044 46.9005 155.483 46.4034V59.81C155.154 59.3711 154.766 58.958 154.334 58.5772C153.947 58.248 153.469 57.9446 152.895 57.6735C152.32 57.4024 151.649 57.2604 150.881 57.2604H142.819V74.2042H154.005C154.773 74.1526 155.515 73.946 156.225 73.5845L156.206 73.591Z" fill="#1C3664"/>
<path d="M180.224 82.518C180.334 82.4664 180.515 82.3244 180.76 82.1049C181.005 81.8855 181.25 81.5821 181.502 81.2012C181.747 80.8204 181.954 80.3105 182.122 79.6779C182.283 79.0453 182.283 78.2966 182.122 77.4123L177.436 62.6889H172.995V77.4123C172.995 77.9093 173.117 78.4386 173.363 79.0195C173.608 79.6005 173.898 80.1556 174.228 80.7042C174.608 81.311 175.047 81.9113 175.544 82.5115H162.138C162.577 81.9629 162.99 81.3884 163.371 80.7817C163.7 80.2911 164.003 79.7812 164.274 79.2583C164.545 78.7355 164.687 78.2837 164.687 77.9028V56.9248C164.629 56.4859 164.442 56.0082 164.113 55.4854C163.784 54.9625 163.396 54.4849 162.964 54.046C162.473 53.4973 161.925 52.9486 161.318 52.4C162.138 51.7997 162.77 51.2058 163.209 50.6314C163.648 50.0569 163.977 49.5211 164.197 49.0241C164.416 48.5336 164.552 48.1204 164.61 47.7913C164.662 47.4621 164.694 47.2426 164.694 47.1329V27.8008C164.694 27.2005 164.558 26.5808 164.281 25.9483C164.003 25.3157 163.706 24.7283 163.377 24.1796C162.99 23.5794 162.583 22.9468 162.144 22.2884H178.681C180.489 22.2884 182.18 22.6305 183.742 23.3147C185.304 23.9989 186.672 24.9349 187.854 26.1096C189.035 27.2909 189.964 28.6593 190.649 30.2213C191.333 31.7834 191.675 33.4681 191.675 35.2819V49.76C191.675 52.0643 191.113 54.188 189.99 56.1373C188.867 58.0866 187.37 59.6358 185.504 60.7848C186.543 63.8572 187.479 66.6263 188.299 69.0921L191.094 77.4833C191.365 78.2514 191.739 78.9356 192.204 79.5424C192.669 80.1491 193.121 80.6655 193.56 81.1044C194.108 81.6531 194.657 82.1178 195.206 82.5051H180.237L180.224 82.518ZM178.662 54.2202C179.921 54.2202 180.979 53.7813 181.831 52.9034C182.683 52.0256 183.109 50.9864 183.109 49.7793V35.3012C183.109 34.0426 182.683 32.984 181.831 32.1319C180.979 31.2799 179.927 30.8603 178.662 30.8603H172.988V54.2202H178.662Z" fill="#1C3664"/>
<path d="M200.866 28.9433H198.143V21.7268H204.823V28.9433C204.823 29.692 204.636 30.3827 204.262 31.0152C203.887 31.6478 203.423 32.19 202.874 32.6419C202.319 33.0937 201.712 33.4616 201.041 33.7392C200.369 34.0167 199.737 34.1523 199.15 34.1523C199.466 33.836 199.743 33.4229 199.976 32.913C200.169 32.4805 200.369 31.9383 200.57 31.2863C200.763 30.6344 200.866 29.8598 200.866 28.9497V28.9433Z" fill="#1C3664"/>
<path d="M228.758 52.0837C229.687 53.0196 230.578 54.0136 231.43 55.0851C232.282 56.1566 233.037 57.3056 233.689 58.5385C234.347 59.7713 234.87 61.1268 235.251 62.6114C235.632 64.0896 235.826 65.7355 235.826 67.5493C235.826 77.6963 231.327 82.7697 222.335 82.7697C220.031 82.7697 218.017 82.5244 216.287 82.0274C214.557 81.5369 213.118 80.6977 211.969 79.5165C210.82 78.3353 209.955 76.7732 209.38 74.8303C208.806 72.8874 208.515 70.4604 208.515 67.5493V65.9034C208.515 65.3547 208.38 64.806 208.102 64.2574C207.825 63.7087 207.528 63.2182 207.199 62.7793C206.818 62.2306 206.379 61.74 205.882 61.3011H219.54C219.05 61.7917 218.604 62.3145 218.223 62.8632C217.894 63.3021 217.591 63.7991 217.32 64.3413C217.042 64.89 216.907 65.4128 216.907 65.9034V68.1238C216.907 70.2087 217.397 71.7708 218.385 72.81C219.372 73.8492 220.605 74.372 222.09 74.372C223.574 74.372 224.749 73.8492 225.788 72.81C226.828 71.7708 227.35 70.2087 227.35 68.1238C227.35 66.0389 226.86 64.2187 225.872 62.6566C224.885 61.0946 223.678 59.6035 222.251 58.1705C221.864 57.8994 221.36 57.7187 220.728 57.6348C220.095 57.5509 219.482 57.5121 218.875 57.5121C218.159 57.5121 217.423 57.538 216.655 57.5961C216.926 55.8404 216.861 54.5107 216.448 53.607C216.035 52.7033 215.719 52.1159 215.499 51.8384C213.692 49.973 212.13 47.8751 210.813 45.545C209.497 43.2148 208.838 40.3489 208.838 36.9472C208.838 31.6285 209.961 27.762 212.214 25.3479C214.46 22.9339 217.862 21.7268 222.413 21.7268C226.963 21.7268 230.294 22.9339 232.572 25.3479C234.844 27.762 235.987 31.6285 235.987 36.9472C235.987 37.6572 236.123 38.3027 236.4 38.8772C236.671 39.4516 236.975 39.9616 237.304 40.4005C237.685 40.9492 238.123 41.4139 238.621 41.8012H225.046C225.537 41.3623 225.976 40.8717 226.363 40.323C226.692 39.8841 226.995 39.3936 227.267 38.8449C227.538 38.2962 227.68 37.7476 227.68 37.1989V36.3792C227.68 34.2426 227.202 32.6483 226.24 31.6091C225.278 30.5699 224.084 30.047 222.664 30.047C221.244 30.047 219.96 30.5699 219.004 31.6091C218.043 32.6483 217.565 34.2426 217.565 36.3792C217.565 38.1865 217.933 39.8196 218.675 41.2719C219.418 42.7242 220.36 44.0862 221.515 45.3449C221.954 45.6741 222.477 45.9516 223.077 46.1646C223.626 46.3841 224.297 46.5326 225.091 46.6165C225.885 46.7004 226.834 46.6552 227.931 46.4938C227.873 47.3136 227.873 48.0882 227.931 48.7982C227.983 49.4049 228.067 50.0181 228.177 50.6507C228.286 51.2833 228.48 51.7609 228.751 52.0901L228.758 52.0837Z" fill="#1C3664"/>
<path d="M272.269 73.7976C273.037 73.4684 273.747 73.0875 274.406 72.6486C275.064 72.2097 275.639 71.7708 276.136 71.3319C276.626 70.8929 276.988 70.5379 277.207 70.2604L274.328 82.518H251.13C251.62 81.8596 252.059 81.2012 252.447 80.5428C252.776 79.9425 253.079 79.2971 253.35 78.6129C253.621 77.9286 253.763 77.2574 253.763 76.599V56.9377C253.705 56.4987 253.518 56.0211 253.189 55.4983C252.86 54.9754 252.472 54.4978 252.04 54.0588C251.549 53.5102 251.001 52.9615 250.394 52.4129C251.214 51.8126 251.859 51.2058 252.324 50.6055C252.789 50.0052 253.131 49.4566 253.35 48.9596C253.57 48.469 253.692 48.0559 253.718 47.7267C253.744 47.3975 253.757 47.2039 253.757 47.1522V27.5748C253.757 26.7551 253.621 26.0128 253.344 25.3544C253.066 24.696 252.769 24.1474 252.44 23.7084C252.053 23.1598 251.646 22.695 251.207 22.3077H264.943C264.065 22.8564 263.407 23.6245 262.968 24.6121C262.529 25.5997 262.31 26.4775 262.31 27.2457V47.1522C262.31 47.262 262.335 47.4814 262.393 47.8106C262.445 48.1398 262.587 48.5529 262.807 49.0435C263.026 49.534 263.355 50.0698 263.794 50.6507C264.233 51.2252 264.866 51.819 265.685 52.4193C265.137 52.968 264.614 53.5166 264.123 54.0653C263.684 54.5042 263.284 54.9819 262.929 55.5047C262.574 56.0275 262.368 56.5052 262.31 56.9441V74.301H270.042C270.752 74.301 271.495 74.1332 272.263 73.804L272.269 73.7976Z" fill="#1C3664"/>
<path d="M292.137 79.1421C292.382 79.8005 292.673 80.375 293.002 80.872C293.383 81.4788 293.822 81.9951 294.319 82.4341H280.661C281.1 81.9435 281.513 81.3949 281.893 80.7881C282.223 80.2975 282.526 79.7489 282.797 79.1421C283.068 78.5418 283.21 77.8834 283.21 77.167V56.9312C283.152 56.4923 282.965 56.0146 282.636 55.4918C282.307 54.969 281.919 54.4913 281.487 54.0524C280.996 53.5037 280.448 52.9551 279.841 52.4064C280.661 51.8061 281.306 51.1994 281.771 50.5991C282.236 49.9988 282.578 49.4501 282.797 48.9531C283.017 48.4625 283.139 48.0494 283.165 47.7202C283.191 47.391 283.204 47.1974 283.204 47.1457V27.3231C283.204 26.7228 283.068 26.1161 282.791 25.5158C282.513 24.9155 282.216 24.3668 281.887 23.8698C281.5 23.2695 281.093 22.7208 280.654 22.2238H294.312C293.822 22.6046 293.377 23.0759 292.996 23.6245C292.666 24.0634 292.376 24.5863 292.131 25.1866C291.885 25.7933 291.763 26.4517 291.763 27.1617V47.1522C291.763 47.2619 291.776 47.4685 291.802 47.7719C291.827 48.0752 291.95 48.469 292.169 48.966C292.389 49.4566 292.731 50.0052 293.196 50.612C293.661 51.2187 294.306 51.819 295.126 52.4193C294.519 52.968 293.977 53.5166 293.48 54.0653C293.041 54.5042 292.66 54.9819 292.331 55.5047C292.002 56.0275 291.808 56.5052 291.756 56.9441V77.0185C291.756 77.7866 291.879 78.4967 292.124 79.155L292.137 79.1421Z" fill="#1C3664"/>
<path d="M310.03 30.5311V48.9596H318.092C318.582 48.9596 319.105 48.8369 319.654 48.5916C320.203 48.3464 320.693 48.0559 321.132 47.7267C321.681 47.3459 322.204 46.9069 322.694 46.4099V59.8165C322.255 59.3776 321.79 58.9645 321.293 58.5837C320.855 58.2545 320.358 57.9511 319.815 57.68C319.267 57.4089 318.692 57.2669 318.085 57.2669H310.023V77.1734C310.023 77.8318 310.146 78.4773 310.391 79.1099C310.637 79.7424 310.927 80.304 311.256 80.7946C311.637 81.4013 312.076 81.9435 312.573 82.4405H299.166C299.605 81.8402 300.018 81.2335 300.399 80.6332C300.728 80.0846 301.032 79.5101 301.303 78.9033C301.574 78.303 301.716 77.6963 301.716 77.096V56.9441C301.658 56.5052 301.471 56.0275 301.142 55.5047C300.812 54.9819 300.425 54.5042 299.993 54.0653C299.502 53.5166 298.953 52.968 298.347 52.4193C299.166 51.819 299.812 51.2123 300.277 50.612C300.741 50.0117 301.084 49.463 301.303 48.966C301.522 48.4754 301.645 48.0623 301.671 47.7331C301.697 47.404 301.71 47.2103 301.71 47.1587V26.7551C301.71 26.2645 301.574 25.7546 301.297 25.2318C301.019 24.7089 300.722 24.2313 300.393 23.7923C300.006 23.2437 299.599 22.7208 299.16 22.2303H324.579L326.883 33.7456C326.225 33.197 325.567 32.6741 324.908 32.1836C324.301 31.7446 323.63 31.3638 322.894 31.0346C322.152 30.7054 321.397 30.5441 320.635 30.5441H310.023L310.03 30.5311Z" fill="#1C3664"/>
<path d="M353.212 73.591C353.922 73.236 354.555 72.8616 355.104 72.4808C355.704 72.0419 356.285 71.5513 356.834 71.0026L354.529 82.518H328.949C329.388 81.8596 329.801 81.2012 330.182 80.5428C330.511 79.9425 330.814 79.297 331.085 78.6128C331.356 77.9286 331.499 77.2573 331.499 76.5989V56.9376C331.44 56.4987 331.253 56.0211 330.924 55.4982C330.595 54.9754 330.208 54.4977 329.775 54.0588C329.285 53.5102 328.736 52.9615 328.129 52.4129C328.949 51.8126 329.581 51.2187 330.02 50.6442C330.459 50.0697 330.788 49.534 331.008 49.037C331.227 48.5464 331.363 48.1333 331.421 47.8041C331.473 47.4749 331.505 47.2555 331.505 47.1457V27.3231C331.505 26.7744 331.369 26.1999 331.092 25.5932C330.814 24.9929 330.517 24.4443 330.188 23.9472C329.801 23.3469 329.394 22.766 328.955 22.2173H354.374L356.679 33.7327C356.02 33.184 355.388 32.6935 354.787 32.2545C354.181 31.8737 353.554 31.5122 352.896 31.183C352.238 30.8539 351.528 30.6344 350.76 30.5247H339.819V48.9531H347.881C348.481 48.9531 349.062 48.8304 349.611 48.5852C350.159 48.3399 350.65 48.0494 351.089 47.7202C351.579 47.3394 352.051 46.9005 352.489 46.4034V59.81C352.16 59.3711 351.773 58.958 351.341 58.5772C350.953 58.248 350.476 57.9446 349.901 57.6735C349.327 57.4024 348.655 57.2604 347.887 57.2604H339.825V74.2042H351.011C351.779 74.1526 352.522 73.946 353.232 73.5845L353.212 73.591Z" fill="#1C3664"/>
<path d="M335.707 16.0143C335.939 15.9111 336.159 15.7949 336.359 15.6593C336.559 15.5238 336.74 15.3882 336.888 15.2591C337.037 15.1236 337.146 15.0139 337.217 14.9299L336.333 18.6802H329.233C329.381 18.4801 329.517 18.28 329.633 18.0734C329.736 17.8862 329.827 17.6926 329.911 17.4796C329.995 17.273 330.04 17.0665 330.04 16.8599V10.8441C330.02 10.7085 329.962 10.56 329.865 10.4051C329.762 10.2438 329.646 10.1018 329.51 9.96621C329.362 9.79838 329.194 9.63056 329.007 9.46273C329.259 9.27555 329.459 9.09481 329.601 8.90762C329.743 8.72043 329.846 8.55261 329.917 8.40415C329.982 8.25569 330.02 8.12659 330.033 8.02331C330.04 7.92003 330.046 7.86195 330.046 7.84904V1.85254C330.046 1.6008 330.001 1.37489 329.917 1.17479C329.833 0.974693 329.743 0.806859 329.64 0.671309C329.523 0.503484 329.394 0.361486 329.259 0.2453H333.467C333.196 0.413125 332.996 0.645495 332.86 0.94887C332.725 1.25224 332.66 1.51689 332.66 1.75572V7.84904C332.66 7.88131 332.667 7.95231 332.686 8.04913C332.706 8.15241 332.744 8.27505 332.815 8.42997C332.88 8.57843 332.983 8.74626 333.119 8.92054C333.254 9.09481 333.448 9.27555 333.7 9.46273C333.532 9.63056 333.37 9.79838 333.222 9.96621C333.086 10.1018 332.964 10.2502 332.854 10.4051C332.744 10.5665 332.68 10.715 332.667 10.8441V16.1563H335.036C335.255 16.1563 335.481 16.1047 335.713 16.0079L335.707 16.0143Z" fill="#1C3664"/>
<path d="M344.75 16.0143C344.983 15.9111 345.202 15.7949 345.402 15.6593C345.602 15.5238 345.783 15.3882 345.931 15.2591C346.08 15.1236 346.19 15.0139 346.261 14.9299L345.376 18.6802H338.276C338.424 18.4801 338.56 18.28 338.676 18.0734C338.779 17.8862 338.87 17.6926 338.954 17.4796C339.038 17.273 339.083 17.0665 339.083 16.8599V10.8441C339.064 10.7085 339.005 10.56 338.909 10.4051C338.805 10.2438 338.689 10.1018 338.554 9.96621C338.405 9.79838 338.237 9.63056 338.05 9.46273C338.302 9.27555 338.502 9.09481 338.644 8.90762C338.786 8.72043 338.889 8.55261 338.96 8.40415C339.025 8.25569 339.063 8.12659 339.076 8.02331C339.083 7.92003 339.089 7.86195 339.089 7.84904V1.85254C339.089 1.6008 339.044 1.37489 338.96 1.17479C338.876 0.974693 338.786 0.806859 338.683 0.671309C338.566 0.503484 338.437 0.361486 338.302 0.2453H342.51C342.239 0.413125 342.039 0.645495 341.904 0.94887C341.768 1.25224 341.704 1.51689 341.704 1.75572V7.84904C341.704 7.88131 341.71 7.95231 341.729 8.04913C341.749 8.15241 341.787 8.27505 341.858 8.42997C341.923 8.57843 342.026 8.74626 342.162 8.92054C342.297 9.09481 342.491 9.27555 342.743 9.46273C342.575 9.63056 342.414 9.79838 342.265 9.96621C342.13 10.1018 342.007 10.2502 341.897 10.4051C341.787 10.5665 341.723 10.715 341.71 10.8441V16.1563H344.079C344.298 16.1563 344.524 16.1047 344.757 16.0079L344.75 16.0143Z" fill="#1C3664"/>
<path d="M353.283 13.1484C353.2 12.9483 353.109 12.7676 353.006 12.6191C352.89 12.4319 352.761 12.2641 352.625 12.1156H356.808C356.659 12.2512 356.524 12.4126 356.408 12.5933C356.304 12.7417 356.22 12.916 356.143 13.1097C356.065 13.3033 356.027 13.4905 356.027 13.6777V14.7105C356.027 15.2656 355.923 15.782 355.71 16.2725C355.497 16.7566 355.213 17.1826 354.852 17.5441C354.49 17.9056 354.071 18.196 353.593 18.4155C353.116 18.635 352.599 18.7447 352.044 18.7447H351.289C350.734 18.7447 350.217 18.6414 349.74 18.4284C349.262 18.2219 348.843 17.9314 348.481 17.557C348.12 17.1891 347.836 16.7631 347.623 16.2854C347.41 15.8078 347.306 15.2914 347.306 14.7363V10.857C347.287 10.7214 347.229 10.5729 347.132 10.418C347.029 10.2567 346.913 10.1147 346.777 9.97911C346.629 9.81128 346.461 9.64345 346.273 9.47562C346.525 9.28843 346.725 9.10771 346.867 8.92052C347.009 8.73333 347.113 8.5655 347.184 8.41704C347.248 8.26858 347.287 8.13948 347.3 8.03621C347.306 7.93293 347.313 7.87484 347.313 7.86193V4.03424C347.313 3.47913 347.416 2.96275 347.629 2.47218C347.836 1.98808 348.126 1.56206 348.488 1.20059C348.849 0.839123 349.269 0.548653 349.746 0.329191C350.224 0.109728 350.74 0 351.295 0H352.076C352.631 0 353.148 0.109728 353.626 0.329191C354.103 0.548653 354.523 0.839123 354.871 1.20059C355.226 1.56206 355.504 1.98808 355.717 2.47218C355.923 2.95629 356.033 3.47913 356.033 4.03424V4.78945C356.033 5.02182 356.072 5.24128 356.162 5.44138C356.246 5.64148 356.337 5.82222 356.44 5.97068C356.556 6.15787 356.692 6.31279 356.84 6.44834H352.631C352.78 6.31279 352.915 6.16432 353.032 5.99649C353.135 5.86094 353.225 5.70603 353.309 5.51885C353.393 5.33166 353.432 5.1251 353.432 4.89273V4.03424C353.432 3.64695 353.296 3.32422 353.032 3.06602C352.761 2.80783 352.444 2.67873 352.076 2.67873H351.295C350.908 2.67873 350.585 2.80783 350.327 3.06602C350.069 3.32422 349.94 3.64695 349.94 4.03424V7.86193C349.94 7.8942 349.94 7.95875 349.953 8.04912C349.959 8.13949 349.998 8.26212 350.069 8.41704C350.133 8.5655 350.243 8.73333 350.385 8.92052C350.527 9.10771 350.727 9.28843 350.979 9.47562C350.792 9.64345 350.624 9.81128 350.476 9.97911C350.34 10.1147 350.224 10.2631 350.121 10.418C350.017 10.5794 349.959 10.7279 349.946 10.857V14.7363C349.946 15.1042 350.075 15.4205 350.334 15.6787C350.592 15.9369 350.915 16.066 351.302 16.066H352.057C352.444 16.066 352.767 15.9369 353.025 15.6787C353.283 15.4205 353.413 15.0977 353.413 14.7105V13.8068C353.413 13.5744 353.367 13.355 353.283 13.1549V13.1484Z" fill="#1C3664"/>
<path d="M51.4382 100.275V92.5552H53.6521V100.275C53.6521 102.941 51.5608 104.651 49.1338 104.651C46.7068 104.651 44.6025 102.941 44.6025 100.275V92.5552H46.8488V100.275C46.8488 101.656 47.9397 102.56 49.1338 102.56C50.3279 102.56 51.4382 101.663 51.4382 100.275Z" fill="#1C3664"/>
<path d="M67.4074 104.484H65.3806L60.7783 96.6475V104.484H58.5837V92.5616H60.6428L65.1934 100.314V92.5616H67.4074V104.484Z" fill="#1C3664"/>
<path d="M72.4614 104.484V92.5616H77.1153C80.5235 92.5616 82.4986 95.1565 82.4986 98.5452C82.4986 101.934 80.5235 104.477 77.1153 104.477H72.4614V104.484ZM74.6754 102.457H77.1153C79.226 102.457 80.2846 100.695 80.2846 98.5452C80.2846 96.3958 79.226 94.582 77.1153 94.582H74.6754V102.457Z" fill="#1C3664"/>
<path d="M86.8943 92.5616H94.2657V94.5368H89.0954V97.6351H93.6267V99.5909H89.0954V102.515H94.44V104.49H86.8943V92.5681V92.5616Z" fill="#1C3664"/>
<path d="M107.472 104.484H104.806L102.005 100.243H101.088V104.484H98.8744V92.5616H103.651C106.278 92.5616 107.459 94.4852 107.459 96.4216C107.459 98.1192 106.562 99.8297 104.432 100.159L107.479 104.484H107.472ZM101.088 94.5304V98.2677H103.477C104.651 98.2677 105.155 97.2995 105.155 96.4152C105.155 95.5308 104.651 94.5304 103.548 94.5304H101.088Z" fill="#1C3664"/>
<path d="M123.254 92.5616H125.662L121.615 104.484H119.833L118 97.719L116.199 104.484H114.398L110.383 92.5616H112.772L115.315 100.869L117.129 94.227H118.891L120.692 100.869L123.254 92.5616Z" fill="#1C3664"/>
<path d="M135.144 101.592H130.697L129.606 104.484H127.25L131.716 92.5616H134.105L138.571 104.484H136.235L135.144 101.592ZM131.439 99.6555H134.415L132.911 95.1048L131.439 99.6555Z" fill="#1C3664"/>
<path d="M143.987 104.484V99.0487L139.417 92.5616H142.044L145.104 97.1445L148.202 92.5616H150.848L146.246 99.0874V104.484H143.98H143.987Z" fill="#1C3664"/>
<path d="M151.604 106.246C152.333 105.258 152.933 103.683 152.882 102.005H155.063C154.979 104.548 153.818 106.091 153.004 106.762L151.604 106.246Z" fill="#1C3664"/>
<path d="M167.657 101.005C167.708 101.889 168.438 102.683 169.716 102.683C170.91 102.683 171.639 102.063 171.691 101.25C171.743 100.469 171.187 99.933 170.045 99.6232L168.573 99.2423C165.978 98.5 165.565 96.9573 165.565 95.9181C165.565 93.8268 167.379 92.4261 169.58 92.4261C171.781 92.4261 173.543 93.8074 173.543 96.0278H171.329C171.329 95.079 170.652 94.4722 169.548 94.4722C168.56 94.4722 167.766 95.0274 167.766 95.8729C167.766 96.2215 167.902 96.9315 169.186 97.2414L170.658 97.6738C173.343 98.4161 173.995 99.9072 173.911 101.308C173.827 103.451 171.885 104.684 169.722 104.684C167.179 104.684 165.449 103.057 165.449 101.017H167.663L167.657 101.005Z" fill="#1C3664"/>
<path d="M187.402 92.5616V104.484H185.168V99.5522H180.392V104.484H178.197V92.5616H180.392V97.5641H185.168V92.5616H187.402Z" fill="#1C3664"/>
<path d="M192.456 92.5616H194.651V104.484H192.456V92.5616Z" fill="#1C3664"/>
<path d="M199.711 92.5616H206.992V94.5368H201.925V97.6351H205.94V99.6103H201.925V104.49H199.711V92.5681V92.5616Z" fill="#1C3664"/>
<path d="M210.026 92.5616H218.972V94.5885H215.616V104.484H213.382V94.5885H210.026V92.5616Z" fill="#1C3664"/>
<path d="M239.027 102.231C237.988 103.703 236.258 104.651 234.18 104.651C230.791 104.651 228.177 101.902 228.177 98.5452C228.177 95.1887 230.791 92.4196 234.18 92.4196C236.207 92.4196 237.936 93.3168 238.976 94.7756L237.213 96.0408C236.523 95.1435 235.451 94.5174 234.186 94.5174C232.024 94.5174 230.397 96.3312 230.397 98.5517C230.397 100.772 232.024 102.567 234.186 102.567C235.484 102.567 236.594 101.928 237.284 100.959L239.034 102.237L239.027 102.231Z" fill="#1C3664"/>
<path d="M248.283 92.4196C251.672 92.4196 254.338 95.1694 254.338 98.5452C254.338 101.921 251.672 104.651 248.283 104.651C244.895 104.651 242.242 101.902 242.242 98.5452C242.242 95.1887 244.888 92.4196 248.283 92.4196ZM248.283 102.476C250.413 102.476 252.124 100.727 252.124 98.5517C252.124 96.3764 250.413 94.6078 248.283 94.6078C246.153 94.6078 244.443 96.3893 244.443 98.5517C244.443 100.714 246.121 102.476 248.283 102.476Z" fill="#1C3664"/>
<path d="M258.669 92.5616H260.883V102.508H265.485V104.484H258.669V92.5616Z" fill="#1C3664"/>
<path d="M274.483 92.4196C277.872 92.4196 280.538 95.1694 280.538 98.5452C280.538 101.921 277.872 104.651 274.483 104.651C271.095 104.651 268.442 101.902 268.442 98.5452C268.442 95.1887 271.088 92.4196 274.483 92.4196ZM274.483 102.476C276.613 102.476 278.324 100.727 278.324 98.5517C278.324 96.3764 276.613 94.6078 274.483 94.6078C272.353 94.6078 270.643 96.3893 270.643 98.5517C270.643 100.714 272.321 102.476 274.483 102.476Z" fill="#1C3664"/>
<path d="M293.467 104.484H290.801L288 100.243H287.083V104.484H284.869V92.5616H289.646C292.273 92.5616 293.454 94.4852 293.454 96.4216C293.454 98.1192 292.557 99.8297 290.427 100.159L293.473 104.484H293.467ZM287.083 94.5304V98.2677H289.471C290.646 98.2677 291.15 97.2995 291.15 96.4152C291.15 95.5308 290.646 94.5304 289.542 94.5304H287.083Z" fill="#1C3664"/>
<path d="M299.386 101.005C299.438 101.889 300.167 102.683 301.445 102.683C302.639 102.683 303.368 102.063 303.42 101.25C303.472 100.469 302.917 99.933 301.774 99.6232L300.302 99.2423C297.708 98.5 297.295 96.9573 297.295 95.9181C297.295 93.8268 299.108 92.4261 301.309 92.4261C303.51 92.4261 305.273 93.8074 305.273 96.0278H303.059C303.059 95.079 302.381 94.4722 301.277 94.4722C300.29 94.4722 299.496 95.0274 299.496 95.8729C299.496 96.2215 299.631 96.9315 300.916 97.2414L302.387 97.6738C305.073 98.4161 305.724 99.9072 305.641 101.308C305.557 103.451 303.614 104.684 301.451 104.684C298.908 104.684 297.178 103.057 297.178 101.017H299.392L299.386 101.005Z" fill="#1C3664"/>
<path d="M310.843 102.024C311.605 102.024 312.224 102.579 312.224 103.341C312.224 104.103 311.605 104.658 310.843 104.658C310.081 104.658 309.494 104.103 309.494 103.341C309.494 102.579 310.101 102.024 310.843 102.024ZM312.102 92.5616L311.773 101.005H309.959L309.63 92.5616H312.102Z" fill="#1C3664"/>
<path d="M26.3226 54.1622H3.29191C3.49846 54.4204 3.69856 54.6785 3.88575 54.9432C4.40859 55.6726 4.66678 56.3245 4.66678 56.9377V75.4436C4.66678 76.5086 4.50541 77.5414 4.19558 78.5161C3.89866 79.4327 3.56946 80.233 3.208 80.8979C3.18218 80.956 3.1499 81.0141 3.12408 81.0657L17.202 81.1367C18.8221 81.1367 20.3519 80.8269 21.7397 80.2201C23.1468 79.6005 24.3991 78.7549 25.4576 77.6963C26.5162 76.6377 27.3683 75.3855 27.9815 73.9784C28.5882 72.5841 28.8981 71.0608 28.8981 69.4406V61.3786C28.8981 59.6681 28.5366 58.0415 27.833 56.5504C27.4199 55.6726 26.91 54.8851 26.3355 54.1686L26.3226 54.1622ZM22.9274 69.4406C22.9274 71.0543 22.3723 72.4292 21.2749 73.5265C20.1776 74.6238 18.8028 75.179 17.1891 75.179H10.3793V55.7178H17.1891C18.8028 55.7178 20.1712 56.2729 21.2749 57.3767C22.3723 58.474 22.9274 59.823 22.9274 61.3786V69.4406Z" fill="#87CDEA"/>
<path d="M54.685 54.1622C54.8076 54.3235 54.9238 54.4849 55.0335 54.6527C55.4402 55.2659 55.7242 55.8727 55.8727 56.4536L55.9114 56.6085V69.1889C55.9114 70.6929 55.3821 72.1129 54.3429 73.4168C53.2456 74.7852 51.7932 75.5082 50.186 75.5082L47.6557 75.5921C45.9904 75.5921 44.5381 74.8498 43.4407 73.4491C42.408 72.1258 41.8787 70.6929 41.8787 69.1954V56.8603L41.8916 56.7828C41.9755 56.1309 42.2466 55.4725 42.7243 54.7689C42.8663 54.5624 43.0212 54.3687 43.1761 54.1686H34.6106C34.7655 54.3752 34.9269 54.5882 35.0689 54.8076C35.4755 55.4531 35.7466 56.047 35.8886 56.6279L35.9274 56.7828V69.6924C35.9274 71.319 36.2372 72.8617 36.8504 74.2817C37.4636 75.7082 38.3221 76.9669 39.4065 78.0191C40.4974 79.0841 41.769 79.9555 43.189 80.601C44.5703 81.2271 46.0808 81.5498 47.688 81.5563L50.1795 81.4724C51.7997 81.4724 53.3295 81.1625 54.7173 80.5558C56.1244 79.9426 57.3895 79.0776 58.4739 77.9868C59.5583 76.9024 60.4233 75.6372 61.043 74.2301C61.6497 72.8359 61.9595 71.3125 61.9595 69.6924V56.8603L61.9724 56.7828C62.0499 56.1502 62.3016 55.5048 62.7406 54.8076C62.8826 54.5882 63.031 54.3752 63.1859 54.1686H54.6979L54.685 54.1622Z" fill="#87CDEA"/>
<path d="M97.364 78.1611C97.2994 77.9416 97.2155 77.5091 97.0025 75.9019C96.8411 74.669 96.6346 73.1199 96.3828 71.2545C96.1376 69.389 95.86 67.3493 95.5631 65.1288C95.2597 62.8955 94.9434 60.7009 94.6142 58.5901C94.4722 57.538 94.6013 56.5375 94.9951 55.608C95.2145 55.0917 95.4534 54.614 95.718 54.1622H88.2563L89.4956 62.9213H77.948L79.1873 54.1622H71.3899C71.7191 54.7108 72.0289 55.2853 72.3129 55.8985C72.7454 56.8409 72.8939 57.8285 72.7519 58.8419L70.028 78.5677L70.0086 78.6323C69.873 79.168 69.66 79.7231 69.3631 80.2847C69.2082 80.5752 69.0533 80.8527 68.8919 81.1367H77.2186C76.8636 80.5364 76.5537 79.8651 76.2891 79.1293C75.9664 78.2321 75.876 77.3348 76.018 76.5022L77.0766 68.6338H90.2702C90.2702 68.6338 90.6574 71.1576 90.7607 71.8418C90.8705 72.455 90.9866 73.178 91.0964 73.9913C91.2061 74.7852 91.3158 75.5598 91.4256 76.3279C91.5611 77.3026 91.4772 78.2514 91.1609 79.1551C90.9092 79.878 90.6187 80.5364 90.2766 81.1367H98.6549C98.4484 80.7753 98.2354 80.388 98.0288 79.9749C97.719 79.3552 97.4931 78.7484 97.3575 78.1611H97.364Z" fill="#87CDEA"/>
<path d="M116.573 78.0771V56.9377L116.586 56.8602C116.664 56.2341 116.909 55.5822 117.335 54.8721C117.484 54.6269 117.645 54.3945 117.806 54.1686H109.376C109.544 54.3945 109.706 54.6333 109.854 54.8721C110.28 55.5822 110.525 56.2341 110.603 56.8602L110.616 56.9441V77.9222C110.616 78.6774 110.428 79.4197 110.054 80.1297C109.848 80.517 109.628 80.8914 109.402 81.227H117.729C117.516 80.9043 117.316 80.5622 117.135 80.2136C116.761 79.5101 116.573 78.7936 116.573 78.0836V78.0771Z" fill="#87CDEA"/>
<path d="M154.076 75.5017H154.031H141.502V55.9631H150.861C151.817 55.9631 152.682 56.1438 153.437 56.4988C153.695 56.6214 153.94 56.7505 154.173 56.8861V54.1557H134.569C134.724 54.3623 134.879 54.5753 135.015 54.7947C135.447 55.4854 135.699 56.1309 135.783 56.7634L135.796 56.8474V76.5861C135.796 77.4058 135.628 78.245 135.292 79.0841C134.995 79.8199 134.673 80.5171 134.305 81.1884C134.305 81.1948 134.298 81.2013 134.292 81.2077H156.47L157.884 74.1591C157.542 74.3592 157.18 74.5528 156.8 74.7465C155.935 75.1789 155.025 75.4307 154.089 75.4952L154.076 75.5017Z" fill="#87CDEA"/>
<path d="M189.848 77.9093L187.053 69.5181C186.233 67.0524 185.298 64.2833 184.258 61.2172L183.929 60.2361L184.807 59.6939C186.479 58.6612 187.841 57.254 188.848 55.5048C189.099 55.0658 189.319 54.6205 189.506 54.1622H182.38C181.347 55.0594 180.101 55.5177 178.662 55.5177H171.691V54.1622H164.758C164.913 54.3687 165.068 54.5817 165.204 54.8012C165.636 55.4919 165.888 56.1373 165.972 56.7699L165.985 56.8538V77.9093C165.985 78.5096 165.804 79.1551 165.423 79.8716C165.178 80.3363 164.913 80.7946 164.642 81.2206H173.027C172.711 80.6784 172.42 80.1104 172.175 79.5359C171.859 78.8001 171.697 78.0901 171.697 77.4188V61.398H178.384L183.387 77.1025L183.4 77.1799C183.6 78.245 183.593 79.1938 183.38 80.0071C183.264 80.459 183.122 80.8656 182.967 81.2206H191.881C191.649 80.9495 191.41 80.6591 191.171 80.3492C190.623 79.6392 190.184 78.8259 189.855 77.9093H189.848Z" fill="#87CDEA"/>
<path d="M232.547 59.1517C231.927 57.9963 231.211 56.899 230.417 55.892C229.945 55.2982 229.448 54.7173 228.945 54.1622H217.978C218.101 54.7689 218.152 55.4467 218.114 56.2212C218.378 56.2148 218.637 56.2083 218.888 56.2083C219.54 56.2083 220.218 56.2535 220.909 56.3439C221.748 56.4536 222.458 56.7118 223.013 57.1056L223.103 57.1701L223.181 57.2476C224.672 58.7386 225.95 60.32 226.983 61.9531C228.099 63.7217 228.661 65.7937 228.661 68.1174C228.661 70.4411 228.009 72.4357 226.718 73.7266C225.427 75.0176 223.871 75.6695 222.096 75.6695C220.321 75.6695 218.688 75.0047 217.455 73.7008C216.235 72.4163 215.616 70.538 215.616 68.1174V65.897C215.616 65.1999 215.803 64.4769 216.164 63.754C216.371 63.3409 216.597 62.9471 216.829 62.5857H208.657C208.877 62.9213 209.077 63.2892 209.271 63.6701C209.632 64.3995 209.819 65.1482 209.819 65.897V67.543C209.819 70.3121 210.09 72.6358 210.633 74.456C211.143 76.1924 211.911 77.5866 212.911 78.6064C213.912 79.6328 215.138 80.3363 216.655 80.7753C218.256 81.2336 220.173 81.4659 222.342 81.4659C230.662 81.4659 234.535 77.0444 234.535 67.543C234.535 65.8518 234.354 64.3026 233.999 62.9342C233.644 61.5594 233.153 60.2813 232.547 59.1453V59.1517Z" fill="#87CDEA"/>
<path d="M270.049 75.592H261.019V56.8602L261.032 56.7828C261.115 56.1308 261.387 55.4724 261.864 54.7689C262.006 54.5623 262.161 54.3687 262.316 54.1686H253.841C253.996 54.3751 254.151 54.5881 254.286 54.8076C254.712 55.4853 254.97 56.1502 255.054 56.7763L255.067 56.8602V76.599C255.067 77.4187 254.9 78.2578 254.564 79.097C254.267 79.8328 253.944 80.5299 253.576 81.2012C253.576 81.2077 253.57 81.2141 253.563 81.2206H273.309L275.058 73.7847C274.361 74.243 273.599 74.6496 272.792 74.9917C271.863 75.3919 270.946 75.592 270.062 75.592H270.049Z" fill="#87CDEA"/>
<path d="M290.472 77.0057V56.8538L290.485 56.7764C290.562 56.1438 290.814 55.4983 291.253 54.8012C291.388 54.5817 291.543 54.3687 291.698 54.1622H283.294C283.449 54.3687 283.604 54.5817 283.74 54.8012C284.172 55.4919 284.424 56.1373 284.508 56.7699L284.521 56.8538V77.1735C284.521 78.0707 284.346 78.9163 283.991 79.6844C283.752 80.2072 283.494 80.6978 283.223 81.1367H291.647C291.382 80.672 291.137 80.1556 290.93 79.6005C290.627 78.8001 290.478 77.9287 290.478 77.0057H290.472Z" fill="#87CDEA"/>
<path d="M301.794 54.1622C301.948 54.3687 302.103 54.5817 302.239 54.8012C302.671 55.4919 302.923 56.1373 303.007 56.7699L303.02 56.8538V77.0896C303.02 77.8771 302.846 78.6645 302.491 79.4391C302.226 80.0265 301.929 80.5881 301.606 81.1432H309.946C309.662 80.6655 309.41 80.1427 309.191 79.5811C308.887 78.8001 308.732 77.9932 308.732 77.1735V55.9695H318.092C318.892 55.9695 319.667 56.1567 320.403 56.5182C320.751 56.6924 321.087 56.8796 321.403 57.0797V54.1622H301.8H301.794Z" fill="#87CDEA"/>
<path d="M351.089 75.5017H351.044H338.515V55.9631H347.874C348.83 55.9631 349.695 56.1438 350.45 56.4988C350.708 56.6214 350.953 56.7505 351.186 56.8861V54.1557H331.582C331.737 54.3623 331.892 54.5753 332.028 54.7947C332.46 55.4854 332.712 56.1309 332.796 56.7634L332.809 56.8474V76.5861C332.809 77.4058 332.641 78.245 332.305 79.0841C332.008 79.8199 331.686 80.5171 331.318 81.1884C331.318 81.1948 331.311 81.2013 331.305 81.2077H353.484L354.897 74.1591C354.555 74.3592 354.194 74.5528 353.813 74.7465C352.948 75.1789 352.038 75.4307 351.102 75.4952L351.089 75.5017Z" fill="#87CDEA"/>
</svg>
