<svg width="251" height="129" viewBox="0 0 251 129" fill="none" xmlns="http://www.w3.org/2000/svg">
<path d="M70.7834 30.7253C72.623 29.9313 74.482 29.9184 76.2764 30.6349C78.4582 31.5063 80.1945 32.8747 80.4204 35.5018C80.4592 35.973 80.698 36.4249 80.8787 37.0187C81.2531 36.6831 81.4984 36.47 81.7372 36.2441C82.2213 35.7794 82.6731 35.2824 83.1831 34.8499C84.5902 33.6493 86.1523 33.2749 87.9661 33.8365C89.4248 34.2948 90.4189 35.2565 91.1483 36.5023C91.7486 37.5286 92.5619 37.9482 93.7302 37.903C95.1632 37.8449 96.5445 38.1547 97.9323 38.5033C101.063 39.2908 104.226 39.8136 107.479 39.6716C110.822 39.5296 114.172 39.478 117.516 39.4586C122.493 39.4263 127.476 39.4134 132.452 39.4715C136.467 39.5167 140.482 39.762 144.491 39.7684C151.939 39.7878 159.382 39.6716 166.831 39.6716C172.853 39.6716 178.875 39.7943 184.898 39.8136C186.589 39.8136 188.28 39.6716 190.061 39.5877C189.364 37.903 188.202 36.6831 187.163 35.3921C186.453 34.5013 185.614 33.7139 184.833 32.8812C184.291 32.055 183.845 31.1255 183.174 30.4219C180.799 27.9497 178.423 25.4711 175.9 23.1474C172.227 19.7715 168.122 16.9701 163.784 14.5109C158.794 11.6837 153.624 9.24375 148.112 7.63006C145.401 6.83612 142.593 6.39719 139.856 5.68071C135.828 4.62213 131.704 4.40266 127.586 4.23484C123.887 4.08638 120.188 4.18966 116.496 4.68667C112.61 5.20951 108.783 5.98409 105.007 6.99103C99.901 8.34654 95.0792 10.4508 90.3672 12.8068C81.8663 17.0605 74.4885 22.8311 67.8917 29.6344C67.1494 30.4025 66.6395 31.332 66.3167 32.3971C66.7234 32.1324 67.1236 31.8678 67.5302 31.6031C68.6533 31.4159 69.7571 31.1642 70.777 30.7253H70.7834ZM126.359 28.3435C127.34 28.1692 128.321 28.0078 129.303 27.8271C130.49 27.6076 131.484 27.0396 132.31 26.1618C132.427 26.0391 132.549 25.9294 132.672 25.8132C134.867 23.7928 137.022 23.7928 139.204 25.8132C139.449 26.0391 139.695 26.2715 139.959 26.4716C140.121 26.5942 140.321 26.6717 140.463 26.7491C141.237 26.6652 141.321 26.1295 141.367 25.5615C141.444 24.5545 141.612 23.5863 142.135 22.6891C145.11 17.5511 150.971 19.3003 153.14 22.5664C153.418 22.9795 153.637 23.4378 153.844 23.8961C154.295 24.8902 154.405 25.768 154.231 27.2203C154.909 26.846 155.425 26.6071 155.89 26.2973C158.084 24.8514 160.421 24.9676 162.293 26.8072C163.326 27.8206 164.539 28.1563 165.882 28.3177C167.521 28.5177 169.161 28.7308 170.787 29.0535C170.084 29.0535 169.367 29.1051 168.67 29.047C165.12 28.7308 161.57 28.9567 158.02 29.0083C152.708 29.0793 147.402 28.9567 142.089 28.9567C138.746 28.9567 135.402 29.0212 132.059 29.0406C129.451 29.0535 126.843 29.0406 124.236 29.0406C124.229 28.9438 124.216 28.8469 124.21 28.7501C124.926 28.621 125.643 28.4855 126.359 28.3564V28.3435ZM115.509 17.493C115.793 17.8996 116.051 18.2675 116.361 18.7129C116.038 19.1196 115.735 19.4875 115.315 20.0168C114.921 19.5069 114.618 19.1131 114.205 18.5709C114.682 18.1707 115.057 17.8674 115.509 17.493ZM85.9522 31.7C88.7084 31.8032 91.4581 32.0292 94.2143 32.1131C98.9779 32.2615 103.748 32.3713 108.518 32.4293C115.709 32.5197 122.906 32.5133 130.103 32.623C133.698 32.6811 137.287 32.9974 140.882 33.0232C146.111 33.0619 151.339 32.9651 156.568 32.8876C159.705 32.8425 162.848 32.8747 165.966 32.6036C169.826 32.268 173.647 32.6811 177.488 32.765C179.075 32.7973 180.663 32.6875 182.251 32.7005C183.09 32.7005 183.929 32.8231 184.762 32.9005C184.614 33.0038 184.465 33.1394 184.31 33.1587C183.478 33.2556 182.645 33.3588 181.812 33.3653C179.469 33.3911 177.126 33.333 174.783 33.3782C168.806 33.5008 162.829 33.7074 156.852 33.7913C151.249 33.8688 145.64 33.8752 140.03 33.83C137.19 33.8042 134.35 33.5848 131.51 33.4815C129.877 33.4234 128.25 33.3911 126.617 33.3847C117.871 33.3653 109.131 33.3976 100.385 33.3266C97.3771 33.3007 94.3757 33.049 91.3742 32.8683C90.7093 32.8295 90.0445 32.7263 89.399 32.5714C87.3464 32.0743 85.2615 32.0614 83.1702 32.0292C82.3891 32.0162 81.6081 31.9194 80.84 31.6806C82.5505 31.6806 84.261 31.629 85.9651 31.6935L85.9522 31.7Z" fill="#87CDEA"/>
<path d="M184.73 59.7073C185.64 59.7202 186.434 59.5911 187.105 58.8488C187.505 58.4035 188.745 57.4546 189.881 56.9834C188.364 57.0092 186.847 56.9769 185.33 56.9899C180.476 57.0479 175.629 57.1512 170.775 57.1706C164.623 57.1964 158.478 57.1319 152.327 57.1448C150.668 57.1448 149.009 57.1641 147.344 57.177C147.215 57.3126 147.079 57.4352 146.924 57.5579C145.904 58.326 144.775 58.8553 143.574 59.1328C143.355 59.1845 143.142 59.2297 142.929 59.2748C145.898 59.3265 148.867 59.3781 151.843 59.4104C157.613 59.4749 163.39 59.5008 169.161 59.5459C174.35 59.5911 179.534 59.6363 184.723 59.7009L184.73 59.7073Z" fill="#87CDEA"/>
<path d="M58.2805 45.468C62.9538 45.4358 67.6399 45.397 72.3261 45.3777C83.8673 45.3325 95.4149 45.5842 106.956 45.2486C113.895 45.0549 120.84 45.3067 127.779 45.3519C128.089 45.3648 136.622 45.2486 137.532 45.2357H137.603C139.314 45.3067 141.024 45.3648 142.735 45.3712C158.091 45.4293 173.447 45.4487 188.803 45.5003C190.378 45.5003 191.94 45.6036 193.618 45.6746C193.25 43.5832 191.643 42.2536 190.597 40.8077C186.15 40.8529 181.89 40.911 177.63 40.9432C170.6 41.0013 163.571 41.0788 156.542 41.0723C148.641 41.0723 140.728 41.2466 132.775 41.0594C132.491 41.0594 132.214 41.0594 131.923 41.0465C130.374 41.0594 127.534 41.1627 127.147 41.1498C125.733 41.0788 124.307 41.0142 122.886 41.0013C114.269 40.8851 105.659 40.7496 97.0415 40.7044C91.9422 40.6786 86.8429 40.84 81.7437 40.8787C76.3475 40.9045 70.9448 40.8916 65.5615 40.8464C63.8639 40.8335 62.1598 40.6657 60.288 40.5495C59.4295 41.6726 58.4935 42.8474 57.6092 44.0544C57.3252 44.4482 57.0347 44.8936 57.4156 45.481H58.2741L58.2805 45.468Z" fill="#87CDEA"/>
<path d="M108.867 52.3876C108.415 51.8131 107.898 51.1482 107.692 50.8836C107.363 50.4576 107.046 50.0251 106.756 49.5733C106.717 49.5152 106.691 49.4635 106.659 49.4055C106.556 49.4055 106.453 49.4055 106.349 49.4055C106.22 49.4055 106.098 49.4055 105.968 49.4055L108.738 52.394C108.783 52.394 108.828 52.394 108.867 52.394V52.3876Z" fill="#87CDEA"/>
<path d="M113.353 52.2907C112.94 51.755 112.526 51.2128 112.113 50.6771L111.074 49.328C110.958 49.328 110.842 49.328 110.726 49.3345C111.649 50.3027 112.501 51.2838 113.282 52.2843C113.307 52.2843 113.327 52.2843 113.353 52.2843V52.2907Z" fill="#87CDEA"/>
<path d="M191.165 49.0762C190.462 49.0762 189.752 49.1666 189.042 49.1795C182.851 49.1924 176.674 49.1924 170.478 49.2053C164.462 49.2183 158.426 49.2182 152.411 49.2376C149.151 49.2505 145.885 49.3151 142.625 49.3538C140.727 49.3667 138.823 49.3796 136.919 49.3796C136.358 49.3538 128.799 49.2312 128.431 49.2312C124.171 49.2183 119.898 49.2182 115.638 49.2182C115.541 49.2182 115.444 49.2183 115.354 49.2247L117.632 51.5872L117.929 51.542C118.588 51.4387 119.278 51.329 119.962 51.187C122.448 50.6706 125.739 50.0703 129.109 50.0703C129.109 50.0703 130.251 50.0832 130.6 50.0832L133.15 50.0703C133.924 50.0703 134.944 50.0767 135.983 50.1413C137.158 50.2123 138.313 50.3995 139.437 50.5802C139.979 50.6706 140.521 50.7545 141.063 50.8319C142.657 51.0514 144.174 51.4839 145.575 52.1294C145.962 52.3036 146.285 52.4844 146.576 52.678C151.675 52.7877 156.768 52.8846 161.867 52.9168C169.484 52.962 177.1 52.8007 184.71 52.7103C187.124 52.678 189.545 52.5489 191.946 52.1487C192.714 52.0132 193.521 52.1035 194.315 52.1165C195.109 52.1294 195.89 52.1875 196.632 52.2197C197.401 50.748 196.678 49.2312 195.174 49.1279C193.844 49.0375 192.508 49.0698 191.165 49.0827V49.0762Z" fill="#87CDEA"/>
<path d="M55.5373 52.0325C57.7448 51.9551 59.9717 51.6323 62.0824 52.6328C62.36 52.7684 62.7343 52.7361 63.07 52.7361C68.2145 52.6651 73.3589 52.5618 78.5098 52.5296C83.4478 52.4844 88.3792 52.4973 93.3171 52.4973C93.9368 52.4973 94.5564 52.4973 95.1761 52.5037C95.2213 52.2778 95.331 52.0713 95.5053 51.9034C95.7248 51.6969 96.0088 51.5872 96.2992 51.5872C96.4477 51.5872 96.6026 51.6194 96.7446 51.6775C97.261 51.897 97.6677 52.2004 98.0291 52.5231C98.694 52.5231 99.3523 52.5296 100.011 52.536C100.011 52.4779 99.9978 52.4198 100.011 52.3617L99.6751 51.8453C99.4104 51.4387 99.4298 50.9159 99.7203 50.5286C99.9397 50.2317 100.282 50.0703 100.643 50.0703C100.753 50.0703 100.863 50.0832 100.973 50.1155C102.296 50.5092 103.051 51.4193 103.716 52.2197L103.974 52.5231C104.142 52.5231 104.31 52.5166 104.477 52.5102C104.342 52.323 104.2 52.1294 104.051 51.9422C103.496 51.2321 102.87 50.4318 102.599 49.3667C99.4556 49.3151 96.3186 49.2376 93.1816 49.2312C82.131 49.186 71.0804 49.1731 60.0427 49.1408C58.7453 49.1408 57.4479 49.0956 56.1505 49.1085C54.6142 49.1214 53.5169 50.4059 53.9236 51.9357C54.427 51.968 54.9886 52.0648 55.5437 52.039L55.5373 52.0325Z" fill="#87CDEA"/>
<path d="M234.315 127.418C227.377 127.102 220.438 127.082 213.492 127.328C206.766 127.566 200.028 127.65 193.295 127.792C192.669 127.805 192.037 127.773 191.417 127.708C189.468 127.495 187.525 127.218 185.569 127.044C180.483 126.598 175.39 126.56 170.278 126.676C162.919 126.837 155.554 126.727 148.189 126.792C128.528 126.96 108.867 126.334 89.2118 127.27C86.4169 127.405 83.6284 127.625 80.84 127.805C80.84 127.844 80.84 127.883 80.8464 127.921C85.8231 128.018 90.7933 128.186 95.7699 128.205C110.997 128.264 126.224 128.322 141.457 128.276C158.569 128.225 175.674 128.541 192.785 128.076C197.213 127.954 201.654 128.128 206.082 128.205C218.424 128.425 230.759 128.412 243.094 127.986C243.21 127.986 243.333 127.954 243.449 127.934C241.693 127.728 239.944 127.625 238.188 127.547C236.891 127.489 235.593 127.489 234.303 127.431L234.315 127.418Z" fill="#87CDEA"/>
<path d="M68.2918 57.0737C65.8455 57.0931 63.3991 57.3578 60.9592 57.5062C60.9592 57.5643 60.9592 57.6159 60.9528 57.674C61.7273 57.7579 62.4954 57.8419 63.3281 57.9322C63.5799 58.1323 63.9091 58.3389 64.1608 58.61C65.0193 59.5459 66.0585 59.8364 67.3172 59.7718C69.8668 59.6363 72.4165 59.5847 74.9661 59.5459C81.3241 59.4491 87.6885 59.3716 94.0465 59.2877C94.0465 59.2684 94.04 59.249 94.0335 59.2296L94.0206 59.0941C93.9754 58.6939 94.0787 58.3518 94.1497 58.1323C94.2465 57.6934 94.6145 57.248 95.0534 57.1512L95.3116 57.0931C94.5047 57.0802 93.6914 57.0737 92.8846 57.0673C84.687 57.035 76.4894 57.0221 68.2918 57.0802V57.0737Z" fill="#87CDEA"/>
<path d="M66.0391 70.5707C72.8812 70.4997 79.7233 70.4803 86.5654 70.3448C92.9169 70.2157 99.2619 70.0091 105.607 69.738C108.228 69.6283 110.829 69.2668 113.443 69.0215C112.933 68.7956 112.423 68.744 111.913 68.7375C109.131 68.6924 106.343 68.6149 103.561 68.6214C95.9377 68.6343 88.3146 68.6859 80.698 68.7246C76.5411 68.744 72.3907 68.7504 68.2338 68.7892C66.7815 68.8021 65.3291 68.9054 63.7025 68.9699C63.7606 69.5121 63.8123 69.9898 63.8703 70.5707C64.6901 70.5707 65.3679 70.5707 66.0456 70.5707H66.0391Z" fill="#87CDEA"/>
<path d="M14.814 110.139C20.6297 110.203 26.4455 110.306 32.2548 110.268C40.5363 110.216 48.8242 110.068 57.1057 109.926C59.3326 109.887 61.5531 109.725 63.78 109.622C63.5347 109.48 63.283 109.461 63.0377 109.454C55.5501 109.293 48.0626 109.138 40.575 108.983C39.3615 108.957 38.148 108.964 36.9345 108.957C27.517 108.886 18.1059 108.815 8.69484 109.228C7.88799 109.267 7.06823 109.306 6.27429 109.803C6.60994 109.848 6.94559 109.926 7.2877 109.932C9.79861 110.009 12.3031 110.106 14.814 110.132V110.139Z" fill="#87CDEA"/>
<path d="M184.956 109.738C187.17 109.809 189.384 109.874 191.598 109.932C195.154 110.016 198.704 110.119 202.261 110.158C207.405 110.216 212.55 110.229 217.694 110.255C226.602 110.3 235.51 110.281 244.411 109.713C244.611 109.7 244.811 109.616 245.082 109.551C244.921 109.396 244.863 109.293 244.804 109.293C237.788 108.822 230.759 108.886 223.736 108.957C210.652 109.093 197.568 109.138 184.484 109.667C184.639 109.693 184.794 109.745 184.956 109.751V109.738Z" fill="#87CDEA"/>
<path d="M163.352 70.2802C168.089 70.3448 172.834 70.4352 177.571 70.4933C180.683 70.5255 183.794 70.5191 186.905 70.5191C187.092 70.5191 187.286 70.461 187.499 70.4287V68.6859C186.912 68.6859 186.414 68.6795 185.924 68.6859C184.956 68.6988 183.987 68.7375 183.019 68.744C172.621 68.8086 162.215 68.8731 151.817 68.9312C151.41 68.9312 151.004 68.9183 150.597 68.9118C148.099 68.8666 145.601 68.7569 143.109 68.7956C141.186 68.8215 139.275 69.0345 137.352 69.1636C137.339 69.2668 137.319 69.3701 137.306 69.4734C138.449 69.6477 139.585 69.964 140.728 69.9833C148.273 70.1189 155.819 70.1834 163.358 70.2802H163.352Z" fill="#87CDEA"/>
<path d="M135.583 64.1224C135.615 64.2257 135.654 64.3289 135.686 64.4387C136.997 64.5613 138.113 64.6969 139.217 64.7291C143.497 64.8453 147.776 64.9744 152.049 64.9873C162.913 65.0261 173.77 65.0067 184.633 65.0067C184.981 65.0067 185.33 64.9744 185.801 64.9486C185.543 64.5032 185.343 64.1482 185.162 63.8448C183.303 63.6447 137.235 63.8448 135.731 64.0578C135.686 64.0578 135.641 64.0901 135.583 64.1288V64.1224Z" fill="#87CDEA"/>
<path d="M237.756 115.277C232.024 115.225 226.299 115.173 220.567 115.206C212.079 115.257 203.584 115.36 195.096 115.483C192.521 115.522 189.945 115.709 187.376 115.825C206.521 116.296 225.66 116.774 244.83 115.722C244.398 115.644 243.959 115.522 243.526 115.496C241.603 115.399 239.686 115.283 237.762 115.264L237.756 115.277Z" fill="#87CDEA"/>
<path d="M62.4825 124.868C61.5272 124.746 60.5654 124.759 59.6101 124.746C53.9687 124.649 48.3272 124.513 42.6857 124.449C36.3729 124.378 30.0601 124.307 23.7538 124.352C19.4936 124.384 15.2335 124.636 10.9733 124.778C10.2439 124.804 9.50808 124.778 8.77869 124.778C26.6843 126.443 44.5834 125.391 62.489 124.868H62.4825Z" fill="#87CDEA"/>
<path d="M38.1545 119.485C43.5894 119.433 49.0243 119.201 54.4593 119.053C56.2989 119.001 58.132 118.982 59.9716 118.949C42.4211 118.297 24.8705 117.826 7.31995 118.962C10.4053 119.13 13.4907 119.414 16.5761 119.453C23.7667 119.537 30.9638 119.556 38.1609 119.485H38.1545Z" fill="#87CDEA"/>
<path d="M58.7001 112.553C54.5239 112.443 50.3476 112.256 46.1714 112.236C33.5458 112.198 20.9203 111.888 8.30116 112.52C7.84287 112.546 7.3523 112.436 6.93274 112.733C24.1799 113.773 41.4142 113.424 58.6937 112.553H58.7001Z" fill="#87CDEA"/>
<path d="M225.924 112.036C218.901 112.036 211.879 112.282 204.862 112.404C201.519 112.462 198.175 112.482 194.832 112.54C194.309 112.546 193.792 112.643 193.27 112.695C193.27 112.785 193.282 112.869 193.289 112.959C193.734 112.959 194.173 112.959 194.619 112.959C197.168 112.998 199.718 113.056 202.268 113.088C209.71 113.172 217.146 113.308 224.588 113.301C229.771 113.301 234.955 113.108 240.131 112.966C241.7 112.921 243.268 112.772 244.837 112.675C244.837 112.63 244.837 112.585 244.837 112.54C244.514 112.501 244.185 112.443 243.862 112.436C237.885 112.288 231.908 112.036 225.937 112.036H225.924Z" fill="#87CDEA"/>
<path d="M70.5574 63.819C69.2859 63.819 68.0207 63.9094 66.7491 63.9546C66.4328 64.2579 66.1617 64.5097 65.7938 64.8647C66.2457 64.9228 66.5168 64.9873 66.7879 64.9938C72.1647 65.0519 77.5415 65.1745 82.9184 65.1422C87.8692 65.1164 92.82 64.8905 97.7708 64.813C102.205 64.742 106.64 64.7485 111.074 64.7227C111.578 64.7227 112.075 64.7227 112.578 64.7227C112.591 64.6646 112.597 64.6065 112.61 64.5484C112.313 64.458 112.029 64.316 111.726 64.2838C110.693 64.1805 109.661 64.0578 108.628 64.0385C102.638 63.9352 96.6477 63.819 90.6577 63.7867C83.9576 63.748 77.2575 63.7932 70.5639 63.819H70.5574Z" fill="#87CDEA"/>
<path d="M240.764 118.478C234.445 118.407 228.132 118.272 221.813 118.272C216.165 118.272 210.517 118.388 204.869 118.485C200.86 118.556 196.845 118.678 192.837 118.781C192.837 118.833 192.837 118.878 192.837 118.93C193.211 118.93 193.586 118.923 193.96 118.93C199.356 119.053 204.753 119.201 210.149 119.298C215.209 119.395 220.276 119.537 225.337 119.479C231.482 119.408 237.627 119.149 243.778 118.975C244.127 118.962 244.469 118.943 244.817 118.923C244.398 118.646 243.965 118.53 243.526 118.51C242.61 118.472 241.687 118.485 240.764 118.478Z" fill="#87CDEA"/>
<path d="M67.2785 127.786C58.0739 127.631 48.8759 127.457 39.6713 127.321C31.8029 127.211 23.941 127.218 16.0791 127.586C14.162 127.676 12.2385 127.779 10.3214 127.876C30.299 128.528 50.2765 128.264 70.2541 127.786C69.2665 127.786 68.2725 127.799 67.2849 127.786H67.2785Z" fill="#87CDEA"/>
<path d="M80.0847 81.4083C79.9685 81.3696 79.8459 81.3438 79.7297 81.3179C78.187 80.9694 76.6379 80.6596 75.334 79.6268C74.9661 79.3363 74.3464 79.3621 73.9398 79.2653C73.3007 79.8075 72.8102 80.2271 72.339 80.6337C71.8161 79.7753 71.4611 78.9619 70.906 78.3229C70.2993 77.6323 69.402 77.4644 68.3047 77.6581C67.84 78.0195 67.2526 78.4778 66.6652 78.9426C65.4259 77.9744 64.6126 78.0583 63.6444 79.2718C63.4185 79.5558 63.1603 79.8204 62.9537 80.0593C61.3723 79.743 60.2233 80.3885 59.0163 81.2986C59.3197 81.3438 59.4875 81.3825 59.6489 81.3825C62.2437 81.3631 64.8321 81.3438 67.4269 81.2986C68.0917 81.2857 68.7566 81.1049 69.415 81.1308C71.1707 81.2018 72.9199 81.3954 74.6692 81.447C76.5023 81.5051 78.3419 81.4599 80.1622 81.4599C80.1493 81.447 80.1299 81.4019 80.1041 81.3889L80.0847 81.4083Z" fill="#87CDEA"/>
<path d="M79.5619 39.2714C79.4844 39.0778 79.4134 38.8906 79.3231 38.6776C78.3226 38.5743 77.3285 38.471 76.3345 38.3677C73.6816 38.0773 71.0222 37.9159 68.4209 37.2123C66.8201 36.7799 65.1484 36.5991 63.7025 36.3409C62.4115 36.767 61.7854 37.5157 61.4498 38.8841C67.5754 39.0842 73.546 39.7039 79.5619 39.265V39.2714Z" fill="#87CDEA"/>
<path d="M59.4424 84.0289C59.6618 84.7971 60.3073 84.5711 60.7914 84.5711C66.8331 84.597 72.8748 84.5776 78.91 84.3517C79.0456 84.087 79.2198 83.8547 79.4135 83.6352C72.1389 83.5384 60.7656 83.7062 59.4424 84.0289Z" fill="#87CDEA"/>
<path d="M168.903 79.7623C169.568 79.7494 170.232 79.5686 170.891 79.5945C172.646 79.6655 174.396 79.8591 176.145 79.9107C177.978 79.9688 179.818 79.9236 181.638 79.9236C181.625 79.9107 181.606 79.8656 181.58 79.8526C181.464 79.8139 181.341 79.7881 181.225 79.7623C179.682 79.4137 178.133 79.1039 176.829 78.0711C176.461 77.7807 175.842 77.8065 175.435 77.7097C174.796 78.2519 174.305 78.6714 173.834 79.0781C173.311 78.2196 172.956 77.4063 172.401 76.7673C171.794 76.0766 170.897 75.9088 169.8 76.1024C169.335 76.4639 168.748 76.9222 168.16 77.3869C166.921 76.4187 166.108 76.5026 165.14 77.7161C164.914 78.0001 164.655 78.2648 164.449 78.5036C162.867 78.1873 161.719 78.8328 160.511 79.7429C160.815 79.7881 160.983 79.8268 161.144 79.8268C163.739 79.8075 166.327 79.7881 168.922 79.7429L168.903 79.7623Z" fill="#87CDEA"/>
<path d="M162.286 83.022C170.271 83.0543 178.256 83.0155 186.227 82.5121C186.408 82.4992 186.582 82.4411 186.918 82.3765C185.53 81.873 162.842 82.0215 160.937 82.4798C161.157 83.2479 161.802 83.022 162.286 83.022Z" fill="#87CDEA"/>
<path d="M150.332 123.009C155.354 122.951 160.369 122.887 165.391 122.835C168.909 122.796 172.421 122.777 175.938 122.738C176.939 122.725 177.946 122.693 178.946 122.629C181.909 122.435 184.865 122.157 187.835 122.048C189.797 121.977 191.759 122.164 193.728 122.19C200.505 122.293 207.283 122.454 214.06 122.448C221.548 122.448 229.035 122.319 236.523 122.196C238.853 122.157 241.183 121.983 243.514 121.873C243.01 121.68 242.487 121.576 241.958 121.564C239.699 121.499 237.44 121.46 235.18 121.415C229.533 121.312 223.885 121.118 218.243 121.138C211.84 121.163 205.443 121.376 199.04 121.518C197.827 121.544 196.613 121.576 195.406 121.641C190.262 121.931 185.124 121.738 179.992 121.318C176.784 121.054 173.589 120.718 170.381 120.428C169.09 120.311 167.799 120.24 166.508 120.15C171.652 119.621 176.849 119.788 182.238 118.891C178.695 118.652 175.441 118.433 172.195 118.207C171.517 118.162 170.813 118.181 170.213 117.549C171.02 116.942 172.046 117.439 172.918 116.729C169.864 116.529 166.992 116.335 163.939 116.135C164.998 115.354 185.808 113.024 167.922 113.024C164.062 113.076 158.807 113.114 152.721 113.147C151.965 113.624 151.204 114.102 150.41 114.547C149.687 114.954 148.945 115.322 148.202 115.696C147.821 115.883 147.447 116.071 147.073 116.264C144.852 117.407 142.457 117.988 140.192 118.485C137.268 119.124 134.073 119.453 130.697 119.453C127.547 119.453 124.216 119.182 120.524 118.627C113.133 117.51 105.865 115.386 98.836 113.334C81.5178 113.411 67.9628 113.553 67.4464 113.876C70.0993 114.186 72.6231 114.483 75.1469 114.78C74.9081 114.941 74.6693 114.98 74.4369 114.999C72.0164 115.154 69.6023 115.322 67.1817 115.444C64.7612 115.567 62.3406 115.754 59.9201 115.716C55.0661 115.638 50.2186 115.322 45.371 115.29C33.4878 115.212 21.6045 115.018 9.72122 115.49C8.77237 115.528 7.82997 115.664 6.88757 115.748C7.00376 115.922 7.11349 115.98 7.22322 115.98C11.9481 116.129 16.673 116.374 21.3979 116.393C29.1759 116.432 36.9604 116.355 44.7449 116.284C48.8889 116.245 53.0264 116.142 57.1704 116.025C61.5661 115.896 65.9553 115.987 70.3188 116.561C73.9722 117.045 77.632 117.29 81.3242 117.239C85.2551 117.187 89.1926 117.265 93.1235 117.284C94.2079 117.284 95.2988 117.284 96.3832 117.284C95.8474 117.452 95.3117 117.445 94.7824 117.452C88.4696 117.555 82.1504 117.665 75.8376 117.781C75.4245 117.788 75.0049 117.858 74.5918 117.904C72.7716 118.104 70.9578 118.33 69.1375 118.51C67.6271 118.659 66.1167 118.749 64.4255 118.878C67.9821 119.117 71.358 119.356 74.7403 119.556C77.6191 119.724 80.5044 119.943 83.3833 119.969C91.4195 120.04 99.4492 120.014 107.485 120.027C109.977 120.027 112.469 120.027 114.96 120.027C113.714 120.253 112.462 120.369 111.21 120.395C109.08 120.434 106.95 120.395 104.82 120.421C96.8738 120.511 88.9215 120.653 80.9756 120.699C77.4965 120.718 74.0496 120.925 70.5963 121.344C68.2791 121.628 65.936 121.815 63.6058 121.783C56.7443 121.699 49.8894 121.415 43.0279 121.331C32.7777 121.209 22.5275 121.163 12.2773 121.531C10.8573 121.583 9.44367 121.718 8.03007 121.809C9.14029 121.99 10.257 122.035 11.3672 122.061C16.5117 122.196 21.6497 122.403 26.7941 122.435C32.1064 122.467 37.4187 122.325 42.731 122.267C44.9063 122.241 47.0815 122.254 49.2568 122.222C55.9052 122.144 62.5601 121.97 69.2085 121.996C73.8883 122.009 78.5744 122.286 83.2542 122.435C88.6052 122.603 93.9562 122.855 99.3072 122.913C109.435 123.016 119.556 123.009 129.683 123.055C130.213 123.055 130.748 123.055 131.278 123.055C130.813 123.261 130.355 123.261 129.896 123.261C127.599 123.248 125.294 123.203 122.996 123.229C118.058 123.274 113.12 123.364 108.189 123.416C102.38 123.481 96.5704 123.513 90.7675 123.945C86.1395 124.294 81.492 124.333 76.851 124.513C76.1797 124.539 75.5149 124.559 74.8436 124.61C74.6499 124.623 74.4627 124.752 74.0819 124.894C74.424 124.952 74.5466 124.991 74.6693 124.991C78.6003 125.088 82.5312 125.172 86.4622 125.269C87.5079 125.294 88.5535 125.307 89.5992 125.353C93.7754 125.546 97.9517 125.85 102.134 125.921C108.66 126.03 115.192 126.004 121.718 126.011C135.777 126.024 149.842 126.05 163.9 126.024C169.045 126.017 174.196 125.927 179.34 125.785C182.225 125.708 185.098 125.385 187.983 125.294C191.23 125.191 194.483 125.204 197.73 125.211C201.202 125.211 204.675 125.217 208.141 125.307C211.401 125.385 214.661 125.695 217.914 125.688C222.51 125.675 227.112 125.469 231.708 125.333C235.18 125.23 238.647 125.107 242.119 124.997C242.584 124.985 243.049 124.997 243.52 124.997C241.726 124.752 239.931 124.623 238.137 124.571C234.748 124.468 231.366 124.352 227.977 124.346C223.207 124.333 218.443 124.391 213.673 124.462C208.651 124.539 203.636 124.617 198.621 124.791C194.56 124.933 190.52 124.649 186.473 124.475C186.137 124.462 185.808 124.417 185.472 124.378C183.271 124.12 181.083 123.719 178.875 123.616C174.447 123.41 170.013 123.313 165.579 123.268C160.395 123.216 155.206 123.274 150.022 123.287C149.513 123.287 149.003 123.287 148.486 123.287C148.486 123.197 148.486 123.106 148.486 123.016C149.112 123.016 149.732 123.016 150.358 123.016L150.332 123.009ZM158.633 120.305C158.633 120.305 158.633 120.363 158.633 120.389H153.45C153.45 120.389 153.45 120.331 153.45 120.305H158.633Z" fill="#1C3664"/>
<path d="M245.276 20.5332C247.077 22.1921 248.884 23.8574 250.685 25.5163C249.917 23.27 249.058 21.0883 247.574 19.281C245.657 16.9508 243.255 15.2467 240.28 14.4205C241.984 14.1882 243.539 14.8078 245.159 15.1047C244.701 14.6981 244.243 14.3302 243.727 14.072C240.376 12.4131 236.807 11.9354 233.128 12.3485C229.842 12.7165 226.654 13.4781 223.646 14.9369C222.361 15.563 221.115 16.2085 220.005 17.1057C219.805 17.2671 219.573 17.3768 219.36 17.5124C219.599 16.9573 219.915 16.5183 220.302 16.1504C221.257 15.2209 222.251 14.3237 223.226 13.4136L220.108 14.7626C220.083 14.711 220.057 14.6594 220.037 14.6013C220.973 14.1042 221.909 13.5943 222.858 13.1296C222.994 13.065 223.226 13.1941 223.413 13.2328C223.775 12.9617 224.098 12.6326 224.498 12.4389C225.182 12.1162 225.905 11.8838 226.776 11.5546C225.227 11.064 223.807 11.6256 222.213 11.4513C224.304 10.1604 226.499 10.07 228.616 9.62462C227.034 9.11469 225.388 9.26961 223.562 9.15342C225.576 8.46921 227.454 8.52085 229.52 8.48212C228.313 7.67527 226.976 7.94638 225.789 7.42354C226.015 7.24926 226.105 7.12016 226.208 7.11371C227.725 7.02334 229.248 6.95234 231.069 6.86843C229.055 5.90021 227.131 6.06158 225.253 5.97767C225.253 5.89375 225.259 5.8163 225.266 5.73238C227.377 5.48065 229.487 5.22891 231.598 4.97717C230.707 4.26715 229.7 4.66089 228.661 4.38333C230.798 3.67976 232.876 3.23438 235.258 3.18274C233.98 2.33071 232.695 2.31135 231.488 1.9757C233.709 1.47868 235.949 1.80142 238.208 1.58841C237.82 1.27858 237.42 1.00102 236.975 0.852565C234.935 0.174812 232.85 -0.193111 230.688 0.103809C229.449 0.271634 228.203 0.407184 226.951 0.491097C225.234 0.607283 223.672 1.14303 222.316 2.1758C221.425 2.85355 220.58 3.62167 219.831 4.46079C219.011 5.37092 218.327 6.39723 217.41 7.61073C217.991 6.10031 218.475 4.85453 218.953 3.6023C216.991 5.80984 216.565 8.62413 215.674 11.3029V5.50647C214.674 7.99801 214.325 10.5993 214.067 13.2264C213.944 12.0903 214.067 10.9156 213.402 9.62462C213.286 11.7289 213.35 13.5556 214.125 15.3371C212.466 11.9161 209.949 9.43098 206.56 7.79146C203.758 6.44241 197.594 7.18471 195.993 8.52731C197.775 8.41758 199.498 7.93347 201.228 8.64995C200.241 9.06951 199.13 9.10178 198.13 9.93445C202.242 9.57298 203.332 9.64398 204.462 10.3153C201.79 10.6961 201.015 10.9543 200.37 11.6966C202.894 11.1544 205.676 11.3803 207.005 12.284C205.708 12.2194 204.475 12.1614 203.139 13.0069C205.501 12.9037 207.412 13.4717 209.129 14.6916L206.618 14.214C206.599 14.2914 206.573 14.3753 206.553 14.4528C207.547 14.8401 208.554 15.2016 209.536 15.6211C210.607 16.0794 211.311 16.7894 211.833 17.9578C207.941 15.4662 203.836 14.5754 199.473 14.8272C199.46 14.9111 199.447 14.995 199.434 15.0789H201.628C201.215 15.2597 200.802 15.2661 200.389 15.3048C198.433 15.4727 196.49 15.7308 194.67 16.5248C193.695 16.9508 193.205 17.3639 192.766 18.0417C193.25 17.8028 193.715 17.5769 194.186 17.351C192.288 18.9582 190.481 20.5848 189.416 22.8828C188.377 25.129 187.596 27.4334 187.492 29.9572C187.899 29.4408 188.19 28.8663 188.519 28.3177C188.841 27.7819 189.184 27.2526 189.545 26.7427C189.932 26.1941 190.339 25.6648 190.752 25.1355C191.133 24.6449 191.533 24.1737 191.927 23.6896C191.591 25.0451 191.301 26.3232 191.281 27.6528C191.701 26.8718 192.024 26.065 192.385 25.271C192.947 24.0253 193.231 23.6573 193.863 23.3023C193.695 24.3286 193.528 25.342 193.36 26.349C194.199 24.3093 195.522 22.6181 196.852 20.914C196.193 22.5406 195.303 24.0769 195.206 26.0004C195.942 24.987 196.574 24.0575 197.265 23.1668C197.923 22.3147 198.524 21.3788 199.563 20.9011C199.285 21.6176 198.943 22.2695 198.601 22.9215C198.259 23.5799 197.833 24.2124 197.814 25.1613C199.434 23.2894 200.583 21.1593 203.184 20.5009C202.287 21.8242 200.686 22.6246 200.757 24.632C201.945 22.915 203.487 21.9274 205.03 20.9205C204.462 21.8435 203.384 22.347 202.881 23.6573C204.772 22.7924 206.179 21.495 208.238 21.069C207.141 21.8371 206.231 22.4761 205.327 23.1087C206.831 22.9473 208.199 22.347 209.71 22.4503C207.393 23.3927 204.978 24.1092 202.816 25.7229C203.255 25.8326 203.481 25.8907 203.804 25.9746C202.952 26.3619 202.164 26.6459 201.448 27.0655C200.731 27.485 200.06 28.0014 199.427 28.5371C198.821 29.0471 198.149 29.5118 197.607 30.4026C198.782 29.841 199.731 29.3827 200.686 28.9309C200.053 29.6796 199.279 30.196 198.646 30.8415C197.981 31.5257 197.388 32.3003 196.871 33.1071C196.413 33.8236 195.632 34.3787 195.671 35.4244C196.368 34.7725 197.065 34.1141 197.768 33.4622C197.827 33.5073 197.891 33.5525 197.949 33.6042C197.426 34.5336 196.91 35.4567 196.561 36.0828V40.9432H197.046C197.381 43.5574 198.207 45.8941 199.963 47.8757C199.111 45.2486 199.414 42.5957 199.582 39.9428C199.86 40.5689 199.989 41.2143 200.189 41.8405C200.402 42.4989 200.68 43.1314 200.931 43.7769C201.022 43.7575 201.112 43.7382 201.196 43.7188V36.7347C201.254 36.7347 201.319 36.7283 201.377 36.7218C201.745 38.3807 202.119 40.0396 202.487 41.692C202.564 41.6791 202.642 41.6597 202.719 41.6468C202.648 40.8852 202.571 40.1235 202.474 39.1036C203.345 40.4204 204.062 41.5113 204.785 42.6021C204.165 39.6265 203.642 36.6895 203.759 33.6816C204.372 36.8122 204.836 39.2844 205.934 40.6205C205.843 39.8266 205.753 39.1295 205.688 38.4323C205.624 37.7675 205.559 37.1027 205.546 36.4314C205.534 35.7213 205.63 35.0048 205.592 34.3013C205.508 32.9006 205.482 32.9006 205.889 32.3842C206.024 34.3916 206.198 36.3603 207.025 38.2581C207.186 35.5212 207.347 32.7844 207.509 30.054C207.767 30.8092 207.877 31.5774 207.941 32.3455C208.006 33.1007 207.877 33.9075 208.567 34.5724C209.477 29.9249 210.523 27.3366 212.027 26.1811C211.808 26.6846 211.646 27.0525 211.485 27.4205C210.452 29.7184 209.658 32.0744 209.71 34.6434C209.729 35.7213 209.755 36.7993 209.69 37.8708C209.594 39.4457 209.768 40.9949 210.026 42.5376C210.065 42.77 210.187 42.9894 210.271 43.2089L210.439 43.1766L210.297 41.6404C210.542 41.9567 210.62 42.3052 210.704 42.6538C211.136 44.3966 211.556 46.1394 212.014 47.8692C212.092 48.1726 212.169 48.5986 212.711 48.6503C212.756 48.2178 212.802 47.837 212.866 47.2044C214.564 51.8906 217.669 54.9437 221.78 57.035C221.858 56.9705 221.935 56.9059 222.013 56.8478C220.786 55.118 219.553 53.3881 218.327 51.6582C218.953 51.7098 219.405 51.9745 219.889 52.1746C220.373 52.3747 220.799 52.833 221.529 52.62C219.954 51.0063 218.366 49.5604 217.094 47.8241C218.598 48.4373 219.921 49.4313 221.612 49.5217C221.07 48.9278 220.463 48.4308 219.87 47.9209C219.302 47.4303 218.714 46.9527 218.191 46.4169C217.643 45.8489 217.133 45.2292 216.649 44.6031C216.203 44.0222 215.59 43.551 215.293 42.6215C218.992 46.3265 219.637 46.7913 221.141 46.7848C219.747 45.3712 218.553 43.906 217.849 42.1116C218.843 42.3827 219.276 43.6284 220.567 43.3896C220.463 43.1831 220.425 43.0217 220.328 42.912C219.715 42.2278 219.114 41.5306 218.45 40.8981C218.004 40.4785 217.481 40.0977 216.933 39.8201C216.132 39.4135 215.7 38.7422 215.338 37.9611C216.668 39.3683 218.308 40.0912 220.218 40.2913C218.798 38.7873 217.72 37.0897 216.842 35.2566C217.681 35.9731 218.521 36.696 219.553 37.5803C219.373 35.5922 217.811 34.4885 217.507 32.6295C218.12 33.3395 218.585 33.8817 219.056 34.4239C219.114 34.3916 219.166 34.3658 219.224 34.3335C219.082 33.5073 218.94 32.6811 218.805 31.8485C221.541 36.4184 223.245 41.3822 224.73 46.4234C225.518 49.1021 226.118 51.8389 226.821 54.5435C226.918 54.9243 227.118 55.2858 227.286 55.7053C228.635 54.9695 229.868 54.3047 231.153 53.6011C230.565 51.6582 230.055 49.8121 229.449 47.9983C228.842 46.1781 228.196 44.3643 227.473 42.5892C226.731 40.7754 225.905 38.9874 225.04 37.2253C224.194 35.5019 223.278 33.8043 222.348 32.126C221.438 30.48 220.47 28.8728 219.528 27.2462C219.592 27.2075 219.663 27.1687 219.728 27.13C220.354 28.0595 220.973 28.989 221.6 29.912C221.651 29.8927 221.703 29.8797 221.748 29.8604C221.625 28.8857 221.509 27.9046 221.387 26.9299C221.858 27.485 222.09 28.0918 222.329 28.6921C222.574 29.3117 222.781 29.9572 223.084 30.551C223.355 31.0932 223.323 31.8097 224.072 32.339C223.904 30.8609 223.749 29.5764 223.601 28.2919C224.117 29.0019 224.465 29.7571 224.749 30.5317C225.014 31.2804 225.195 32.055 225.434 32.8102C225.666 33.5396 225.621 34.3852 226.137 34.9984C226.228 34.9726 226.324 34.9468 226.415 34.9274C226.228 33.204 226.034 31.4805 225.847 29.7571C225.924 29.7377 226.002 29.7248 226.079 29.7055L227.925 36.6444C227.925 36.6444 227.99 36.6315 228.016 36.625C227.951 35.9666 227.886 35.3147 227.822 34.6563C228.242 35.4825 228.487 36.3539 228.81 37.193C229.126 38.0063 228.835 38.9616 229.468 39.9686C229.713 37.1543 229.01 34.6756 228.913 32.1518C229.261 33.0168 229.513 33.9011 229.771 34.7725C230.029 35.6503 230.333 36.5217 230.559 37.4125C230.798 38.342 230.991 39.2844 231.159 40.2268C231.314 41.0917 231.411 41.9631 231.533 42.8345C232.114 40.1493 232.056 37.4835 231.882 34.8047C232.799 36.3991 233.018 38.1741 233.27 39.9169C233.522 41.6791 233.554 43.4671 233.683 45.2486C233.928 44.5644 233.973 43.8479 234.161 43.1766C234.832 40.7044 234.716 38.2064 234.445 35.702C234.432 35.5858 234.49 35.4567 234.522 35.334C235.645 39.3296 236.116 43.3702 236.207 47.469C237.31 44.5773 237.104 41.5435 237.194 38.5292C238.053 42.1438 238.317 45.8037 238.175 49.5088C239.299 47.1011 239.783 44.5838 239.737 41.9502C240.538 45.1647 240.131 48.3598 239.705 51.5743C241.48 49.5798 241.493 47.0818 241.751 44.6418C241.887 45.3648 241.951 46.0683 241.958 46.7719C241.971 49.0698 241.784 51.3548 241.306 53.6075C241.209 54.0529 241.196 54.5177 241.138 54.976C241.454 54.8985 241.571 54.7823 241.629 54.6403C242.481 52.4715 243.423 50.335 244.146 48.121C244.824 46.0554 244.882 43.9318 243.901 41.8856C243.694 41.4532 243.552 40.9884 243.268 40.259C244.262 40.9562 245.005 41.4725 245.747 41.9889C245.805 41.9308 245.857 41.8663 245.915 41.8082C245.269 40.84 244.669 39.8395 243.959 38.9164C243.255 37.9999 242.442 37.1672 241.5 36.1022C243.217 36.5992 244.165 37.8643 245.624 38.271C245.431 37.7288 245.185 37.264 244.837 36.8767C243.449 35.3405 241.79 34.1464 239.963 33.191C239.731 33.0684 239.524 32.9135 239.299 32.7715C241.106 32.8941 242.59 33.9914 244.359 34.2174C242.41 31.8291 239.654 30.6995 236.994 29.3634C238.343 29.6086 239.686 29.8475 241.035 30.0928C240.867 29.6732 240.648 29.4085 240.364 29.2859C238.046 28.2402 235.787 27.0461 233.186 26.775C232.521 26.704 231.798 26.5684 231.03 25.91C232.811 26.1037 234.322 26.2715 236.11 26.4716C235.387 26.0262 234.929 25.6196 234.393 25.4324C232.74 24.845 231.075 24.2964 229.39 23.8252C227.983 23.4314 226.537 23.1797 225.117 22.844C224.93 22.7988 224.775 22.6181 224.356 22.3276C226.596 22.5342 228.519 22.7085 230.443 22.8828C230.468 22.7859 230.494 22.6891 230.52 22.5987C229.507 22.134 228.493 21.6757 227.473 21.211C228.603 21.3788 229.681 21.6757 230.714 22.0953C231.727 22.5084 232.689 23.0506 233.857 23.6186C233.683 23.2765 233.631 23.0764 233.509 22.9344C232.747 22.0824 231.972 21.2432 231.017 20.204C233.418 21.2626 235.406 22.5665 237.491 23.7542C236.962 22.6762 236.4 21.6628 235.703 20.7462C234.987 19.8038 234.135 18.9712 233.341 18.0868C233.676 18.0546 233.851 18.1966 234.019 18.3386C234.683 18.9066 235.284 19.5908 236.026 20.0297C238.059 21.2497 239.796 22.7795 241.267 24.632C241.396 24.7934 241.577 24.9225 241.732 25.0645C241.287 23.1151 240.312 21.4433 239.557 19.636C241.112 21.4369 242.674 23.2442 244.372 25.2065C243.92 22.915 242.661 21.2561 241.674 19.4488C242.216 19.8942 242.668 20.4041 243.146 20.8818C243.649 21.3852 244.191 21.8371 244.688 22.3406C245.185 22.844 245.644 23.3927 246.128 23.9155C246.573 24.3996 246.818 25.0967 247.619 25.2388C246.805 23.7219 245.999 22.1985 245.185 20.6817C245.243 20.63 245.301 20.5784 245.36 20.5268L245.276 20.5332ZM215.306 22.6246C214.932 22.134 214.693 21.8242 214.39 21.4304C214.861 21.0948 215.254 20.8172 215.7 20.5009C215.977 20.7398 216.216 20.9463 216.539 21.2174C216.152 21.6628 215.81 22.0501 215.306 22.6181V22.6246ZM233.534 14.2721C233.012 14.3302 232.469 14.285 231.94 14.285C231.927 14.214 231.921 14.143 231.908 14.072C232.953 13.9558 233.999 13.8461 235.038 13.7299C235.051 13.7944 235.064 13.859 235.071 13.9235C234.554 14.0461 234.051 14.214 233.528 14.2721H233.534Z" fill="#1C3664"/>
<path d="M5.12532 42.2019C5.63525 41.8405 6.14518 41.4726 6.65511 41.1046C6.66802 41.124 6.68738 41.1369 6.70029 41.1563C7.06821 40.7561 7.44259 40.3559 7.81052 39.9492C7.83634 40.4204 7.73306 40.8077 7.53296 41.1434C6.20327 43.338 6.37755 45.7004 6.81002 48.0693C6.91975 48.6567 7.29413 49.1925 7.53942 49.754C8.22362 51.3226 8.90138 52.8911 9.59204 54.4531C9.6695 54.6339 9.85668 54.7694 10.173 55.1309C9.45648 50.8836 8.97238 46.9139 9.69531 42.8991C9.78568 43.8931 9.75986 44.9 9.88896 45.8876C10.0181 46.8752 10.2892 47.837 10.528 48.8052C10.7539 49.7218 10.7991 50.7029 11.5091 51.4517C10.9863 47.9015 11.0637 44.3837 11.664 40.6334C11.806 42.2665 11.9287 43.6672 12.0513 45.0679C12.2191 47.0237 12.671 48.5147 13.4133 49.2054C12.6839 45.339 13.4649 41.7243 13.9232 38.0838C14.0652 39.5426 14.1556 40.9949 14.2653 42.4472C14.375 43.9254 14.517 45.3971 14.9818 46.83C15.3433 42.9701 15.4659 39.0843 16.5116 35.3147C16.5761 38.5485 16.447 41.8017 17.5185 45.1582C17.5379 41.3628 17.9445 37.845 18.9321 34.4046C19.0096 35.7084 18.9708 36.9994 19.0225 38.2839C19.0741 39.549 19.0031 40.84 19.5711 42.0793C19.9391 39.5103 20.307 36.9477 20.7007 34.1786C20.8815 35.9021 21.0364 37.4125 21.1913 38.9229C21.585 37.9999 21.7658 37.051 22.0304 36.128C22.3015 35.1856 22.663 34.269 22.9793 33.3395C23.0244 33.3395 23.0632 33.3395 23.1084 33.346V36.3668C23.7151 35.1017 24.2121 33.8301 24.6575 32.5391C25.09 31.2934 25.4708 30.0282 25.8775 28.776C25.9743 29.5312 25.9226 30.2348 25.8516 30.9383C25.7871 31.5838 25.6967 32.2358 25.6193 32.8812C25.7225 32.9006 25.8194 32.92 25.9226 32.9393C26.6004 31.0481 27.2717 29.1504 28.0011 27.1171C28.3045 28.3112 27.3556 29.2924 27.8978 30.4542C29.0468 29.0987 29.5631 27.4463 30.9574 26.4458C30.9897 26.6265 30.9574 26.7685 30.8928 26.8976C30.0473 28.6663 29.305 30.493 28.3238 32.1906C25.871 36.4443 23.9152 40.911 22.2886 45.5262C21.3656 48.1533 20.6168 50.8385 19.7583 53.5946C21.159 54.0658 22.1982 55.0663 23.6441 55.2277C23.7345 54.9953 23.8119 54.8469 23.8442 54.692C24.38 51.9035 25.0513 49.1473 25.8581 46.4234C26.9812 42.6538 28.3109 38.9616 29.8794 35.3599C30.4281 34.0947 31.2027 32.9522 32.3581 31.9259C32.4097 34.2819 30.9187 36.0893 30.6024 38.3291C30.8993 38.1354 31.0865 38.0128 31.3188 37.8643C31.2672 38.1742 31.2285 38.4517 31.1833 38.7293C31.2414 38.768 31.2995 38.8132 31.3576 38.8519C31.6868 38.5292 32.0095 38.2064 32.4355 37.7804C32.2225 39.3102 30.9703 40.0073 30.4216 41.2015C31.1317 40.7044 31.8481 40.2074 32.7454 39.5748C33.223 38.981 33.8491 38.2 34.4752 37.4189C33.2166 39.904 31.2866 41.8792 29.7245 44.1577C30.4087 43.6801 31.0994 43.2024 31.7836 42.7248C31.4286 43.5187 30.9897 44.2223 30.4668 44.842C29.9311 45.4681 29.3114 46.0232 28.724 46.6106C31.4544 45.7456 33.2359 43.7317 35.0884 41.7759C33.3457 44.6225 30.9057 46.8623 28.5046 49.4184C30.3635 49.0569 31.7255 47.9983 33.2876 47.4691C30.4539 50.0381 28.7628 52.0003 28.6466 53.0654C29.7052 52.4199 30.7056 51.8067 31.7061 51.1935C31.7771 51.2709 31.8481 51.3419 31.9192 51.4194C30.6669 53.2267 29.4147 55.0405 28.156 56.8479C29.7116 56.5251 30.8412 55.6085 31.8869 54.621C32.9132 53.6527 33.8943 52.6071 34.7334 51.471C35.5855 50.3156 36.2374 49.0117 36.9797 47.7724C37.0313 47.7918 37.0765 47.8112 37.1282 47.837C37.0636 48.3404 36.9926 48.8439 36.9022 49.5669C37.1733 49.2764 37.3153 49.1731 37.3863 49.0376C38.3223 47.1205 39.1485 45.1647 39.439 43.0217C39.6778 41.2466 39.9618 39.4716 40.22 37.6965C40.2329 37.5997 40.2652 37.5029 40.3039 37.3609C40.3814 37.7352 40.4459 38.0644 40.5169 38.3936C40.6008 38.3807 40.6847 38.3613 40.7687 38.3484C40.5686 36.9929 40.3878 35.6374 40.1684 34.2884C39.9489 32.9329 39.794 31.5515 39.4196 30.2348C39.0581 28.9567 38.4514 27.7561 37.9544 26.5168C38.8129 27.627 39.6262 28.7566 40.1877 30.0024C40.7299 31.203 41.001 32.5198 41.427 33.8882C41.5432 32.41 41.653 31.0223 41.7627 29.6345C42.1113 31.0674 42.3114 32.5133 42.4211 33.9656C42.4985 34.9661 42.4404 35.9731 42.4727 36.98C42.4792 37.2253 42.6212 37.4706 42.7567 37.8901C43.2344 36.2506 43.144 34.7144 43.8153 33.1136C44.5189 35.6891 43.6281 38.129 44.3188 40.4914C44.7577 38.3097 45.1966 36.128 45.6291 33.9721C45.9067 35.8504 45.4032 37.7869 45.7776 39.9363C46.0551 39.0778 46.2488 38.4646 46.4424 37.8514C46.5134 39.7879 45.6678 41.3951 44.8029 43.0088C45.6485 42.4472 46.2423 41.6727 46.6877 40.8077C47.1395 39.9169 47.4816 38.9681 47.927 37.916C48.3401 38.839 48.0174 39.5684 47.9206 40.2913C47.8173 41.0143 47.6366 41.7307 47.4558 42.6151C48.4692 41.621 48.4628 40.4011 48.934 39.123C48.9921 39.8524 49.0308 40.3494 49.0953 41.1498C49.3148 40.3882 49.4503 39.9234 49.5859 39.4587C49.6569 39.4716 49.7279 39.4845 49.7989 39.4909C49.6569 41.2208 49.5084 42.9572 49.3664 44.687C49.4116 44.7 49.4503 44.7193 49.4955 44.7322C49.786 43.7898 50.0829 42.8474 50.3605 41.9567C51.2706 43.8996 50.354 45.9199 50.3476 47.9532C51.0059 46.5847 51.7031 45.2292 52.0839 43.7963C52.6842 41.5113 53.7621 39.2457 52.7423 36.5669C53.0908 36.9348 53.2393 37.0962 53.4588 37.3286C53.3749 35.8633 52.6261 34.7467 52.1549 33.4944C52.7875 34.1916 53.42 34.8887 54.0526 35.5858C54.1172 35.5341 54.1817 35.4825 54.2463 35.4309C53.5491 34.3594 52.9359 33.2233 52.1355 32.2358C51.3545 31.2611 50.3863 30.4413 49.502 29.5506C49.5601 29.4796 49.6182 29.4086 49.6763 29.3376C50.5735 29.9766 51.4772 30.6156 52.5938 31.416C51.7999 30.0218 50.8769 29.1245 49.8699 28.3112C48.8307 27.4721 47.714 26.7105 46.7393 25.8068C45.7518 24.8967 44.5383 24.4513 43.3635 23.9284C42.1952 23.4121 40.9817 22.986 39.794 22.5278C39.8198 22.4568 39.8392 22.3857 39.865 22.3083C41.1689 22.56 42.4663 22.8053 43.796 23.0635V22.5148C44.4285 22.9796 44.9901 23.3862 45.6033 23.8316C45.8421 22.8505 44.8223 22.3857 44.7513 21.3207C46.0616 22.3341 47.1847 23.1991 48.3079 24.064C48.3789 24.0059 48.4563 23.9414 48.5273 23.8833C47.9399 22.8311 47.3525 21.7855 46.6425 20.5074C47.8496 21.4821 48.8694 22.2308 49.7989 23.0764C50.4315 23.6509 50.9479 24.348 51.5159 24.9935C51.5804 24.9612 51.6385 24.9289 51.7031 24.8967C51.2448 23.8381 50.7929 22.7795 50.3347 21.7209C50.3863 21.6886 50.4315 21.6564 50.4831 21.6241C51.6192 22.9602 52.7552 24.2899 53.8912 25.6261C53.6782 24.2641 52.9295 23.0764 52.7423 21.7403C52.8327 21.7015 52.9166 21.6693 53.0069 21.6305C54.0397 23.2894 55.066 24.9483 56.0988 26.6072C56.1569 26.5814 56.2214 26.5555 56.2795 26.5297C55.8019 25.1355 55.3178 23.7413 54.8401 22.347C54.9046 22.3083 54.9756 22.2696 55.0402 22.2373C56.2472 24.0059 57.4607 25.781 58.6678 27.5496C58.7388 27.5302 58.8033 27.5044 58.8743 27.485C58.6871 26.3232 58.5 25.1678 58.2999 23.8962C60.0749 25.71 60.9399 27.9756 62.2179 30.2025C62.4826 28.3177 61.85 26.8073 61.3013 25.2969C60.3202 22.5988 58.9002 20.1782 56.4602 18.4483C56.6474 18.3386 56.783 18.2611 56.9185 18.1837C55.705 17.0412 54.3302 16.2343 52.6455 15.9955C52.0258 15.9116 51.4255 15.7244 50.8123 15.6082C47.1976 14.924 43.6733 15.0208 40.362 16.8863C39.7682 17.2219 39.1485 17.5059 38.5418 17.8158C39.5293 15.8277 41.4529 15.208 43.215 14.3173C42.6535 14.3883 42.0854 14.4528 41.3754 14.5367C42.8342 13.0715 44.7319 13.2845 46.6619 12.639C45.1579 12.1872 43.8734 12.1936 42.6341 11.9161C44.7706 11.5353 46.9007 11.148 49.1082 11.3868C48.1723 10.5735 46.9975 10.4638 45.9131 10.0313C47.6236 9.94092 49.3342 9.85055 51.0576 9.76018C50.5928 8.93397 49.6698 8.94688 48.7597 8.58541C50.5089 8.00448 52.1614 8.33368 53.8267 8.32722C53.4975 8.09485 53.1618 7.87539 52.7875 7.77211C51.9871 7.5591 51.1738 7.40419 50.3605 7.23636C47.7011 6.69416 45.1644 7.22991 42.8794 8.51441C40.1361 10.0571 38.0125 12.3098 36.6118 15.1758C36.4439 15.5114 36.2503 15.8341 36.0696 16.1633C36.6247 12.9811 36.6634 9.86346 35.7597 6.53279C35.5467 8.52732 35.792 10.3153 35.3531 12.0581C35.011 9.53427 34.1073 7.25573 32.7454 5.13856C33.2295 7.07499 33.7394 8.99852 33.7975 10.993C33.0423 9.06952 32.1322 7.23636 30.9574 5.55812C29.305 3.20858 27.2394 1.37542 24.3606 0.678299C23.7538 0.529839 23.1213 0.523384 22.5145 0.387834C19.3581 -0.335103 16.2986 0.2071 13.2584 1.05268C13.0195 1.11722 12.8259 1.34314 12.4321 1.6207C14.9882 1.75625 17.2991 1.87243 19.6163 1.99508C18.3705 2.35654 17.0473 2.292 15.9758 3.20858C18.093 3.09239 20.094 3.60877 22.095 4.15097C21.727 4.2478 21.3656 4.26716 21.0041 4.31234C20.591 4.37044 20.1779 4.43499 19.7712 4.53181C19.4614 4.60281 19.1645 4.72545 18.8611 4.82227C20.9396 5.09337 22.9664 5.24829 24.8382 6.13905C23.2245 6.28751 21.5592 5.9454 19.9132 6.93299C21.4559 6.95235 22.8373 6.97172 24.1799 7.60429C23.1923 7.7592 22.2111 7.91412 21.2236 8.06903C22.0369 8.81779 22.9922 8.44341 23.8507 8.68869C24.6575 8.92106 25.5225 8.95979 26.3616 9.08243C26.3551 9.15989 26.3487 9.23089 26.3422 9.30835H21.2429C23.8119 9.97319 26.3099 10.7671 28.6595 12C26.723 11.7999 24.8382 11.148 22.8566 11.4384C25.1545 12.6197 27.8526 12.9618 29.944 15.0789C28.5756 14.5109 27.4395 14.0462 26.0453 13.4652C27.2717 15.2532 29.305 15.7438 30.2732 17.4995C30.086 17.4414 29.9956 17.4349 29.9375 17.3962C27.0974 15.1628 23.7861 13.8783 20.3844 12.8649C17.7573 12.0839 15.0011 12.1678 12.2837 12.3679C9.8115 12.5487 7.64915 13.6589 5.5707 14.9369C5.48679 14.9886 5.45452 15.1112 5.2996 15.35C7.1844 14.7304 8.90137 14.0397 10.7991 14.2269C10.3731 14.5045 9.92123 14.6852 9.46294 14.8401C6.26782 15.9503 3.9441 18.0546 2.41431 21.0561C1.84629 22.1727 1.22663 23.2636 0.639247 24.3674C0.452058 24.7159 0.310051 25.0838 0.148682 25.4453C0.206775 25.484 0.258414 25.5228 0.316507 25.5551C2.01412 24.0059 3.70527 22.4503 5.40288 20.9011C4.84777 22.3793 4.00219 23.7154 3.60845 25.2388C4.69285 24.1608 5.68043 23.0377 6.66802 21.9016C7.63623 20.7914 9.30157 19.3455 10.1794 18.9712C8.41726 20.9205 7.23604 22.9796 6.46146 25.2839C8.23653 23.0893 10.2246 21.14 12.5031 19.4553C11.096 21.1981 9.85023 23.0248 9.01756 25.1161C10.6958 23.5928 11.8512 21.5466 14.1427 20.2944C13.2519 21.5208 12.4128 22.4697 11.9545 23.9672C14.2524 22.0307 15.4401 19.4295 17.7767 17.9255C17.1764 18.7969 16.4277 19.5586 15.8596 20.4364C15.2981 21.3078 14.5945 22.134 14.3234 23.3862C16.4599 22.2567 18.1511 20.7721 20.1973 19.8619C18.9773 20.9592 17.8413 22.0953 16.9118 23.6186C18.2802 23.5734 18.8805 22.4503 19.8874 22.0888C20.9266 21.7144 21.9207 21.2239 22.9341 20.785C22.1595 21.7984 20.7911 21.9404 19.9197 23.1216C22.0175 22.7989 23.9217 22.5084 25.8258 22.2179C25.8452 22.3083 25.871 22.3987 25.8904 22.489C24.1347 23.1861 22.2434 23.4702 20.4684 24.0963C18.6804 24.7288 16.8666 25.342 15.2529 26.3877C16.7117 26.3038 18.1317 25.9359 19.5905 26.0456C18.5513 26.6201 17.454 26.9235 16.2986 27.0977C14.1104 27.4269 12.2127 28.4791 10.3795 29.6603C10.2504 29.7442 10.173 29.8991 9.91478 30.2025C10.8636 30.0024 11.5801 29.8281 12.3095 29.7055C12.9937 29.5893 13.6908 29.5312 14.3879 29.4473C11.593 30.6221 8.75292 31.629 6.93912 34.2626C7.90088 33.985 8.81746 33.6235 9.72113 33.2362C11.6705 32.4036 11.6705 32.3971 12.2837 32.5456C11.0379 33.2943 9.66949 34.0108 8.42372 34.9016C7.1844 35.7923 5.87408 36.6896 5.35124 38.2645C6.13873 37.9289 6.8423 37.4964 7.57169 37.1091C8.25589 36.7412 8.83683 36.1474 9.83086 35.9924C6.73902 38.6841 5.08014 40.911 5.13823 42.2084L5.12532 42.2019ZM35.082 21.5273C34.8948 21.8823 34.6947 22.276 34.3655 22.9086C33.8556 22.1792 33.5006 21.6757 33.0423 21.0238C33.8125 20.8775 34.4925 21.0453 35.082 21.5273ZM33.8943 34.0754C33.5458 34.8112 33.1972 35.5535 32.7905 36.412C32.7776 35.3986 32.8874 35.1469 33.8943 34.0754ZM19.7648 14.3044C18.5513 14.1882 17.3442 14.072 16.1307 13.9493C16.1307 13.8783 16.1307 13.8009 16.1307 13.7299C17.3507 13.8461 18.5706 13.9623 19.7841 14.0784C19.7841 14.1494 19.7712 14.2269 19.7648 14.2979V14.3044Z" fill="#1C3664"/>
<path d="M48.3917 106.685C54.498 106.666 60.6042 106.479 66.7104 106.356C67.3107 106.343 67.9175 106.259 68.6404 106.195C68.1455 105.691 67.627 105.347 67.0848 105.162C63.7541 104.039 60.2685 103.619 56.854 102.896C54.7497 102.451 52.639 102.031 50.4444 101.586C51.2447 97.9713 52.0258 94.4535 52.8003 90.9421C52.852 90.9485 52.9036 90.955 52.9553 90.9679C53.0005 91.239 53.0521 91.5101 53.1037 91.7941C53.4716 91.8522 53.7879 91.9038 54.1688 91.9684C53.8977 92.588 53.6459 93.156 53.4006 93.7176C53.4458 93.7563 53.4975 93.7951 53.5427 93.8274C54.0849 93.4594 54.6206 93.0915 55.1757 92.7107C56.0987 93.1625 55.5501 94.0662 55.8147 94.7762C56.9895 93.4788 56.7571 91.7812 57.2735 90.2449C57.0476 89.9157 56.7959 89.5865 56.5893 89.2315C56.3763 88.8636 56.202 88.4699 55.9567 87.9664C56.9443 88.1278 57.4607 89.3025 58.4031 88.6442C58.5064 88.7991 58.5774 88.9088 58.6742 89.0508C59.3842 88.302 58.5903 87.734 58.6871 87.2306C58.132 86.7529 57.7189 86.2042 57.1767 85.9912C56.6732 85.7911 56.0342 85.9461 55.4985 85.9461C55.9309 85.449 56.3828 84.9262 56.9572 84.2678C56.3569 83.9709 55.9438 83.7643 55.421 83.5061C54.6335 84.2549 53.9041 84.9391 53.1489 85.6556C52.7745 84.4808 52.6196 83.1769 51.3997 82.4863C51.2835 82.6025 51.1737 82.7058 51.0834 82.7832C50.3411 82.4476 49.6956 81.8989 48.5144 82.2604C49.1276 82.6993 49.5665 83.0156 50.0893 83.39C49.134 83.6933 48.4046 83.9257 47.7527 84.1387C47.8947 84.4292 48.0303 84.7132 48.1723 85.0166C48.3207 84.9133 48.4692 84.81 48.5144 84.7777C48.9017 85.0359 49.2373 85.2618 49.6698 85.5523C49.0759 85.591 48.6176 85.6233 48.1916 85.6556C47.7785 85.9138 47.3912 86.1591 47.0362 86.3785C46.4488 87.379 45.7388 88.302 46.3649 89.8189C46.5715 89.4768 46.6683 89.2251 46.8426 89.0573C47.0362 88.8701 47.3073 88.7668 47.6042 88.5925C47.5913 88.8572 47.5849 89.0056 47.572 89.2186C48.0948 88.9023 48.5596 88.6248 49.0308 88.3408C48.2368 89.4252 47.3719 90.3934 47.2686 92.0006C47.9012 91.8135 48.4046 91.665 48.9146 91.5165V92.0846C49.1211 92.0265 49.2825 91.9813 49.5536 91.9038C49.2567 92.6784 48.7016 93.24 49.1211 94.0791C49.4439 93.7112 49.7343 93.382 49.9925 93.0915C50.0183 92.7365 50.0442 92.4525 50.07 92.1039C50.1603 92.446 50.2249 92.6978 50.354 93.1948C50.9156 92.3105 51.348 91.6327 51.7805 90.955C50.8445 94.4212 50.3024 97.9455 48.8113 101.347C48.5144 100.786 48.3078 100.392 48.0432 99.8948C47.9722 100.256 47.9205 100.495 47.8753 100.74C47.43 100.379 46.991 100.024 46.4811 99.6173C45.8679 98.1198 45.2289 96.5448 44.5899 94.9892C43.5958 95.2409 42.6857 95.6734 41.6658 95.4604C42.5308 95.2151 43.3957 94.9634 44.4027 94.6729C44.1768 93.5433 44.3639 92.4589 43.8669 91.6521C42.931 91.2519 42.1758 90.9291 41.4206 90.6064C42.1435 90.7097 42.8664 90.813 43.6023 90.9162V85.8363C42.7115 85.3587 41.9563 84.9907 40.9106 85.0295C40.8654 86.5334 40.8203 87.9793 40.788 89.4252C40.7751 89.9545 40.9752 90.3869 41.4657 90.6387C41.3108 90.6451 41.1559 90.6581 40.93 90.671C40.93 92.0975 40.8461 93.4723 40.9558 94.8407C41.0591 96.1704 41.356 97.4808 41.5884 98.9331C40.8655 98.0165 40.2135 97.1967 39.5616 96.377C39.5229 96.3964 39.4777 96.4222 39.4389 96.4415C39.6842 97.2226 39.9295 97.9971 40.1683 98.7782L39.9101 98.8944C39.284 98.081 38.6579 97.2613 38.0253 96.448C37.9608 96.4738 37.8962 96.4996 37.8317 96.5254C38.0963 97.2484 38.3674 97.9778 38.6321 98.7007C38.5675 98.733 38.503 98.7653 38.4449 98.7911C37.8898 98.2618 37.3411 97.726 36.5795 96.9966C36.6892 97.797 36.7602 98.307 36.857 99.0041C35.6629 97.5776 34.9077 96.1575 34.6495 94.5116C34.3784 92.8269 34.0686 91.1422 33.9395 89.4445C33.8362 88.0761 33.2423 86.669 34.0363 85.3458C34.2493 85.3587 34.4494 85.3716 34.6495 85.3845C34.8496 85.3974 35.0497 85.4103 35.2304 85.4232C36.1728 86.4043 37.0829 87.3467 38.1609 88.4634V85.1198C38.5224 85.1392 38.7676 85.1392 39 85.1715C39.2066 85.1973 39.4131 85.2489 39.7617 85.3135C39.1162 83.7192 37.5864 83.2544 36.573 82.1184C37.722 82.0151 38.787 81.9183 39.9489 81.8085C38.5224 80.7499 37.0055 80.4143 35.2046 80.7693C35.8694 79.9689 36.4375 79.2847 37.141 78.4327C36.4826 78.2649 36.0631 78.1616 35.7855 78.0906C34.2945 78.5747 33.3134 79.3751 32.9261 80.9823C32.6098 80.4078 32.3968 80.0593 32.216 79.6914C31.719 78.6909 30.8218 78.2842 29.7955 78.1228C29.3824 78.0583 28.937 78.0841 28.8208 78.6973C29.2791 79.3944 30.3571 79.4913 30.6346 80.4143C27.8203 80.7758 26.581 81.4212 26.1744 82.9058C27.3556 82.2668 28.4723 81.7956 29.6987 82.1442C29.008 82.5702 28.2528 82.9317 27.6267 83.4416C26.7101 84.1839 26.652 84.952 27.3104 86.1139C27.7945 85.3199 28.2786 84.5454 29.2856 84.4679C29.6277 84.9133 29.3566 85.2425 29.1694 85.6298C28.6659 86.669 28.3432 87.734 29.292 88.7991C29.5438 88.4957 29.789 88.2117 30.0214 87.9277V89.0637C30.9444 87.8438 31.4285 86.4883 32.5452 85.4232C32.7001 86.9659 32.8228 88.3601 32.9777 89.7608C33.1326 91.1292 33.2423 92.5106 33.5134 93.8596C33.7781 95.2022 34.2106 96.5125 34.6237 98.0294C34.0556 97.5324 33.6555 97.1838 33.1584 96.7514C33.1197 97.3839 33.0874 97.9003 33.0358 98.6555C32.5452 97.6809 32.1515 96.8934 31.7577 96.1059C31.7061 96.1188 31.6545 96.1317 31.6093 96.1511V98.9912C30.6346 97.5389 30.867 95.88 29.8213 94.7052C29.9052 96.0736 29.9956 97.4485 30.0795 98.8169C30.002 98.8363 29.931 98.8556 29.8536 98.875C28.7304 96.8805 27.6073 94.8795 26.4261 92.7817C25.1287 94.3825 23.5408 95.2409 21.727 95.7315C23.2632 94.518 25.006 93.5885 26.226 92.1749C25.4708 89.9545 24.6317 87.8631 24.0507 85.7008C23.4762 83.5449 23.16 81.3244 22.7017 79.0072C20.8233 79.1943 18.9579 79.3815 17.0344 78.3617C17.1828 81.3825 17.2022 84.1516 17.8541 86.8691C19.9907 87.2693 21.8884 86.5141 23.9862 85.9267C22.6888 87.4177 21.2429 87.7469 17.9058 87.4436C18.1769 90.8001 19.1903 94.0081 19.6486 97.3323C18.7707 95.9574 17.8993 94.5761 17.0215 93.2012C16.9376 93.24 16.8601 93.2787 16.7762 93.3174C17.1828 95.0473 17.7896 96.732 18.0349 98.7523C16.3179 96.2995 14.7752 94.0533 12.6258 92.304C13.665 94.1243 14.6719 95.9381 15.2335 98.0746C14.9172 97.8616 14.7106 97.7196 14.5106 97.584C14.375 97.6679 14.2524 97.7454 14.2265 97.7648C13.2648 96.6675 12.3353 95.6153 11.4123 94.5632C11.38 94.589 11.3477 94.6148 11.3154 94.6407C11.9738 96.3447 12.6387 98.0488 13.3422 99.869C13.239 99.9723 13.1292 100.088 12.9162 100.308C12.2707 99.4107 11.7221 98.6426 11.1089 97.797C11.3929 98.9783 11.6511 100.069 11.9286 101.25C11.7027 101.231 11.4574 101.289 11.3542 101.192C11.0508 100.908 10.8055 100.566 10.5409 100.243C9.59846 99.1396 8.65606 98.0294 7.7072 96.9321C7.62975 96.8417 7.48775 96.803 7.37801 96.7385C8.28814 98.2166 9.01753 99.6818 9.36608 101.438C8.88843 101.166 8.52051 100.96 8.04931 100.702C8.33332 101.631 8.89489 102.29 8.80452 103.174C7.67493 101.657 7.26828 99.6173 5.4093 98.5974C6.0806 100.334 7.55875 101.644 7.72012 103.6C7.53938 103.819 7.35865 104.039 7.21019 104.22C6.93909 104.194 6.74544 104.174 6.6809 104.168C5.75141 104.82 5.4674 105.562 5.82886 106.608C6.75835 106.647 7.66848 106.711 8.58506 106.711C21.8496 106.724 35.1142 106.769 48.3788 106.724L48.3917 106.685ZM18.5383 96.3383C18.8353 97.0354 19.1257 97.739 19.4226 98.4361C19.3194 98.4748 19.2161 98.5135 19.1193 98.5522C18.8417 97.8487 18.5706 97.1387 18.2931 96.4351C18.377 96.4028 18.4544 96.3705 18.5383 96.3383ZM10.3343 101.012C9.6501 100.637 9.46936 100.03 9.49518 99.3268C9.77274 99.8884 10.0567 100.45 10.3343 101.012Z" fill="#1C3664"/>
<path d="M244.875 99.9142C245.179 99.4946 245.657 99.1073 245.579 98.3715C243.83 99.6882 242.978 101.528 241.861 103.2C241.848 102.664 241.926 102.18 242.061 101.709C242.203 101.212 242.397 100.734 242.661 99.9981C241.59 100.74 240.783 101.308 239.97 101.87C239.918 101.812 239.86 101.754 239.808 101.689L244.269 95.9251C242.862 96.8546 241.687 98.01 240.648 99.2945C239.905 100.205 238.898 100.656 237.756 101.386C237.995 100.773 238.13 100.431 238.253 100.108C238.169 99.8432 238.092 99.6108 237.969 99.2429C238.518 98.2876 239.098 97.2871 239.673 96.2801C238.885 96.7642 238.246 97.3516 237.685 98.0035C237.149 98.6232 236.691 99.3074 236.194 99.9658C236.865 97.2935 238.86 95.4604 240.228 93.227C238.272 94.5825 236.446 96.0413 235.084 98.0164C235.251 96.8094 235.981 95.8799 236.536 94.8859C237.097 93.8789 237.84 92.9624 238.505 92.007C236.071 93.0398 235.335 95.5701 233.541 97.3968C233.515 95.8154 234.438 94.4857 233.941 92.943C233.186 94.9956 232.476 96.9256 231.772 98.8556C231.663 98.8298 231.559 98.7975 231.45 98.7717C232.043 95.086 232.644 91.4003 233.263 87.5597C231.062 87.7727 229.048 87.3919 227.176 86.2494C226.757 87.3467 226.363 88.3472 225.982 89.3541C225.601 90.3546 225.234 91.3616 224.846 92.4201C226.757 93.7563 228.506 95.0731 230.527 95.9638C228.035 96.0026 226.499 94.0016 224.42 93.0785C223.652 94.8859 222.794 96.5319 221.535 98.223C221.496 97.5453 221.458 97.1063 221.445 96.6609C221.432 96.2027 221.464 95.7379 221.445 95.2796C221.432 94.873 221.554 94.434 221.225 93.9112C220.522 95.5765 220.638 97.1838 220.392 98.8491C219.624 97.9648 220.192 96.7255 219.392 95.8799C219.153 96.7449 218.94 97.5194 218.721 98.294L218.527 98.2488C218.482 97.7583 218.437 97.2612 218.379 96.6093C217.772 97.3064 217.288 97.8615 216.681 98.5522C216.881 96.3253 217.63 94.363 217.907 92.3169C218.191 90.2384 218.385 88.1471 218.617 86.0557C219.069 86.3914 219.599 86.6625 219.966 87.0756C220.386 87.5532 220.657 88.16 220.967 88.6635C221.264 88.4569 221.477 88.3085 221.787 88.089C221.864 88.4956 221.916 88.7538 222 89.1798C223.174 87.2757 221.896 85.8944 221.406 84.2871C222.258 84.9003 223.11 85.5135 224.052 86.1913C224.33 85.8298 224.543 85.5523 224.775 85.2424C224.407 84.6809 224.136 84.158 223.768 83.7126C223.381 83.2479 222.903 82.8606 222.432 82.4152C223.459 81.9311 224.188 82.7057 225.079 82.809C224.317 81.6148 222.71 80.8596 220.612 80.6724C221.006 79.7817 221.967 79.5041 222.594 78.8393C222.038 78.1163 221.316 78.1293 220.625 78.2325C219.244 78.4455 218.843 79.6719 218.346 80.6273C217.843 79.9753 217.404 79.2717 216.836 78.7037C216.223 78.1034 215.39 77.9614 214.532 77.9614C214.486 78.1293 214.428 78.2454 214.428 78.3616C214.422 78.5682 214.448 78.7747 214.454 78.9232C215.003 79.6074 215.81 80.0076 216.016 80.8984C214.409 80.8661 212.763 80.5304 211.64 82.2603C213.563 82.2904 214.624 82.4281 214.822 82.6734C214.189 82.9058 213.557 83.1123 212.944 83.3641C211.872 83.8095 211.44 84.8164 211.795 86.0428C212.292 85.7007 212.782 85.3715 213.35 84.9842C213.395 85.7136 213.434 86.3075 213.473 86.9013C213.667 86.1848 213.57 85.3909 214.331 84.8487C214.273 85.3005 214.222 85.6878 214.177 86.0751C214.222 86.088 214.267 86.1009 214.312 86.1203C214.603 85.5716 214.899 85.0165 215.19 84.4679C215.164 86.0364 214.428 87.5597 215.526 89.0895C216.171 87.8179 216.765 86.6496 217.391 85.4167C217.391 86.5269 217.494 87.5855 217.365 88.6118C217.139 90.4321 216.771 92.233 216.449 94.0338C216.178 95.5636 215.784 97.0482 214.751 98.2682C214.674 98.3586 214.609 98.4618 214.544 98.5522C214.331 98.4554 214.183 98.3844 214.035 98.3134C213.951 98.4683 213.873 98.6232 213.789 98.7781C213.744 98.7588 213.692 98.7458 213.647 98.7265L213.931 95.8606C213.828 95.8412 213.725 95.8218 213.621 95.8025C213.473 96.3511 213.305 96.8933 213.182 97.442C212.982 98.3844 212.995 98.3844 212.556 98.8427C212.595 98.3198 212.627 97.7841 212.666 97.2483L212.44 97.2031C212.066 97.7776 211.685 98.3521 211.311 98.9266C211.265 98.9137 211.227 98.9008 211.182 98.8814C211.336 98.0358 211.498 97.1967 211.653 96.3511C211.582 96.3253 211.511 96.2995 211.446 96.2672C210.897 97.3 210.349 98.3327 209.807 99.372C209.813 97.8809 210.097 96.4544 210.239 95.0085C210.381 93.5691 210.394 92.1168 210.465 90.5934C209.348 90.7161 208.419 90.8194 207.664 90.9033C207.141 92.7235 206.786 94.4534 206.147 96.0606C205.495 97.6937 205.069 99.4623 203.855 101.011C203.604 100.45 203.423 100.05 203.216 99.5979C203.107 100.159 203.01 100.631 202.887 101.231C201.971 100.011 199.511 91.5036 199.647 90.1932C200.331 90.9097 200.97 91.6133 201.661 92.2652C202.048 92.6332 202.5 92.9624 203.19 92.8074C203.249 92.2394 203.3 91.6778 203.365 91.0259C202.881 90.2707 202.371 89.4832 201.951 88.8377C202.5 88.7732 203.126 88.6957 203.881 88.6054C203.894 88.6183 204.055 88.7474 204.223 88.8765C204.333 88.7474 204.443 88.6312 204.552 88.5085C204.733 88.5666 204.914 88.6247 205.295 88.7538C205.159 88.3149 205.127 87.9922 204.972 87.7469C204.398 86.8303 203.545 86.2494 202.681 85.8621C202.216 85.9266 201.861 85.9783 201.26 86.0622C201.738 85.7524 202.009 85.5716 202.248 85.4232C202.171 85.1392 202.093 84.8939 201.958 84.4098C202.409 84.7002 202.642 84.8487 202.752 84.9197C203.365 84.7583 203.862 84.6292 204.449 84.4743C203.436 84.087 202.345 84.1709 201.583 83.4093C201.9 82.9381 202.184 82.5121 202.5 82.0409C199.892 81.4728 198.827 82.312 198.001 85.4425C197 84.3646 195.955 83.3834 194.044 83.6481C194.496 83.9127 194.741 84.0612 194.999 84.2097C194.748 84.3258 194.541 84.4227 194.199 84.5776C194.786 85.0101 195.251 85.3586 195.909 85.8492C194.238 85.6297 192.869 85.7782 191.643 86.7722C191.546 87.1401 191.443 87.5339 191.333 87.9534C191.598 88.2697 191.83 88.5473 192.069 88.8248C192.921 88.0438 193.915 87.9793 195.057 88.1084C194.677 88.3665 194.289 88.6247 193.883 88.9023C194.302 90.9614 194.18 92.9946 195.374 94.9504C195.716 93.6143 196 92.4976 196.252 91.4907C196.736 91.6714 197.233 91.8586 197.768 92.0522C197.885 91.2647 197.975 90.6322 198.065 89.9996C199.479 93.7369 200.053 97.6163 200.854 101.528C200.208 101.67 199.686 101.799 199.163 101.896C197.839 102.135 196.49 102.283 195.187 102.599C190.771 103.671 186.363 104.762 181.819 105.201C180.921 105.285 179.934 105.265 178.998 105.975C179.314 106.059 179.463 106.13 179.611 106.137C180.986 106.214 182.367 106.324 183.742 106.356C189.009 106.466 194.283 106.621 199.556 106.634C214.493 106.672 229.429 106.647 244.366 106.647C244.733 106.647 245.101 106.608 245.521 106.582C245.54 105.652 245.321 104.891 244.811 104.265C244.295 104.123 243.83 103.994 243.307 103.845C243.352 103.4 243.346 103.071 243.417 102.754C243.662 101.676 244.23 100.766 244.869 99.8754L244.875 99.9142Z" fill="#1C3664"/>
<path d="M186.343 64.7356C187.505 63.8448 187.628 62.2634 188.938 61.6631C188.893 62.1859 188.848 62.6571 188.809 63.1219C188.861 63.1348 188.912 63.1477 188.971 63.167C189.371 62.4118 189.771 61.6502 190.165 60.895C190.203 60.9079 190.242 60.9208 190.281 60.9272C190.216 61.2758 190.152 61.6244 190.061 62.1278C190.636 61.5792 190.713 60.7788 191.514 60.5141C191.236 61.2435 191.01 61.8438 190.791 62.4377C191.74 61.2371 192.637 60.4496 193.36 60.3721C193.063 60.8369 192.314 60.9595 192.275 61.7857C192.792 61.5469 193.244 61.3403 193.708 61.1273C193.786 61.2435 193.876 61.3726 193.947 61.4888C194.496 61.3339 194.961 61.2048 195.632 61.0176C194.405 61.9406 193.244 62.6313 192.327 63.5543C191.404 64.4838 190.72 65.6521 189.945 66.6849C190.1 66.9496 190.21 67.1432 190.281 67.2723C189.545 68.9441 189.668 70.5384 190.107 72.1457C190.223 72.5588 190.455 72.804 191.017 72.6814C191.049 72.1327 191.081 71.5583 191.114 70.9773L191.288 70.9386C191.488 71.7325 191.688 72.52 191.888 73.314C191.991 73.3011 192.095 73.2882 192.198 73.2752C192.308 71.8552 191.727 70.448 191.907 68.8473C192.566 69.8348 192.379 71.1258 193.502 71.7261C193.47 70.4029 192.869 69.1958 193.373 67.8855C193.553 68.7053 193.741 69.525 193.921 70.3448C194.012 70.3319 194.096 70.3189 194.186 70.3125L194.373 66.2202C194.418 66.2202 194.457 66.2137 194.502 66.2072C194.677 67.1109 194.844 68.0146 195.019 68.9183C195.09 68.9118 195.161 68.8989 195.225 68.8924C195.354 67.6725 195.49 66.4525 195.638 65.0454C195.89 65.5166 196.045 65.8071 196.258 66.2072C196.335 65.6328 196.394 65.2197 196.452 64.8001C196.529 64.8066 196.607 64.8195 196.684 64.8259C196.536 66.2137 196.387 67.6079 196.245 69.0022C196.432 68.957 196.639 68.9118 196.826 68.8666V71.4679C196.955 71.5195 197.136 71.5905 197.181 71.6099C197.478 72.6039 197.749 73.5076 198.001 74.3532C198.201 74.3726 198.246 74.3919 198.272 74.3726C198.336 74.3274 198.395 74.2693 198.504 74.1595C199.214 76.167 200.628 77.4902 202.564 78.594C202.345 76.9609 200.912 76.1347 200.68 74.734C201.499 74.9341 202.229 75.1149 202.965 75.2956C202.997 75.2246 203.036 75.1536 203.068 75.0826C202.287 74.1918 201.512 73.3075 200.596 72.2618C201.331 72.4297 201.816 73.0106 202.538 72.5975C201.622 71.6486 200.77 70.7643 199.918 69.88C199.969 69.8284 200.015 69.7767 200.066 69.7187C200.763 70.2609 201.461 70.7966 202.216 71.3904C202.209 70.1899 201.39 69.525 200.802 68.5826C201.312 68.673 201.68 68.7375 202.074 68.8085C201.719 67.6918 201.396 66.672 201.009 65.465C202.003 65.8587 202.377 66.5042 202.681 67.169C203.423 68.8021 204.146 70.448 204.83 72.1005C205.566 73.8755 206.231 75.67 206.579 77.5741C206.728 78.4133 207.115 79.2072 207.225 80.0463C207.431 81.6084 207.509 83.1898 207.67 84.7583C207.696 85.01 207.87 85.2489 207.902 85.3263C207.806 87.1466 207.715 88.8313 207.612 90.6903C208.645 90.5418 209.484 90.4192 210.394 90.2901C210.413 89.8124 210.446 89.4058 210.452 88.9991C210.536 85.2101 209.858 81.518 208.967 77.8581C207.935 73.6044 206.082 69.6799 204.049 65.8264C203.758 65.2778 203.41 64.8195 202.868 64.5161C202.958 64.4645 203.055 64.4128 203.158 64.3547C203.055 63.9287 202.952 63.5156 202.855 63.096C203.339 63.748 203.726 64.3741 204.423 64.8453C205.037 65.2649 205.146 66.2783 206.043 66.6139C206.108 66.1492 206.16 65.7812 206.211 65.4198C206.295 65.4069 206.379 65.3939 206.457 65.3875C207.005 66.7043 207.554 68.0146 208.09 69.2926C208.296 69.1765 208.554 69.028 208.877 68.8408C208.587 67.9113 208.27 66.8979 207.954 65.8781C209.193 67.3239 209.839 69.0086 210.284 70.8676C210.407 70.6675 210.575 70.5126 210.555 70.39C210.388 69.3055 210.187 68.2276 209.994 67.1496C210.814 68.7892 211.524 70.4739 211.756 72.4426C212.369 71.3324 211.511 70.3835 211.872 69.3766L212.769 72.3006C212.827 72.2941 212.892 72.2877 212.95 72.2812C212.892 71.3904 212.84 70.4997 212.763 69.3314C213.628 70.9451 213.989 72.4297 214.164 74.024C214.428 73.8174 214.622 73.6173 214.706 73.3785C215.119 72.1134 215.016 70.8224 214.848 69.5315C214.796 69.1442 214.796 68.744 214.764 68.176C214.602 67.9436 214.331 67.5498 214.022 67.0851C214.222 67.1109 214.338 67.1303 214.454 67.1367C214.59 67.1432 214.725 67.1367 214.867 67.1367C214.512 65.7812 213.06 65.5295 212.369 64.5484C212.653 64.3741 212.821 64.2644 213.04 64.1288C212.33 63.7544 211.44 63.7609 211.42 62.6248C209.477 61.8245 207.522 61.0241 205.572 60.1978C205.359 60.1075 205.211 59.8557 204.907 59.5524C206.244 59.8235 207.367 60.0494 208.677 60.314C208.309 59.5201 208.044 58.9456 207.78 58.3647C207.831 58.313 207.883 58.2679 207.928 58.2162C208.884 58.8811 209.839 59.5459 210.801 60.2172C210.846 60.1785 210.891 60.1462 210.936 60.1075C210.71 59.5782 210.478 59.0489 210.252 58.5196C210.304 58.4744 210.349 58.4228 210.4 58.3776C211.44 59.0876 212.479 59.7912 213.363 60.3979C213.809 60.1075 214.112 59.9074 214.338 59.7589C215.371 60.1204 215.726 61.2887 216.784 61.3145C216.668 60.2043 216.223 59.3071 215.396 58.6164C215.332 58.5648 215.254 58.5067 215.229 58.4357C214.628 56.8865 213.234 56.3314 211.853 55.899C208.625 54.8856 205.508 55.4665 202.493 56.8349C202.242 56.9511 201.99 57.0737 201.738 57.1899C201.712 57.1318 201.686 57.0737 201.661 57.0156C202.325 56.467 202.997 55.9183 203.616 55.4019C203.487 55.1825 203.436 55.0921 203.294 54.8533C204.365 54.2143 205.411 53.5881 206.469 52.9556C206.043 52.8329 205.592 52.7038 204.966 52.5231C205.914 51.8389 206.747 51.3354 207.741 51.1289C208.716 50.9223 209.697 50.7287 210.678 50.5221C209.226 50.1607 207.76 49.8896 206.282 49.6895C205.889 49.6378 205.443 49.7217 205.056 49.8444C203.675 50.2833 202.235 50.6319 201.422 52.323C201.39 51.5613 201.364 51.0708 201.344 50.5802C201.293 50.5738 201.241 50.5673 201.183 50.5544C200.989 51.3677 200.802 52.181 200.609 52.9943L200.454 52.9685C200.396 52.6006 200.331 52.2262 200.273 51.8583C200.228 51.8583 200.183 51.8583 200.131 51.8583C199.995 52.9427 199.86 54.0271 199.718 55.1567C199.376 54.4531 199.059 53.7947 198.672 53.0008C198.343 54.4918 198.853 55.7505 199.105 57.3448C197.536 54.5757 195.516 53.1557 192.424 53.5042C192.495 53.827 192.559 54.111 192.624 54.3756C192.463 54.4337 192.314 54.4854 191.927 54.6274C193.063 55.0986 193.96 55.4729 194.935 55.8731C194.509 55.9248 194.154 55.9635 193.56 56.0345C194.748 56.5896 195.922 56.7445 196.761 57.7192C194.941 57.6418 193.231 57.5643 191.391 57.4868C187.718 59.0553 186.686 62.1085 186.337 64.7227L186.343 64.7356ZM202.642 63.7673C202.771 63.9481 202.771 64.2256 202.803 64.4709C202.222 63.8771 201.848 63.1412 201.486 62.3925C201.874 62.8443 202.3 63.2768 202.642 63.7673ZM200.008 59.5524C199.97 60.1785 199.911 60.5464 199.247 60.4367C199.214 60.2301 199.176 60.0107 199.13 59.7525C199.408 59.6879 199.627 59.6427 200.008 59.5524Z" fill="#1C3664"/>
<path d="M55.9697 57.5385C55.3501 57.8096 54.8531 58.0227 54.3625 58.2357C55.4404 56.2992 57.4737 55.9507 59.3262 55.047C58.9131 54.8598 58.6291 54.7372 58.2354 54.5564C58.5839 54.2982 58.8744 54.0852 59.1003 53.9239H60.6236C58.2483 52.4715 54.6723 53.2397 52.3163 57.3062C52.4454 56.4283 52.6584 55.5569 52.6842 54.6726C52.7165 53.7819 52.4196 52.9363 51.7289 52.0584C52.0129 53.2397 52.2518 54.2337 52.4906 55.2277C51.6579 53.9045 51.0705 52.4715 50.1281 51.2516C50.0507 51.2903 49.9732 51.329 49.8893 51.3678C50.1411 52.0003 50.3863 52.6394 50.6381 53.2719C48.5725 51.03 47.1654 49.866 46.4166 49.7799C46.4554 49.909 46.4941 50.0316 46.5264 50.1285C45.4097 49.9929 44.3318 49.7283 43.2732 49.7734C42.1823 49.8251 41.0204 49.8573 40.0264 50.5545C41.1431 51.1806 42.4792 50.5803 43.5701 51.3355C43.2473 51.4194 42.9827 51.4904 42.5373 51.6066C43.9509 51.7938 45.1902 51.8712 46.3327 52.6135C45.5904 52.7749 44.8675 52.4909 44.1833 52.9556C45.3 53.4139 46.3134 53.8335 47.3203 54.2466C47.2945 54.3176 47.2751 54.3822 47.2493 54.4532C46.7265 54.3951 46.2036 54.3305 45.4484 54.2466C46.7975 55.1567 47.9529 55.9313 49.1083 56.7059C47.4559 56.3186 45.9067 55.7635 44.3447 55.2471C43.9186 55.1051 43.4474 54.9824 43.015 55.0276C41.7563 55.1696 40.4653 55.2406 39.297 55.7893C37.4058 56.6865 35.5726 57.6806 34.5979 59.7784C34.7722 59.83 34.9013 59.8687 35.1143 59.9268C34.8303 60.3851 34.5657 60.824 34.2946 61.263C34.6883 61.1597 34.9917 60.9338 35.308 60.7208C35.8566 60.3464 36.4053 59.9785 36.9604 59.617C36.9798 59.6041 37.0637 59.6944 37.1218 59.7396C36.9733 60.0301 36.8248 60.327 36.5602 60.8369C37.3025 60.3206 37.5542 59.6041 38.3482 59.5073C38.3288 59.8623 38.3159 60.1463 38.2965 60.4819C39.2712 59.7138 40.149 59.0231 41.0334 58.326C40.801 59.1006 40.0974 59.5718 39.9554 60.5207C41.1108 59.5008 42.221 58.7262 43.5572 58.3648C43.0602 58.8424 42.5567 59.3201 42.0597 59.7913C42.1048 59.8752 42.1565 59.9526 42.2017 60.0365C42.7955 59.8042 43.3829 59.5718 44.0155 59.3265V59.8881C44.7578 60.1334 45.4355 59.1974 46.152 59.8752C43.9574 60.7078 41.8015 61.5276 39.5939 62.3603C39.7876 62.6572 39.9038 62.8444 40.0264 63.0316C39.2906 63.5996 38.303 63.6512 37.651 64.4129C37.948 64.4968 38.1029 64.542 38.303 64.6001C37.806 64.9745 37.2831 65.2585 36.9217 65.6845C36.586 66.0782 36.4311 66.6269 36.1923 67.1045C36.2374 67.1239 36.2826 67.1497 36.3278 67.1691C36.5473 66.9109 36.7732 66.6463 37.1605 66.1944C35.3273 70.5643 35.9663 72.1909 37.0637 74.321C37.2831 72.7202 37.5349 71.2162 38.5999 69.7446C38.4514 70.829 38.3417 71.681 38.2255 72.5266C38.2772 72.5395 38.3353 72.5459 38.3869 72.5588C38.9807 71.0161 39.5746 69.4734 40.1684 67.9243C40.2071 67.9308 40.2459 67.9437 40.2781 67.9501C40.0845 69.1507 39.8973 70.3513 39.7037 71.5519C39.794 71.5713 39.8844 71.5906 39.9748 71.61C40.4589 69.9898 40.943 68.3632 41.4271 66.7431C41.6078 67.2982 41.6272 67.7952 41.6078 68.2987C41.5885 68.7441 41.5239 69.183 41.4787 69.6284C41.5626 69.6413 41.6466 69.6542 41.7305 69.6735C42.1565 68.4278 42.589 67.182 43.0731 65.7749C43.299 67.0206 42.3953 68.0082 42.7826 69.1572C43.2732 67.8662 43.7379 66.6398 44.2027 65.4134C44.2801 65.4392 44.3511 65.4586 44.4286 65.4844C44.293 66.2073 44.1575 66.9367 44.0219 67.6597C44.08 67.6726 44.1381 67.6919 44.1962 67.7048C44.4931 66.969 44.79 66.2396 45.0999 65.4844C45.2031 65.6393 45.2677 65.7361 45.3387 65.8459C45.8938 65.0261 46.436 64.2257 46.9782 63.4318C47.0169 63.4576 47.0557 63.4834 47.1009 63.5092C46.8233 64.2257 46.5393 64.9357 46.2617 65.6522C46.3327 65.6909 46.4037 65.7297 46.4747 65.7684C47.1073 64.3806 48.1272 63.3285 49.3342 62.4571C43.6927 70.2222 41.0204 81.0082 41.2915 84.5389C42.0274 84.7713 42.7116 85.2812 43.583 85.0876C43.7121 83.9903 43.8025 82.9575 43.9638 81.9312C44.2285 80.2465 44.364 78.5166 44.874 76.9094C45.8422 73.8562 47.0105 70.8677 48.1594 67.8727C48.5855 66.756 49.1987 65.7103 49.7215 64.6324C50.0313 65.5296 49.5666 66.188 49.2761 66.8528C49.4633 67.0981 49.6053 67.2917 49.7344 67.466C49.644 67.8727 49.5666 68.2277 49.4956 68.544C49.6957 68.6408 49.8248 68.6989 49.9345 68.7505C49.7667 69.822 48.9017 70.5901 48.9146 71.7649C49.3794 71.5713 49.7344 71.4228 50.0959 71.2679C50.1475 71.3389 50.1927 71.4163 50.2443 71.4873C49.5989 72.107 48.9534 72.7331 48.3079 73.3528C48.3595 73.4302 48.4176 73.5141 48.4693 73.5916C49.0308 73.327 49.5989 73.0688 50.3928 72.7008C49.5666 73.8627 48.6371 74.6115 48.2434 75.8121C48.9405 75.4248 49.6311 75.0375 50.4832 74.5663C49.6699 75.9605 48.9534 77.1869 48.2304 78.4262C48.8114 78.7554 49.1277 78.4069 49.4569 78.181C50.7155 77.3096 51.5934 76.0961 52.51 74.889C53.5363 73.5464 53.8977 72.0683 53.8461 70.4288C53.8332 70.1383 53.8461 69.8478 53.8461 69.6219C53.9881 69.9253 54.1559 70.2803 54.3238 70.6418C54.4012 70.6224 54.4787 70.6095 54.5561 70.5901C54.4593 69.7704 54.356 68.9506 54.2398 68.0147C54.4464 68.2987 54.5755 68.5052 54.7304 68.6924C54.8595 68.8538 55.008 68.9958 55.2791 69.2733C54.9499 67.7242 54.5755 66.401 54.9241 64.7485C56.144 66.4849 56.2537 68.3439 56.9186 69.8801C56.9573 69.2992 57.0025 68.6021 57.0477 67.9049C57.4802 69.325 57.2026 70.7321 57.1122 72.1522C57.9126 70.887 58.074 69.4864 58.1708 68.0534C58.216 68.5052 58.2547 68.9506 58.2934 69.3766C58.4742 69.4605 58.6097 69.5186 58.6872 69.5574C58.6872 70.0221 58.6807 70.3965 58.6872 70.7709C58.6936 71.1517 58.4419 71.5842 58.8744 71.9198C59.1326 71.042 59.3843 70.1964 59.6296 69.3508C60.1266 70.603 59.5199 71.7133 59.4811 72.8945C59.7651 72.4104 60.0492 71.9327 60.3784 71.3776C60.4558 71.752 60.5139 72.0231 60.5914 72.4168C60.8366 72.2167 60.9851 72.1005 61.069 72.0295V70.0544C61.069 70.0544 61.1271 70.0544 61.1529 70.0544C61.2175 70.3965 61.2756 70.7386 61.3788 71.2872C62.2115 69.6542 60.998 68.3955 61.14 67.0013C60.5268 66.2654 59.8942 65.5167 59.2552 64.7485C59.4424 64.684 59.578 64.6388 59.8684 64.542C58.9196 63.8513 58.0934 63.2317 57.2478 62.6443C55.4017 61.3662 55.3953 61.3727 55.1693 60.6046C55.8406 61.1339 56.4797 61.6632 57.3317 61.7471C57.8674 60.9015 56.8153 60.5142 56.8153 59.7977C57.5253 60.4174 58.1902 60.9919 58.855 61.5728C58.9131 61.5341 58.9712 61.4889 59.0293 61.4501C58.9067 61.0048 58.7905 60.5529 58.6097 59.8881C59.6812 60.7208 60.1266 61.8697 61.1594 62.4571C61.3788 61.7987 60.5268 61.4114 60.998 60.5981C61.6629 61.4953 62.2502 62.2957 62.8376 63.0897C62.9086 63.0509 62.9861 63.0187 63.0571 62.9799C62.9022 62.4506 62.7473 61.9213 62.5923 61.3921C62.644 61.3598 62.7021 61.3275 62.7537 61.2952C63.3088 62.1408 63.8639 62.9799 64.4126 63.8255C64.7547 60.8434 62.9603 58.3841 60.0363 57.9323C58.642 57.7193 57.222 57.6612 55.9504 57.545L55.9697 57.5385ZM51.8128 60.7078C51.3868 60.3722 51.148 60.1786 50.7607 59.8687C51.1803 59.7009 51.3868 59.617 51.8128 59.4427V60.7078Z" fill="#1C3664"/>
<path d="M233.154 87.0627C233.289 86.598 233.463 86.1913 233.521 85.7653C233.696 84.455 233.851 83.1382 233.967 81.8214C234.07 80.6015 234.173 79.3751 233.909 78.0841C232.114 78.7102 230.443 79.6139 228.577 78.5424C228.093 81.0017 227.641 83.3125 227.17 85.7266C229.081 86.6819 231.004 87.0563 233.16 87.0692L233.154 87.0627Z" fill="#1C3664"/>
<path d="M17.1184 77.6258C18.7837 78.5941 20.5911 78.4327 22.5985 78.1035C22.4694 75.9089 22.3403 73.8111 22.2241 71.8165C20.5007 71.184 18.8999 70.5966 17.1184 69.9446V77.6258Z" fill="#1C3664"/>
<path d="M228.577 78.2971C230.623 78.4069 232.444 78.1874 234.225 77.3224C234.115 74.889 233.999 72.4943 233.883 69.9382C232.205 70.8677 230.649 71.5002 228.829 71.6358C228.745 73.895 228.661 76.0638 228.584 78.2971H228.577Z" fill="#1C3664"/>
<path d="M228.429 64.0772C228.558 66.2848 228.7 68.6343 228.848 71.1388C230.61 70.6934 232.276 70.2803 233.877 69.3379C233.664 66.8722 233.392 64.4387 232.857 62.1085C231.34 62.7798 229.958 63.393 228.422 64.0772H228.429Z" fill="#1C3664"/>
<path d="M22.2564 63.89C20.9719 63.3349 19.6293 62.7475 18.2286 62.1407C17.5638 64.4967 17.3185 66.9044 17.2604 69.4734C18.8612 70.0027 20.4232 70.5191 22.2564 71.1323V63.89Z" fill="#1C3664"/>
<path d="M227.228 56.1701C227.551 58.5067 227.886 60.8627 228.229 63.322C229.978 62.9928 231.327 62.2053 232.831 61.3081C232.353 58.8682 231.721 56.5315 231.043 54.1432C229.707 54.8533 228.506 55.4923 227.234 56.1701H227.228Z" fill="#1C3664"/>
<path d="M23.4569 55.9571C22.224 55.3503 21.0815 54.7888 19.8035 54.1627C19.0935 56.7058 18.4867 59.1328 18.235 61.6502C19.7131 62.2053 21.0686 62.7217 22.6952 63.3285C22.9663 60.6884 23.2116 58.3195 23.4569 55.9571Z" fill="#1C3664"/>
<path d="M159.989 101.457C154.657 103.122 149.241 104.471 143.768 105.581C141.47 106.046 139.178 106.582 136.861 106.956C132.82 107.615 128.773 108.286 124.681 108.544C120.556 108.809 116.432 109.093 112.307 109.228C108.783 109.345 105.246 109.274 101.715 109.28C101.14 109.28 100.566 109.267 99.9978 109.222C97.7838 109.054 95.5633 108.893 93.3493 108.693C91.7679 108.551 90.1994 108.312 88.618 108.189C87.895 108.131 87.1786 107.795 86.2103 108.079C86.7977 108.376 87.1979 108.648 87.6304 108.79C89.8379 109.487 92.0519 110.177 94.2724 110.81C96.8543 111.546 99.4298 112.307 102.012 113.056C102.083 113.075 102.147 113.095 102.218 113.114C102.444 113.179 102.664 113.243 102.89 113.308C108.757 114.999 114.657 116.574 120.685 117.484C127.018 118.439 133.647 118.736 139.94 117.361C142.206 116.864 144.458 116.316 146.537 115.244C147.634 114.676 148.764 114.153 149.842 113.553C150.061 113.431 150.274 113.295 150.494 113.166C151.339 112.662 152.172 112.14 153.004 111.61C153.65 111.204 154.27 110.758 154.896 110.319C156.839 108.944 158.794 107.589 160.705 106.175C161.906 105.291 163.003 104.271 164.21 103.393C166.398 101.805 168.774 100.534 171.162 99.2752C174.647 97.4355 178.243 95.8412 181.896 94.3824C182.393 94.1823 182.897 93.9887 183.226 93.4013C182.974 93.4207 182.793 93.4271 182.613 93.44C178.275 93.7821 173.937 94.1242 169.593 94.4534C168.515 94.5374 167.437 94.5761 166.359 94.6535C164.081 94.8214 161.802 94.9956 159.524 95.1699C158.414 95.2538 157.303 95.3248 156.2 95.4087C154.934 95.5056 153.676 95.6282 152.411 95.7057C150.636 95.8154 148.861 95.867 147.085 95.9897C144.865 96.1381 142.651 96.3318 140.437 96.5061C138.662 96.6416 136.893 96.7836 135.118 96.9127C132.523 97.0999 129.922 97.2806 127.327 97.4549C125.075 97.6034 122.822 97.726 120.576 97.8938C117.632 98.1133 114.695 98.3973 111.745 98.591C108.26 98.8169 104.768 98.9847 101.276 99.1654C97.4675 99.3655 93.6592 99.5592 89.8508 99.7593C88.6761 99.8174 87.5013 99.8755 86.3265 99.94C83.9447 100.069 81.5629 100.147 79.1875 100.36C77.7158 100.489 76.3668 100.986 75.2307 102.038C74.4174 102.793 73.7139 103.703 72.6101 104.161C74.127 104.633 75.631 105.001 77.122 105.401C80.5753 106.324 84.0996 106.75 87.6498 107.034C89.4894 107.182 91.3225 107.363 93.1621 107.492C95.5052 107.66 97.8548 107.886 100.204 107.912C103.825 107.957 107.453 107.892 111.074 107.795C114.314 107.705 117.555 107.582 120.789 107.331C124.048 107.073 127.289 106.601 130.542 106.285C134.215 105.924 137.836 105.278 141.45 104.587C144.6 103.987 147.724 103.277 150.861 102.619C154.96 101.76 159.059 100.889 163.164 100.043C164.184 99.8367 165.217 99.7141 166.25 99.5527C165.837 99.8561 165.398 100.024 164.946 100.147C163.293 100.598 161.622 100.973 159.989 101.483V101.457ZM149.325 111.965C148.389 112.436 147.44 112.837 146.459 113.179C145.53 113.508 144.581 113.779 143.606 113.999C134.628 116.045 125.443 116.38 116.283 115.58C113.998 115.38 111.849 114.709 109.583 114.425C110.035 114.476 110.487 114.534 110.939 114.586C113.146 114.818 115.38 114.896 117.6 114.934C121.608 114.999 125.617 115.064 129.619 114.96C131.962 114.896 134.305 114.567 136.629 114.244C138.584 113.973 140.521 113.56 142.464 113.192C142.515 113.179 142.567 113.172 142.625 113.159C143.806 112.933 145.007 112.753 146.162 112.43C147.382 112.088 148.564 111.597 149.758 111.178C149.984 111.1 150.229 111.068 150.584 110.984C150.235 111.572 149.745 111.746 149.306 111.965H149.325ZM156.174 106.86C156.032 106.918 155.883 106.963 155.735 107.008C152.824 107.789 149.906 108.538 146.982 109.28C145.078 109.764 143.167 110.255 141.25 110.661C140.366 110.849 139.482 111.023 138.591 111.191C137.849 111.333 137.106 111.462 136.364 111.578C134.595 111.862 132.814 112.094 131.026 112.243C130.484 112.288 129.935 112.327 129.386 112.353C127.966 112.43 126.553 112.527 125.133 112.598C124.358 112.637 123.59 112.669 122.815 112.682C122.086 112.695 121.357 112.695 120.621 112.669C117.413 112.559 114.198 112.475 110.997 112.301C109.964 112.243 108.938 112.152 107.911 112.049C106.885 111.946 105.859 111.83 104.832 111.733C104.768 111.726 104.697 111.714 104.632 111.694C104.464 111.649 104.303 111.552 104.148 111.41C104.116 111.384 104.09 111.365 104.058 111.333C104.342 111.333 104.626 111.333 104.903 111.326C105.187 111.326 105.471 111.326 105.749 111.339C108.279 111.449 110.816 111.63 113.346 111.681C113.385 111.681 113.424 111.681 113.462 111.681C114.366 111.701 115.276 111.72 116.18 111.733C118.897 111.785 121.621 111.81 124.332 111.714C125.346 111.675 126.359 111.623 127.373 111.552C129.277 111.423 131.168 111.223 133.059 110.965C134.189 110.81 135.318 110.642 136.441 110.435C139.262 109.926 142.064 109.338 144.865 108.738C147.118 108.254 149.37 107.757 151.623 107.279C153.54 106.879 155.457 106.485 157.374 106.085C157.394 106.143 157.42 106.208 157.439 106.266C157.013 106.453 156.593 106.679 156.161 106.847L156.174 106.86Z" fill="#1C3664"/>
<path d="M71.2094 101.354C72.3068 100.908 73.1007 100.069 73.8624 99.2235C75.418 97.5001 77.3544 96.6416 79.6329 96.4544C81.4338 96.3059 83.2347 96.0736 85.0356 95.9574C88.6826 95.7185 92.3295 95.5443 95.9829 95.3313C97.6031 95.2344 99.2168 95.1183 100.83 95.0021C102.67 94.8665 104.503 94.7245 106.343 94.589C107.543 94.4986 108.75 94.4276 109.951 94.3372C112.139 94.1694 114.321 93.9822 116.509 93.8208C118.665 93.6595 120.821 93.5433 122.977 93.3819C125.165 93.2206 127.347 93.0334 129.528 92.8591C130.574 92.7752 131.62 92.7042 132.665 92.6203C134.789 92.4524 136.906 92.2588 139.03 92.1039C140.392 92.007 141.76 91.9683 143.122 91.8715C146.324 91.652 149.519 91.3809 152.727 91.1938C156.916 90.9485 161.105 90.7613 165.294 90.5483C165.74 90.5289 166.185 90.5289 166.631 90.5031C169.361 90.3417 172.085 90.161 174.815 90.0061C177.165 89.8705 179.508 89.7543 181.857 89.6511C182.225 89.6381 182.593 89.735 182.993 89.7802C183.181 90.232 183.342 90.6193 183.549 91.1034C180.844 91.3809 178.288 91.6843 175.732 91.8909C172.918 92.1232 170.09 92.2717 167.27 92.446C163.81 92.6654 160.357 92.872 156.897 93.085C155.98 93.1431 155.064 93.1947 154.147 93.2657C152.662 93.3819 151.184 93.5175 149.7 93.6207C149.067 93.6659 148.428 93.6401 147.795 93.6788C145.859 93.795 143.929 93.9306 141.993 94.0661C141.199 94.1178 140.411 94.1888 139.617 94.2533C137.468 94.4276 135.312 94.6083 133.162 94.7826C132.02 94.873 130.884 94.9504 129.741 95.0343C127.811 95.1764 125.888 95.3248 123.958 95.4668C123.164 95.5249 122.37 95.5572 121.583 95.6153C119.465 95.7831 117.348 95.9638 115.225 96.1252C113.863 96.2285 112.501 96.2995 111.139 96.3899C109.777 96.4867 108.415 96.6029 107.053 96.6868C105.53 96.7771 104.006 96.8223 102.483 96.9127C99.759 97.087 97.0286 97.2935 94.3047 97.4678C92.9104 97.5582 91.5097 97.6098 90.1155 97.6873C88.0823 97.797 86.0555 97.9067 84.0222 98.0358C82.2794 98.1456 80.5366 98.2553 78.8003 98.4231C77.916 98.507 77.051 98.7329 76.2635 99.1719C75.0113 99.8754 73.8688 100.734 72.8231 101.709C72.4552 102.051 72.1325 102.464 71.8614 102.89C71.5322 103.406 71.629 103.639 72.2422 104.032C72.4939 103.722 72.7457 103.393 73.0103 103.09C74.1916 101.741 75.4761 100.489 77.2382 99.9594C78.2323 99.656 79.2779 99.4817 80.3107 99.3784C81.8276 99.23 83.3574 99.1977 84.8807 99.1073C87.766 98.9395 90.6513 98.7588 93.543 98.5974C94.7501 98.5328 95.9571 98.507 97.1641 98.436C100.811 98.2295 104.458 98.0165 108.105 97.8034C109.344 97.7324 110.584 97.6808 111.817 97.584C114.792 97.3645 117.768 97.0999 120.743 96.8933C123.216 96.719 125.694 96.6093 128.166 96.4608C129.115 96.4028 130.071 96.3253 131.02 96.2543C134.06 96.0155 137.1 95.7637 140.14 95.5314C141.283 95.441 142.425 95.3894 143.561 95.299C145.775 95.1312 147.996 94.9375 150.21 94.7891C151.701 94.6858 153.198 94.66 154.683 94.5632C158.013 94.3372 161.338 94.0855 164.668 93.8531C167.741 93.6401 170.82 93.4465 173.892 93.227C177.223 92.9946 180.547 92.73 183.878 92.4976C185.459 92.3879 185.84 91.7876 185.24 90.3224C184.652 88.9088 183.471 87.9341 181.735 88.1535C180.792 88.2762 179.831 88.2504 178.875 88.2826C176.81 88.3601 174.744 88.4182 172.679 88.5086C170.11 88.6183 167.541 88.7474 164.972 88.8765C163.61 88.941 162.248 89.012 160.886 89.0895C158.853 89.2121 156.826 89.3606 154.799 89.4768C152.23 89.6252 149.661 89.735 147.092 89.8899C145.866 89.9609 144.646 90.1158 143.419 90.1997C141.909 90.3094 140.392 90.3869 138.739 90.4902C138.081 80.1044 136.771 69.7703 132.872 59.8622C134.389 59.6621 135.848 59.5266 137.274 59.2748C137.403 59.249 137.532 59.2232 137.661 59.1974C139.559 58.8488 141.45 58.4551 143.329 58.0291C144.058 57.8612 144.749 57.5772 145.394 57.2093C145.685 57.0415 145.969 56.8607 146.24 56.6606C147.227 55.9183 147.292 54.7952 146.375 53.9754C146.008 53.6463 145.543 53.3945 145.091 53.1815C144.62 52.9685 144.136 52.7878 143.652 52.6264C142.761 52.3295 141.844 52.11 140.902 51.9809C139.236 51.755 137.584 51.3935 135.912 51.2967C133.795 51.1676 131.659 51.2644 129.535 51.2322C126.372 51.1805 123.274 51.6775 120.188 52.323C120.156 52.323 120.124 52.3359 120.098 52.3424C119.11 52.5425 118.11 52.678 117.213 52.8329C117.045 52.6587 116.877 52.4908 116.709 52.3101C115.722 51.2838 114.753 50.2768 113.792 49.2828C113.062 48.5211 112.326 47.7659 111.597 47.0043C111.274 47.2818 111.248 47.5207 111.378 47.7659C111.513 48.0177 111.675 48.2565 111.849 48.4824C112.062 48.76 112.275 49.0375 112.488 49.3151C113.185 50.2188 113.888 51.116 114.579 52.0261C114.65 52.1165 114.721 52.2133 114.792 52.3037C115.044 52.6328 115.276 52.975 115.283 53.4397C114.521 53.6011 113.785 53.7624 113.062 53.9173C112.662 53.3751 112.255 52.8394 111.829 52.3295C110.984 51.3032 110.093 50.3285 109.157 49.399C108.679 48.9213 108.189 48.4566 107.692 47.9983C107.356 48.4243 107.55 48.7083 107.718 48.9665C107.821 49.1214 107.937 49.2699 108.04 49.4184C108.228 49.683 108.408 49.9477 108.602 50.1994C109.157 50.9223 109.725 51.6453 110.287 52.3617C110.526 52.6651 110.764 52.975 111.003 53.2783C111.21 53.543 111.352 53.8593 111.558 54.2078C110.719 54.4208 109.996 54.6016 109.364 54.7629C108.641 53.9819 107.931 53.2138 107.221 52.4521C106.272 51.4258 105.329 50.4124 104.394 49.399C104.213 49.1989 104.026 48.9988 103.845 48.8052C103.787 48.8503 103.729 48.8955 103.671 48.9343C103.703 49.0892 103.748 49.2441 103.8 49.3925C104.161 50.3995 104.955 51.1676 105.549 52.039C105.652 52.1939 105.762 52.3424 105.865 52.4908C106.459 53.3429 107.079 54.1885 107.756 55.1373C106.762 55.3503 105.943 55.5181 105.155 55.686C104.413 54.821 103.735 54.0271 103.057 53.2267C102.864 52.9943 102.67 52.7619 102.47 52.536C101.979 51.9745 101.431 51.4581 100.637 51.2192C100.869 51.5678 101.095 51.9228 101.321 52.2649C101.244 52.3747 101.179 52.465 101.153 52.5102C101.153 52.5231 101.166 52.5296 101.173 52.5425C101.908 53.9109 102.986 55.0147 103.606 56.5832C102.638 56.7058 101.812 56.8156 101.108 56.9059C100.211 56.1055 99.462 55.3697 98.6487 54.7177C97.8548 54.0787 97.2997 53.1621 96.3057 52.7426C96.4477 53.1363 96.6219 53.4978 96.8672 53.8141C97.3578 54.4402 97.8871 55.0276 98.3906 55.6472C98.7456 56.0797 99.0877 56.5315 99.249 57.1706C99.2684 57.248 99.2942 57.3126 99.3071 57.3965C97.9581 57.6934 96.6413 57.9903 95.3052 58.2872C95.26 58.4938 95.1373 58.7455 95.1696 58.9844C95.1825 59.0812 95.189 59.1845 95.1954 59.2877C95.2342 59.6492 95.3181 59.9978 95.8409 60.0623L95.8151 60.03C95.8151 60.03 95.8474 60.03 95.8667 60.03C96.1701 59.6879 96.538 59.4427 96.9318 59.2619C97.3255 59.0812 97.7515 58.9585 98.1711 58.8553C100.262 58.3453 102.354 57.8225 104.439 57.2803C104.994 57.1383 105.542 56.9963 106.098 56.8478C109.035 56.0539 112.03 55.4923 114.992 54.821C116.819 54.4079 118.626 53.9174 120.466 53.5688C124.662 52.7619 128.902 52.4779 133.175 52.607C135.719 52.6845 138.236 52.9879 140.74 53.4526C142.115 53.7108 143.484 53.9754 144.768 54.5499C145.581 54.9114 145.724 55.0986 146.008 56.0733C145.846 56.0152 145.73 56.0022 145.646 55.9442C144.278 54.9953 142.683 54.6855 141.102 54.3498C136.332 53.3364 131.504 53.2719 126.675 53.614C124.468 53.7689 122.286 54.2595 120.098 54.6145C117.716 55.0082 115.386 55.6214 113.056 56.2217C111.365 56.6542 109.654 57.0286 107.95 57.4029C106.904 57.6353 105.859 57.8612 104.813 58.1065C103.361 58.4486 101.921 58.8488 100.475 59.2103C99.9849 59.3329 99.5008 59.4491 99.0102 59.5524C97.9839 59.7783 96.9705 60.1914 95.8861 60.0236C95.8796 60.03 95.8732 60.0365 95.8603 60.0494C96.0023 60.1849 96.1314 60.3463 96.2992 60.4302C97.19 60.9014 98.1453 60.7917 99.1006 60.7336C99.83 60.6884 100.559 60.6626 101.289 60.6755C102.05 60.6884 102.812 60.7465 103.574 60.8046C104.135 60.8498 104.697 60.9272 105.149 60.9789C105.665 60.9272 106.098 60.8046 106.511 60.8562C108.499 61.1209 110.493 61.2435 112.501 61.179C112.656 61.179 112.811 61.2113 112.991 61.2306C116.096 67.7177 117.316 74.5404 116.819 81.7504C116.541 81.5761 116.315 81.4147 116.07 81.2921C115.431 80.9823 114.779 80.8403 114.05 80.9758C111.675 81.4212 110.364 83.8611 110.881 85.733C111.074 86.4301 111.371 87.1014 111.616 87.7856C111.72 88.0761 111.817 88.373 111.913 88.6635C112.172 88.9281 112.43 89.2057 112.694 89.4639C113.224 89.9802 113.772 90.4321 114.586 90.4192C114.928 90.4192 115.27 90.5354 115.605 90.5999C115.851 91.6004 115.754 91.878 114.96 92.4331C114.502 92.4072 114.321 92.0781 114.198 91.7037C113.953 90.942 113.411 90.4385 112.849 89.9092C112.475 89.5542 112.217 89.083 111.907 88.657C111.035 88.5021 110.171 88.3472 109.312 88.1987C109.099 87.8373 108.899 87.4952 108.789 87.3144C109.157 86.7658 109.603 86.372 109.699 85.9008C109.958 84.6809 109.951 83.4286 109.615 82.2151C109.273 80.9694 108.286 80.2787 106.995 80.2916C106.33 80.2981 105.659 80.2916 104.994 80.2916C102.483 80.2722 99.9655 80.2464 97.4546 80.2271C96.68 80.2271 95.9313 80.3433 95.2471 80.7176C94.3563 81.2017 93.8722 81.9376 93.9819 82.9768C94.0336 83.4803 94.1304 83.9838 94.2724 84.4679C94.8792 86.5398 95.5763 88.5796 95.7828 90.7484C95.8796 91.7166 96.0087 92.6784 96.1378 93.7369C95.6666 93.7757 95.3245 93.8144 94.9824 93.8208C94.2853 93.8402 93.5817 93.8273 92.8846 93.8596C90.6965 93.9693 88.5083 94.0855 86.3201 94.2081C85.7585 94.2404 85.268 94.0855 84.771 93.8402C82.8862 92.9236 80.982 92.0264 79.0133 91.0905C79.0843 92.4202 79.1488 93.7305 79.2198 95.0537C78.9617 95.0924 78.8067 95.1247 78.6518 95.1441C77.2899 95.2603 76.057 95.7186 74.9468 96.5189C73.5396 97.5324 72.4746 98.8879 71.3127 100.153C71.0158 100.476 70.7189 100.895 70.9061 101.437C71.0352 101.405 71.132 101.386 71.2159 101.354H71.2094ZM117.051 92.3492C117.109 91.7553 117.122 91.2906 117.206 90.8452C117.774 87.9534 118.323 85.0552 118.956 82.1764C119.136 81.3567 119.556 80.5885 119.866 79.7946C121.486 79.4009 123.022 79.0329 124.616 78.6456C125.52 82.8283 126.437 87.0046 126.417 91.4197C123.28 91.7359 120.24 92.0393 117.051 92.3556V92.3492ZM122.996 69.5702C123.597 72.1521 124.261 74.7276 124.423 77.3999C123.868 74.8115 123.222 72.2296 122.996 69.5702ZM137.093 87.1595C136.661 87.1853 136.306 87.2305 135.945 87.2305C133.911 87.2047 131.878 87.1595 129.845 87.1466C129.419 87.1466 128.993 87.2563 128.534 87.3144C128.496 87.6694 128.476 87.9083 128.438 88.2568H136.977C137.022 89.1218 137.068 89.8963 137.119 90.7935C134.169 90.9936 131.31 91.1873 128.386 91.3874C128.179 87.1466 127.295 83.0994 126.74 79.0071C128.528 78.7876 134.189 79.0394 135.925 79.4267C136.493 81.9505 136.732 84.5001 137.093 87.1595ZM133.182 66.5042C133.937 68.2599 134.221 70.1124 134.66 71.9198C135.092 73.7013 135.409 75.5086 135.796 77.4063C132.659 77.303 129.528 77.2062 126.314 77.1029C125.23 71.6745 123.545 66.459 122.009 61.1532C123.196 61.0822 124.352 61.0112 125.481 60.9466C127.179 63.5414 130.019 72.2296 129.341 76.1864C129.845 76.2767 130.355 76.3736 130.981 76.4897C131.084 73.314 130.432 70.3641 129.651 67.3433C130.813 67.0658 131.968 66.7947 133.182 66.5106V66.5042ZM132.859 65.1422C131.704 65.465 130.619 65.7619 129.477 66.0846C128.754 64.2773 128.07 62.5861 127.34 60.7788C128.515 60.5916 129.664 60.4109 130.903 60.2108C131.626 61.7857 132.259 63.3865 132.859 65.1487V65.1422ZM114.999 61.8503C114.521 60.7982 113.947 59.7848 113.391 58.7649C113.314 58.6229 113.237 58.4809 113.159 58.3324L113.359 58.1969C113.462 58.3841 113.566 58.5713 113.669 58.7584C114.095 59.5395 114.521 60.3205 114.941 61.0822H119.014C119.498 62.2634 119.988 63.4575 120.505 64.7162C119.169 65.2649 117.807 65.3294 116.419 65.5553C115.948 64.3031 115.547 63.0444 115.005 61.8438L114.999 61.8503ZM116.877 67.2336C118.097 66.5365 119.498 66.5235 120.924 66.1363C121.57 69.9317 122.202 73.6303 122.841 77.3934C121.382 77.742 119.93 78.0905 118.433 78.4455C118.349 74.7147 117.981 70.9774 116.871 67.2336H116.877ZM116.445 86.9594C116.361 86.9852 116.283 87.011 116.199 87.0369C116.012 86.8045 115.825 86.5721 115.586 86.2752C115.767 86.0235 115.935 85.7846 116.232 85.3586C116.322 86.0299 116.386 86.4947 116.445 86.9594ZM116.064 82.7122V83.8998C115.625 84.3517 115.289 84.6873 114.87 85.1198C114.56 84.6034 114.327 84.1258 114.005 83.7191C113.701 83.3383 113.301 83.0284 112.959 82.7057C113.882 81.3825 114.799 81.3954 116.057 82.7122H116.064ZM113.856 89.1605C112.288 88.2439 111.3 85.5652 111.9 83.8805C112.01 83.5642 112.236 83.2866 112.449 82.9252C113.23 83.59 113.572 84.3646 113.734 85.2683C113.45 85.662 112.701 85.5458 112.649 86.3333C112.74 86.4753 112.888 86.7077 113.049 86.9659C113.385 86.8884 113.682 86.8239 114.05 86.7399C114.65 87.5468 115.212 88.2956 115.825 89.1153C115.063 89.5801 114.437 89.4961 113.843 89.154L113.856 89.1605ZM102.657 93.3432C100.972 93.44 99.3394 93.5368 97.6676 93.6337C97.4869 92.6203 97.3126 91.6391 97.1125 90.5095C98.468 89.7027 99.9849 89.6898 101.521 90.0319C102.522 91.0195 102.825 92.0587 102.657 93.3432ZM99.7912 87.2176H107.634C107.718 87.5403 107.808 87.8824 107.918 88.3149C105.246 88.3859 102.702 88.4505 100.062 88.5215C99.9655 88.0696 99.8881 87.6888 99.7912 87.2176ZM111.797 92.4718C110.984 92.5944 110.171 92.7623 109.357 92.7881C107.815 92.8397 106.265 92.801 104.626 92.801C104.639 92.6396 104.645 92.5234 104.658 92.3492C107.169 92.2911 109.654 92.2265 112.326 92.1684C112.062 92.3233 111.939 92.446 111.804 92.4718H111.797ZM111.926 89.5801C111.991 90.0642 112.042 90.445 112.107 90.8968C111.681 91.0453 111.339 91.2518 110.984 91.2777C108.809 91.4261 106.633 91.5359 104.4 91.6585C104.148 90.9097 103.955 90.3159 103.742 89.6769C106.44 89.1928 109.138 89.735 111.933 89.5865L111.926 89.5801ZM108.073 81.8795C108.738 82.9962 108.951 84.1903 108.583 85.4748C107.989 85.9008 107.382 86.0364 106.588 85.7717C106.407 84.4937 106.227 83.1963 106.033 81.8343C106.711 81.7181 107.369 81.5116 108.079 81.8859L108.073 81.8795ZM104.897 81.6536C105.736 82.8606 105.665 84.229 105.723 85.7524C104.82 85.7911 104.109 85.8234 103.309 85.8621C103.09 84.4356 102.883 83.1124 102.67 81.7375C103.425 81.5051 104.129 81.6084 104.897 81.6471V81.6536ZM101.695 81.6665C102.425 82.9187 102.373 84.2807 102.502 85.7265C101.624 85.804 100.843 86.0235 99.9462 85.875C99.6363 84.4356 99.3394 83.0865 99.036 81.6665H101.695ZM98.5584 87.9728C98.5196 88.0954 98.4745 88.2052 98.397 88.4053C98.042 88.5537 97.6483 88.7151 97.1448 88.9217C96.9318 88.3085 96.751 87.7921 96.5445 87.1918C97.3449 87.1724 98.0033 87.2563 98.6552 87.5855C98.6165 87.734 98.5971 87.8566 98.5584 87.9728ZM95.6473 82.0409C96.2088 81.7246 96.7833 81.5245 97.4933 81.6407C98.2937 82.9123 98.6875 84.2097 98.6423 85.662C97.8935 85.9395 97.2416 85.7201 96.538 85.5006C95.9184 84.4485 95.5375 83.3383 95.6408 82.0409H95.6473Z" fill="#1C3664"/>
<path d="M86.0103 93.2335C87.8563 93.7305 89.7282 93.453 91.5808 93.2012C91.7809 93.1754 91.968 93.014 92.2198 92.8914C92.2198 91.6843 92.2456 90.4838 92.2198 89.2832C92.1552 86.6432 90.8385 84.8939 88.3856 83.9644C86.4363 83.2286 84.4095 83.1447 82.3891 83.3899C81.9954 83.4351 81.6275 83.5319 81.2918 83.674C80.9433 83.8224 80.6334 84.029 80.3752 84.2936C80.0009 84.6809 79.7298 85.1844 79.62 85.8492C79.3877 87.2822 79.2069 88.7281 79.0068 90.1352C79.2392 90.3224 79.3683 90.4644 79.5297 90.5548C81.6017 91.665 83.7382 92.6267 86.0103 93.24V93.2335ZM87.8305 88.0116C88.5406 89.2767 88.7084 90.6193 88.2888 92.1104C87.9273 91.9038 87.8434 91.6327 87.7983 91.3229C87.7079 90.6645 87.5917 90.0126 87.5013 89.3542C87.3787 88.4247 86.8559 87.7663 86.0748 87.3403C84.8871 86.6948 83.6607 86.1139 82.4472 85.5007C82.0987 85.3264 81.6533 85.2747 81.408 84.6293C81.8921 84.6745 82.2213 84.6293 82.4924 84.739C84.0416 85.378 85.6553 85.8944 86.9398 87.0305C87.269 87.3209 87.6046 87.6372 87.8176 88.0116H87.8305Z" fill="#1C3664"/>
<path d="M131.742 84.0483C132.607 84.6938 133.395 84.4743 133.763 83.4738C133.911 83.0672 133.898 82.6541 133.627 82.3055C133.376 81.9892 133.085 81.7052 132.872 81.4664C132.168 81.2857 131.646 81.3567 131.271 81.9118C130.768 82.6541 130.942 83.4351 131.755 84.0419L131.742 84.0483Z" fill="#1C3664"/>
<path d="M121.596 82.9509C120.924 82.9316 120.227 83.6416 120.208 84.371C120.188 85.0617 120.86 85.7717 121.576 85.8104C122.222 85.8427 122.951 85.1004 122.964 84.3904C122.977 83.6932 122.293 82.9703 121.596 82.9509Z" fill="#1C3664"/>
</svg>
