<svg width="17" height="17" viewBox="0 0 17 17" fill="none" xmlns="http://www.w3.org/2000/svg">
<path fill-rule="evenodd" clip-rule="evenodd" d="M1.44866 7.45024C1.79155 7.45024 2.06951 7.72821 2.06951 8.0711V14.6935C2.06951 14.968 2.17853 15.2312 2.37259 15.4252C2.56664 15.6193 2.82983 15.7283 3.10427 15.7283H13.0379C13.3124 15.7283 13.5756 15.6193 13.7696 15.4252C13.9637 15.2312 14.0727 14.968 14.0727 14.6935V8.0711C14.0727 7.72821 14.3506 7.45024 14.6935 7.45024C15.0364 7.45024 15.3144 7.72821 15.3144 8.0711V14.6935C15.3144 15.2973 15.0745 15.8763 14.6476 16.3032C14.2207 16.7302 13.6417 16.97 13.0379 16.97H3.10427C2.50051 16.97 1.92148 16.7302 1.49457 16.3032C1.06765 15.8763 0.827805 15.2973 0.827805 14.6935V8.0711C0.827805 7.72821 1.10577 7.45024 1.44866 7.45024Z" fill="white"/>
<path fill-rule="evenodd" clip-rule="evenodd" d="M5.17378 1.24171C4.78957 1.24171 4.4211 1.39433 4.14942 1.66601C3.87775 1.93769 3.72512 2.30616 3.72512 2.69037C3.72512 3.07457 3.87775 3.44305 4.14942 3.71472C4.4211 3.9864 4.78957 4.13902 5.17378 4.13902H7.45024V3.51817C7.45024 2.91442 7.2104 2.33539 6.78348 1.90847C6.35656 1.48155 5.77754 1.24171 5.17378 1.24171ZM8.0711 1.52238C7.95063 1.3475 7.81377 1.18271 7.6615 1.03045C7.00172 0.370663 6.10686 0 5.17378 0C4.46025 0 3.77595 0.283448 3.2714 0.78799C2.76686 1.29253 2.48341 1.97684 2.48341 2.69037C2.48341 3.4039 2.76686 4.0882 3.2714 4.59274C3.77595 5.09728 4.46025 5.38073 5.17378 5.38073H10.9684C11.3217 5.38073 11.6716 5.31114 11.998 5.17594C12.3244 5.04074 12.621 4.84257 12.8708 4.59274C13.1206 4.34292 13.3188 4.04633 13.454 3.71992C13.5892 3.39351 13.6588 3.04367 13.6588 2.69037C13.6588 1.97684 13.3753 1.29253 12.8708 0.78799C12.3662 0.283448 11.6819 0 10.9684 0C10.0353 0 9.14048 0.370663 8.48069 1.03045C8.32843 1.18271 8.19156 1.3475 8.0711 1.52238ZM8.69195 3.51817V4.13902H10.9684C11.1587 4.13902 11.347 4.10155 11.5228 4.02875C11.6986 3.95595 11.8582 3.84924 11.9928 3.71472C12.1273 3.5802 12.234 3.4205 12.3068 3.24474C12.3796 3.06898 12.4171 2.88061 12.4171 2.69037C12.4171 2.30616 12.2644 1.93769 11.9928 1.66601C11.7211 1.39433 11.3526 1.24171 10.9684 1.24171C10.3647 1.24171 9.78563 1.48155 9.35871 1.90847C8.93179 2.33539 8.69195 2.91442 8.69195 3.51817Z" fill="white"/>
<path fill-rule="evenodd" clip-rule="evenodd" d="M0 4.75988C0 4.41699 0.277966 4.13902 0.620854 4.13902H15.5213C15.8642 4.13902 16.1422 4.41699 16.1422 4.75988V8.0711C16.1422 8.41399 15.8642 8.69195 15.5213 8.69195H8.69195V16.3491C8.69195 16.692 8.41399 16.97 8.0711 16.97C7.72821 16.97 7.45024 16.692 7.45024 16.3491V8.69195H0.620854C0.277966 8.69195 0 8.41399 0 8.0711V4.75988ZM14.9005 7.45024V5.38073H1.24171V7.45024H14.9005Z" fill="white"/>
</svg>
