<svg width="15" height="17" viewBox="0 0 15 17" fill="none" xmlns="http://www.w3.org/2000/svg">
<path fill-rule="evenodd" clip-rule="evenodd" d="M2.37654 4.9143C2.37654 2.2002 4.57674 0 7.29083 0C10.0049 0 12.2051 2.20021 12.2051 4.9143V6.85776C12.2051 8.0463 12.5019 9.21603 13.0685 10.2608L14.4566 12.8203C14.826 13.5015 14.3328 14.33 13.5579 14.33H1.02373C0.248839 14.33 -0.244329 13.5015 0.12508 12.8203L1.51316 10.2608C2.07977 9.21603 2.37654 8.0463 2.37654 6.85776V4.9143ZM7.29083 1.27449C5.28062 1.27449 3.65103 2.90409 3.65103 4.9143V6.85776C3.65103 8.2585 3.30127 9.63707 2.6335 10.8684L1.4474 13.0555H13.1343L11.9482 10.8684C11.2804 9.63707 10.9306 8.2585 10.9306 6.85776V4.9143C10.9306 2.90409 9.30104 1.27449 7.29083 1.27449Z" fill="white"/>
<path fill-rule="evenodd" clip-rule="evenodd" d="M5.434 13.9779C5.434 14.9274 6.20374 15.6971 7.15326 15.6971C8.10277 15.6971 8.87251 14.9274 8.87251 13.9779H10.147C10.147 15.6313 8.80665 16.9716 7.15326 16.9716C5.49986 16.9716 4.15951 15.6313 4.15951 13.9779H5.434Z" fill="white"/>
</svg>
