<svg width="13" height="13" viewBox="0 0 13 13" fill="none" xmlns="http://www.w3.org/2000/svg">
<path d="M0.5 11C0.5 10.2044 0.81607 9.44129 1.37868 8.87868C1.94129 8.31607 2.70435 8 3.5 8H9.5C10.2956 8 11.0587 8.31607 11.6213 8.87868C12.1839 9.44129 12.5 10.2044 12.5 11C12.5 11.3978 12.342 11.7794 12.0607 12.0607C11.7794 12.342 11.3978 12.5 11 12.5H2C1.60218 12.5 1.22064 12.342 0.93934 12.0607C0.658035 11.7794 0.5 11.3978 0.5 11Z" stroke="white" stroke-linejoin="round"/>
<path d="M6.5 5C7.74264 5 8.75 3.99264 8.75 2.75C8.75 1.50736 7.74264 0.5 6.5 0.5C5.25736 0.5 4.25 1.50736 4.25 2.75C4.25 3.99264 5.25736 5 6.5 5Z" stroke="white"/>
</svg>
