<svg width="294" height="97" viewBox="0 0 294 97" fill="none" xmlns="http://www.w3.org/2000/svg">
<path d="M168.134 7.81299H125.866C124.283 7.81299 123 9.09599 123 10.6787V35.134C123 36.7167 124.283 37.9997 125.866 37.9997H168.134C169.717 37.9997 171 36.7167 171 35.134V10.6787C171 9.09599 169.717 7.81299 168.134 7.81299Z" fill="#87CDEA"/>
<path d="M139.719 20.3586L146.236 13.898C146.658 13.4797 147.339 13.4831 147.756 13.9055L154.145 20.3662C154.816 21.0449 154.336 22.1964 153.381 22.1964H150.076C149.861 22.1964 149.686 22.3707 149.686 22.5857V29.7208C149.686 31.1551 148.524 32.3178 147.089 32.3178C145.655 32.3178 144.492 31.1551 144.492 29.7208V22.5857C144.492 22.3707 144.318 22.1964 144.103 22.1964H140.476C139.516 22.1964 139.038 21.0343 139.719 20.3586Z" fill="white"/>
<path d="M126.403 3.58257V8.16865H167.06L166.081 6.74582C165.012 5.191 163.246 4.26214 161.359 4.26214H150.582L147.121 0.831119C146.585 0.299029 145.859 0.000488281 145.104 0.000488281H129.985C128.007 0.000488281 126.403 1.60424 126.403 3.58257Z" fill="#4B9FC2"/>
<path d="M29.4541 68.0002H26.0039V57.8184H29.5237C30.5346 57.8184 31.403 58.0222 32.1289 58.4299C32.858 58.8342 33.4182 59.4159 33.8093 60.1749C34.2004 60.9339 34.3959 61.8421 34.3959 62.8993C34.3959 63.96 34.1987 64.8714 33.8043 65.6337C33.4132 66.396 32.8481 66.981 32.109 67.3887C31.3732 67.7964 30.4882 68.0002 29.4541 68.0002ZM27.8483 66.4043H29.3647C30.0739 66.4043 30.6656 66.2751 31.1395 66.0165C31.6135 65.7547 31.9698 65.3653 32.2084 64.8482C32.447 64.3279 32.5664 63.6782 32.5664 62.8993C32.5664 62.1205 32.447 61.4742 32.2084 60.9604C31.9698 60.4434 31.6168 60.0573 31.1495 59.802C30.6854 59.5435 30.1087 59.4143 29.4193 59.4143H27.8483V66.4043ZM36.0688 68.0002V60.3638H37.8139V61.6366H37.8934C38.0326 61.1957 38.2713 60.856 38.6093 60.6174C38.9507 60.3754 39.3402 60.2545 39.7777 60.2545C39.8771 60.2545 39.9881 60.2594 40.1108 60.2694C40.2367 60.276 40.3411 60.2876 40.424 60.3042V61.9597C40.3477 61.9332 40.2268 61.91 40.061 61.8901C39.8986 61.8669 39.7412 61.8553 39.5887 61.8553C39.2606 61.8553 38.9656 61.9266 38.7038 62.0691C38.4453 62.2083 38.2414 62.4022 38.0923 62.6508C37.9431 62.8993 37.8686 63.186 37.8686 63.5109V68.0002H36.0688ZM43.6804 68.1543C43.1965 68.1543 42.7606 68.0681 42.3728 67.8958C41.9884 67.7201 41.6834 67.4616 41.4581 67.1202C41.236 66.7788 41.125 66.3579 41.125 65.8574C41.125 65.4266 41.2045 65.0703 41.3636 64.7886C41.5227 64.5068 41.7398 64.2814 42.0149 64.1124C42.29 63.9434 42.5999 63.8158 42.9446 63.7296C43.2926 63.6401 43.6522 63.5755 44.0234 63.5357C44.4708 63.4893 44.8338 63.4479 45.1122 63.4114C45.3906 63.3716 45.5928 63.312 45.7187 63.2324C45.848 63.1496 45.9126 63.022 45.9126 62.8496V62.8198C45.9126 62.4453 45.8016 62.1553 45.5795 61.9498C45.3574 61.7443 45.0376 61.6415 44.62 61.6415C44.1792 61.6415 43.8295 61.7377 43.571 61.9299C43.3158 62.1221 43.1434 62.3492 43.0539 62.611L41.3735 62.3724C41.5061 61.9083 41.7249 61.5206 42.0298 61.209C42.3347 60.8941 42.7076 60.6588 43.1484 60.503C43.5892 60.344 44.0764 60.2644 44.61 60.2644C44.9779 60.2644 45.3442 60.3075 45.7088 60.3937C46.0733 60.4798 46.4064 60.6224 46.7081 60.8212C47.0097 61.0168 47.2516 61.2836 47.4339 61.6216C47.6195 61.9597 47.7123 62.3823 47.7123 62.8894V68.0002H45.9822V66.9512H45.9225C45.8132 67.1633 45.659 67.3622 45.4602 67.5478C45.2646 67.7301 45.0177 67.8776 44.7194 67.9903C44.4244 68.0996 44.0781 68.1543 43.6804 68.1543ZM44.1477 66.8319C44.509 66.8319 44.8222 66.7606 45.0873 66.6181C45.3525 66.4723 45.5563 66.28 45.6988 66.0414C45.8447 65.8028 45.9176 65.5426 45.9176 65.2609V64.361C45.8612 64.4074 45.7651 64.4505 45.6292 64.4903C45.4966 64.53 45.3475 64.5648 45.1818 64.5947C45.0161 64.6245 44.852 64.651 44.6896 64.6742C44.5272 64.6974 44.3863 64.7173 44.267 64.7339C43.9985 64.7703 43.7582 64.83 43.5461 64.9128C43.334 64.9957 43.1666 65.1117 43.044 65.2609C42.9214 65.4067 42.86 65.5956 42.86 65.8276C42.86 66.1591 42.981 66.4093 43.223 66.5783C43.4649 66.7474 43.7732 66.8319 44.1477 66.8319ZM52.843 71.0229C52.1967 71.0229 51.6415 70.9351 51.1775 70.7594C50.7135 70.5871 50.3406 70.3551 50.0589 70.0634C49.7772 69.7717 49.5816 69.4486 49.4723 69.094L51.093 68.7012C51.1659 68.8503 51.272 68.9978 51.4112 69.1437C51.5504 69.2928 51.7376 69.4154 51.973 69.5116C52.2116 69.611 52.5116 69.6607 52.8728 69.6607C53.3832 69.6607 53.8058 69.5364 54.1406 69.2878C54.4753 69.0426 54.6427 68.6382 54.6427 68.0748V66.628H54.5532C54.4604 66.8136 54.3245 67.0042 54.1456 67.1998C53.9699 67.3953 53.7362 67.5594 53.4446 67.692C53.1562 67.8245 52.7933 67.8908 52.3558 67.8908C51.7691 67.8908 51.2372 67.7533 50.7599 67.4782C50.2859 67.1998 49.9081 66.7855 49.6264 66.2353C49.348 65.6818 49.2088 64.9891 49.2088 64.1572C49.2088 63.3186 49.348 62.611 49.6264 62.0343C49.9081 61.4543 50.2876 61.0151 50.7649 60.7168C51.2421 60.4152 51.7741 60.2644 52.3608 60.2644C52.8082 60.2644 53.1761 60.3406 53.4644 60.4931C53.7561 60.6422 53.9881 60.8229 54.1605 61.035C54.3328 61.2438 54.4637 61.441 54.5532 61.6266H54.6527V60.3638H56.4275V68.1245C56.4275 68.7774 56.2717 69.3177 55.9602 69.7452C55.6486 70.1728 55.2227 70.4926 54.6825 70.7047C54.1422 70.9169 53.5291 71.0229 52.843 71.0229ZM52.8579 66.4789C53.2391 66.4789 53.5639 66.3861 53.8323 66.2005C54.1008 66.0149 54.3046 65.7481 54.4438 65.4001C54.5831 65.052 54.6527 64.6344 54.6527 64.1472C54.6527 63.6666 54.5831 63.2457 54.4438 62.8844C54.308 62.5232 54.1058 62.2431 53.8373 62.0442C53.5722 61.8421 53.2457 61.741 52.8579 61.741C52.4569 61.741 52.1221 61.8454 51.8536 62.0542C51.5852 62.263 51.383 62.5497 51.2471 62.9143C51.1112 63.2755 51.0433 63.6865 51.0433 64.1472C51.0433 64.6145 51.1112 65.0239 51.2471 65.3752C51.3863 65.7232 51.5902 65.995 51.8586 66.1905C52.1304 66.3828 52.4635 66.4789 52.8579 66.4789ZM64.7872 68.1493C64.0912 68.1493 63.493 68.0234 62.9925 67.7715C62.492 67.5196 62.1059 67.1799 61.8341 66.7523C61.5657 66.3215 61.4314 65.8359 61.4314 65.2957C61.4314 64.888 61.5143 64.5267 61.68 64.2118C61.849 63.897 62.081 63.6053 62.376 63.3368C62.6743 63.0684 63.019 62.8016 63.4101 62.5364L65.2148 61.3084C65.48 61.1361 65.6805 60.9538 65.8164 60.7616C65.9556 60.5693 66.0252 60.3439 66.0252 60.0854C66.0252 59.8667 65.9324 59.6595 65.7468 59.464C65.5645 59.2684 65.3126 59.1707 64.9911 59.1707C64.7756 59.1707 64.5851 59.222 64.4193 59.3248C64.2569 59.4242 64.1293 59.5551 64.0365 59.7175C63.947 59.8799 63.9023 60.0523 63.9023 60.2346C63.9023 60.4566 63.9636 60.682 64.0862 60.9107C64.2122 61.1394 64.3746 61.3764 64.5735 61.6216C64.7756 61.8669 64.9911 62.1271 65.2198 62.4022L69.9975 68.0002H68.0486L64.0813 63.4562C63.7863 63.1115 63.5013 62.7717 63.2262 62.437C62.9544 62.1022 62.7307 61.7542 62.555 61.393C62.3826 61.0284 62.2965 60.634 62.2965 60.2097C62.2965 59.7291 62.4075 59.2999 62.6296 58.9221C62.8516 58.5409 63.1615 58.241 63.5593 58.0222C63.9603 57.8035 64.4293 57.6941 64.9662 57.6941C65.5032 57.6941 65.9639 57.8002 66.3483 58.0123C66.7328 58.2244 67.0294 58.5061 67.2382 58.8574C67.447 59.2088 67.5514 59.5916 67.5514 60.0059C67.5514 60.4865 67.4321 60.9173 67.1935 61.2985C66.9549 61.6763 66.6234 62.0194 66.1992 62.3276L64.1409 63.834C63.8029 64.0793 63.5609 64.3279 63.4151 64.5797C63.2692 64.8283 63.1963 65.0404 63.1963 65.2161C63.1963 65.4846 63.2643 65.7282 63.4002 65.9469C63.5361 66.1657 63.7266 66.3413 63.9719 66.4739C64.2205 66.6032 64.5105 66.6678 64.8419 66.6678C65.2065 66.6678 65.5661 66.5866 65.9208 66.4242C66.2754 66.2585 66.5986 66.0232 66.8902 65.7182C67.1819 65.4133 67.4139 65.0487 67.5862 64.6245C67.7586 64.1969 67.8448 63.723 67.8448 63.2026H69.3909C69.3909 63.8456 69.3197 64.4057 69.1772 64.883C69.0346 65.357 68.8507 65.758 68.6253 66.0861C68.3999 66.4109 68.1613 66.6711 67.9094 66.8667C67.8299 66.923 67.7536 66.9794 67.6807 67.0357C67.6078 67.0921 67.5316 67.1484 67.452 67.2047C67.0941 67.5296 66.6748 67.7682 66.1942 67.9207C65.7169 68.0731 65.2479 68.1493 64.7872 68.1493ZM78.0303 68.0002H74.58V57.8184H78.0999C79.1108 57.8184 79.9792 58.0222 80.705 58.4299C81.4342 58.8342 81.9943 59.4159 82.3854 60.1749C82.7765 60.9339 82.9721 61.8421 82.9721 62.8993C82.9721 63.96 82.7749 64.8714 82.3805 65.6337C81.9894 66.396 81.4243 66.981 80.6851 67.3887C79.9494 67.7964 79.0644 68.0002 78.0303 68.0002ZM76.4245 66.4043H77.9408C78.6501 66.4043 79.2417 66.2751 79.7157 66.0165C80.1896 65.7547 80.5459 65.3653 80.7846 64.8482C81.0232 64.3279 81.1425 63.6782 81.1425 62.8993C81.1425 62.1205 81.0232 61.4742 80.7846 60.9604C80.5459 60.4434 80.193 60.0573 79.7256 59.802C79.2616 59.5435 78.6849 59.4143 77.9955 59.4143H76.4245V66.4043ZM84.645 68.0002V60.3638H86.39V61.6366H86.4696C86.6088 61.1957 86.8474 60.856 87.1855 60.6174C87.5269 60.3754 87.9163 60.2545 88.3538 60.2545C88.4533 60.2545 88.5643 60.2594 88.6869 60.2694C88.8129 60.276 88.9173 60.2876 89.0001 60.3042V61.9597C88.9239 61.9332 88.8029 61.91 88.6372 61.8901C88.4748 61.8669 88.3174 61.8553 88.1649 61.8553C87.8368 61.8553 87.5418 61.9266 87.28 62.0691C87.0214 62.2083 86.8176 62.4022 86.6685 62.6508C86.5193 62.8993 86.4447 63.186 86.4447 63.5109V68.0002H84.645ZM93.2123 68.1493C92.4666 68.1493 91.8203 67.9853 91.2734 67.6572C90.7265 67.329 90.3023 66.87 90.0007 66.28C89.7024 65.6901 89.5532 65.0007 89.5532 64.2118C89.5532 63.423 89.7024 62.732 90.0007 62.1387C90.3023 61.5454 90.7265 61.0847 91.2734 60.7566C91.8203 60.4285 92.4666 60.2644 93.2123 60.2644C93.9581 60.2644 94.6044 60.4285 95.1512 60.7566C95.6981 61.0847 96.1207 61.5454 96.419 62.1387C96.7206 62.732 96.8714 63.423 96.8714 64.2118C96.8714 65.0007 96.7206 65.6901 96.419 66.28C96.1207 66.87 95.6981 67.329 95.1512 67.6572C94.6044 67.9853 93.9581 68.1493 93.2123 68.1493ZM93.2223 66.7076C93.6266 66.7076 93.9647 66.5966 94.2365 66.3745C94.5082 66.1491 94.7104 65.8475 94.843 65.4697C94.9789 65.0918 95.0468 64.6709 95.0468 64.2069C95.0468 63.7395 94.9789 63.317 94.843 62.9391C94.7104 62.558 94.5082 62.2547 94.2365 62.0293C93.9647 61.8039 93.6266 61.6913 93.2223 61.6913C92.808 61.6913 92.4633 61.8039 92.1882 62.0293C91.9164 62.2547 91.7125 62.558 91.5767 62.9391C91.4441 63.317 91.3778 63.7395 91.3778 64.2069C91.3778 64.6709 91.4441 65.0918 91.5767 65.4697C91.7125 65.8475 91.9164 66.1491 92.1882 66.3745C92.4633 66.5966 92.808 66.7076 93.2223 66.7076ZM98.3989 70.8638V60.3638H100.169V61.6266H100.274C100.366 61.441 100.497 61.2438 100.666 61.035C100.835 60.8229 101.064 60.6422 101.352 60.4931C101.641 60.3406 102.009 60.2644 102.456 60.2644C103.046 60.2644 103.578 60.4152 104.052 60.7168C104.529 61.0151 104.907 61.4576 105.186 62.0442C105.467 62.6276 105.608 63.3435 105.608 64.192C105.608 65.0305 105.471 65.7431 105.195 66.3297C104.92 66.9164 104.546 67.3638 104.072 67.6721C103.598 67.9803 103.061 68.1344 102.461 68.1344C102.024 68.1344 101.661 68.0615 101.372 67.9157C101.084 67.7698 100.852 67.5942 100.676 67.3887C100.504 67.1799 100.37 66.9827 100.274 66.7971H100.199V70.8638H98.3989ZM100.164 64.182C100.164 64.6759 100.234 65.1084 100.373 65.4796C100.516 65.8508 100.719 66.1408 100.985 66.3496C101.253 66.5551 101.578 66.6579 101.959 66.6579C102.357 66.6579 102.69 66.5518 102.958 66.3397C103.227 66.1243 103.429 65.8309 103.565 65.4597C103.704 65.0852 103.774 64.6593 103.774 64.182C103.774 63.7081 103.706 63.2871 103.57 62.9192C103.434 62.5513 103.232 62.263 102.963 62.0542C102.695 61.8454 102.36 61.741 101.959 61.741C101.575 61.741 101.248 61.8421 100.98 62.0442C100.711 62.2464 100.507 62.5298 100.368 62.8944C100.232 63.259 100.164 63.6882 100.164 64.182ZM113.953 68.1493C113.207 68.1493 112.561 67.9853 112.014 67.6572C111.467 67.329 111.043 66.87 110.741 66.28C110.443 65.6901 110.294 65.0007 110.294 64.2118C110.294 63.423 110.443 62.732 110.741 62.1387C111.043 61.5454 111.467 61.0847 112.014 60.7566C112.561 60.4285 113.207 60.2644 113.953 60.2644C114.699 60.2644 115.345 60.4285 115.892 60.7566C116.439 61.0847 116.861 61.5454 117.16 62.1387C117.461 62.732 117.612 63.423 117.612 64.2118C117.612 65.0007 117.461 65.6901 117.16 66.28C116.861 66.87 116.439 67.329 115.892 67.6572C115.345 67.9853 114.699 68.1493 113.953 68.1493ZM113.963 66.7076C114.367 66.7076 114.705 66.5966 114.977 66.3745C115.249 66.1491 115.451 65.8475 115.584 65.4697C115.72 65.0918 115.787 64.6709 115.787 64.2069C115.787 63.7395 115.72 63.317 115.584 62.9391C115.451 62.558 115.249 62.2547 114.977 62.0293C114.705 61.8039 114.367 61.6913 113.963 61.6913C113.549 61.6913 113.204 61.8039 112.929 62.0293C112.657 62.2547 112.453 62.558 112.317 62.9391C112.185 63.317 112.118 63.7395 112.118 64.2069C112.118 64.6709 112.185 65.0918 112.317 65.4697C112.453 65.8475 112.657 66.1491 112.929 66.3745C113.204 66.5966 113.549 66.7076 113.963 66.7076ZM119.14 68.0002V60.3638H120.885V61.6366H120.964C121.103 61.1957 121.342 60.856 121.68 60.6174C122.021 60.3754 122.411 60.2545 122.848 60.2545C122.948 60.2545 123.059 60.2594 123.181 60.2694C123.307 60.276 123.412 60.2876 123.495 60.3042V61.9597C123.418 61.9332 123.297 61.91 123.132 61.8901C122.969 61.8669 122.812 61.8553 122.659 61.8553C122.331 61.8553 122.036 61.9266 121.775 62.0691C121.516 62.2083 121.312 62.4022 121.163 62.6508C121.014 62.8993 120.939 63.186 120.939 63.5109V68.0002H119.14ZM131.494 68.1493C130.732 68.1493 130.077 67.982 129.53 67.6472C128.987 67.3125 128.567 66.8501 128.272 66.2601C127.981 65.6669 127.835 64.9841 127.835 64.2118C127.835 63.4363 127.984 62.7519 128.282 62.1586C128.581 61.562 129.002 61.098 129.545 60.7665C130.092 60.4318 130.738 60.2644 131.484 60.2644C132.104 60.2644 132.652 60.3788 133.13 60.6074C133.61 60.8328 133.993 61.1527 134.278 61.567C134.563 61.9779 134.725 62.4585 134.765 63.0087H133.045C132.975 62.6408 132.81 62.3342 132.548 62.089C132.289 61.8404 131.943 61.7161 131.509 61.7161C131.141 61.7161 130.818 61.8155 130.539 62.0144C130.261 62.21 130.044 62.4917 129.888 62.8596C129.736 63.2275 129.659 63.6683 129.659 64.182C129.659 64.7024 129.736 65.1498 129.888 65.5243C130.041 65.8956 130.254 66.1823 130.529 66.3844C130.808 66.5833 131.134 66.6827 131.509 66.6827C131.774 66.6827 132.011 66.633 132.22 66.5336C132.432 66.4308 132.609 66.2833 132.752 66.0911C132.894 65.8989 132.992 65.6652 133.045 65.3901H134.765C134.722 65.9304 134.563 66.4093 134.288 66.8269C134.013 67.2412 133.638 67.566 133.164 67.8013C132.69 68.0333 132.134 68.1493 131.494 68.1493ZM138.043 63.5258V68.0002H136.243V57.8184H138.003V61.6614H138.093C138.271 61.2306 138.548 60.8908 138.923 60.6422C139.301 60.3904 139.781 60.2644 140.365 60.2644C140.895 60.2644 141.357 60.3754 141.752 60.5975C142.146 60.8196 142.451 61.1444 142.666 61.5719C142.885 61.9995 142.994 62.5215 142.994 63.138V68.0002H141.195V63.4164C141.195 62.9027 141.062 62.5033 140.797 62.2182C140.535 61.9299 140.167 61.7857 139.693 61.7857C139.375 61.7857 139.09 61.8553 138.838 61.9945C138.59 62.1304 138.394 62.3276 138.252 62.5861C138.112 62.8447 138.043 63.1579 138.043 63.5258ZM148.16 68.1493C147.414 68.1493 146.768 67.9853 146.221 67.6572C145.674 67.329 145.25 66.87 144.948 66.28C144.65 65.6901 144.501 65.0007 144.501 64.2118C144.501 63.423 144.65 62.732 144.948 62.1387C145.25 61.5454 145.674 61.0847 146.221 60.7566C146.768 60.4285 147.414 60.2644 148.16 60.2644C148.906 60.2644 149.552 60.4285 150.099 60.7566C150.646 61.0847 151.068 61.5454 151.367 62.1387C151.668 62.732 151.819 63.423 151.819 64.2118C151.819 65.0007 151.668 65.6901 151.367 66.28C151.068 66.87 150.646 67.329 150.099 67.6572C149.552 67.9853 148.906 68.1493 148.16 68.1493ZM148.17 66.7076C148.574 66.7076 148.912 66.5966 149.184 66.3745C149.456 66.1491 149.658 65.8475 149.791 65.4697C149.927 65.0918 149.994 64.6709 149.994 64.2069C149.994 63.7395 149.927 63.317 149.791 62.9391C149.658 62.558 149.456 62.2547 149.184 62.0293C148.912 61.8039 148.574 61.6913 148.17 61.6913C147.756 61.6913 147.411 61.8039 147.136 62.0293C146.864 62.2547 146.66 62.558 146.524 62.9391C146.392 63.317 146.325 63.7395 146.325 64.2069C146.325 64.6709 146.392 65.0918 146.524 65.4697C146.66 65.8475 146.864 66.1491 147.136 66.3745C147.411 66.5966 147.756 66.7076 148.17 66.7076ZM156.678 68.1493C155.932 68.1493 155.286 67.9853 154.739 67.6572C154.192 67.329 153.768 66.87 153.466 66.28C153.168 65.6901 153.018 65.0007 153.018 64.2118C153.018 63.423 153.168 62.732 153.466 62.1387C153.768 61.5454 154.192 61.0847 154.739 60.7566C155.286 60.4285 155.932 60.2644 156.678 60.2644C157.423 60.2644 158.07 60.4285 158.616 60.7566C159.163 61.0847 159.586 61.5454 159.884 62.1387C160.186 62.732 160.337 63.423 160.337 64.2118C160.337 65.0007 160.186 65.6901 159.884 66.28C159.586 66.87 159.163 67.329 158.616 67.6572C158.07 67.9853 157.423 68.1493 156.678 68.1493ZM156.688 66.7076C157.092 66.7076 157.43 66.5966 157.702 66.3745C157.973 66.1491 158.176 65.8475 158.308 65.4697C158.444 65.0918 158.512 64.6709 158.512 64.2069C158.512 63.7395 158.444 63.317 158.308 62.9391C158.176 62.558 157.973 62.2547 157.702 62.0293C157.43 61.8039 157.092 61.6913 156.688 61.6913C156.273 61.6913 155.929 61.8039 155.653 62.0293C155.382 62.2547 155.178 62.558 155.042 62.9391C154.909 63.317 154.843 63.7395 154.843 64.2069C154.843 64.6709 154.909 65.0918 155.042 65.4697C155.178 65.8475 155.382 66.1491 155.653 66.3745C155.929 66.5966 156.273 66.7076 156.688 66.7076ZM167.9 62.3823L166.259 62.5613C166.213 62.3956 166.131 62.2398 166.015 62.094C165.903 61.9481 165.75 61.8305 165.558 61.741C165.366 61.6515 165.131 61.6067 164.852 61.6067C164.478 61.6067 164.163 61.6879 163.907 61.8503C163.656 62.0127 163.531 62.2232 163.535 62.4817C163.531 62.7038 163.613 62.8844 163.778 63.0236C163.947 63.1628 164.226 63.2772 164.613 63.3667L165.916 63.6451C166.639 63.8009 167.175 64.0478 167.527 64.3859C167.881 64.7239 168.06 65.1664 168.064 65.7133C168.06 66.1939 167.92 66.6181 167.641 66.986C167.366 67.3506 166.983 67.6356 166.493 67.8411C166.002 68.0466 165.439 68.1493 164.802 68.1493C163.868 68.1493 163.115 67.9538 162.545 67.5627C161.975 67.1683 161.635 66.6198 161.526 65.9171L163.281 65.7481C163.361 66.0928 163.53 66.3529 163.788 66.5286C164.047 66.7043 164.383 66.7921 164.797 66.7921C165.225 66.7921 165.568 66.7043 165.827 66.5286C166.088 66.3529 166.219 66.1359 166.219 65.8773C166.219 65.6586 166.135 65.4779 165.966 65.3354C165.8 65.1929 165.541 65.0835 165.19 65.0073L163.888 64.7339C163.155 64.5814 162.613 64.3245 162.262 63.9633C161.911 63.5987 161.737 63.138 161.74 62.5812C161.737 62.1105 161.864 61.7029 162.123 61.3582C162.385 61.0101 162.747 60.7417 163.211 60.5528C163.679 60.3605 164.217 60.2644 164.827 60.2644C165.722 60.2644 166.426 60.455 166.94 60.8361C167.457 61.2173 167.777 61.7327 167.9 62.3823ZM172.928 68.1493C172.163 68.1493 171.502 67.9903 170.945 67.6721C170.391 67.3506 169.965 66.8965 169.667 66.3099C169.369 65.7199 169.22 65.0255 169.22 64.2268C169.22 63.4413 169.369 62.7519 169.667 62.1586C169.969 61.562 170.39 61.098 170.93 60.7665C171.47 60.4318 172.105 60.2644 172.834 60.2644C173.305 60.2644 173.749 60.3406 174.166 60.4931C174.587 60.6422 174.959 60.8743 175.28 61.1891C175.605 61.504 175.86 61.905 176.046 62.3922C176.231 62.8761 176.324 63.4529 176.324 64.1224V64.6742H170.065V63.4611H174.599C174.596 63.1164 174.521 62.8099 174.375 62.5414C174.229 62.2696 174.026 62.0558 173.764 61.9001C173.505 61.7443 173.204 61.6664 172.859 61.6664C172.491 61.6664 172.168 61.7559 171.889 61.9349C171.611 62.1105 171.394 62.3425 171.238 62.6309C171.086 62.9159 171.008 63.2291 171.004 63.5705V64.6295C171.004 65.0736 171.086 65.4547 171.248 65.7729C171.41 66.0878 171.637 66.3297 171.929 66.4988C172.221 66.6645 172.562 66.7474 172.953 66.7474C173.215 66.7474 173.452 66.7109 173.664 66.638C173.876 66.5618 174.06 66.4507 174.216 66.3049C174.372 66.1591 174.49 65.9784 174.569 65.763L176.249 65.9519C176.143 66.396 175.941 66.7838 175.643 67.1153C175.348 67.4434 174.97 67.6986 174.509 67.8809C174.049 68.0599 173.522 68.1493 172.928 68.1493ZM185.187 60.3638V61.7559H180.673V60.3638H185.187ZM181.801 68.0002V59.643C181.801 59.1292 181.908 58.7017 182.12 58.3603C182.335 58.0189 182.623 57.7637 182.985 57.5947C183.346 57.4256 183.747 57.3411 184.188 57.3411C184.499 57.3411 184.776 57.366 185.018 57.4157C185.26 57.4654 185.439 57.5101 185.555 57.5499L185.197 58.942C185.121 58.9188 185.025 58.8956 184.909 58.8724C184.793 58.8458 184.663 58.8326 184.521 58.8326C184.186 58.8326 183.949 58.9138 183.81 59.0762C183.674 59.2353 183.606 59.464 183.606 59.7623V68.0002H181.801ZM186.597 68.0002V60.3638H188.396V68.0002H186.597ZM187.501 59.28C187.216 59.28 186.971 59.1856 186.766 58.9966C186.56 58.8044 186.457 58.5741 186.457 58.3056C186.457 58.0338 186.56 57.8035 186.766 57.6145C186.971 57.4223 187.216 57.3262 187.501 57.3262C187.79 57.3262 188.035 57.4223 188.237 57.6145C188.443 57.8035 188.545 58.0338 188.545 58.3056C188.545 58.5741 188.443 58.8044 188.237 58.9966C188.035 59.1856 187.79 59.28 187.501 59.28ZM192.047 57.8184V68.0002H190.247V57.8184H192.047ZM197.278 68.1493C196.512 68.1493 195.851 67.9903 195.294 67.6721C194.741 67.3506 194.315 66.8965 194.017 66.3099C193.718 65.7199 193.569 65.0255 193.569 64.2268C193.569 63.4413 193.718 62.7519 194.017 62.1586C194.318 61.562 194.739 61.098 195.279 60.7665C195.82 60.4318 196.454 60.2644 197.184 60.2644C197.654 60.2644 198.098 60.3406 198.516 60.4931C198.937 60.6422 199.308 60.8743 199.63 61.1891C199.954 61.504 200.21 61.905 200.395 62.3922C200.581 62.8761 200.674 63.4529 200.674 64.1224V64.6742H194.414V63.4611H198.949C198.945 63.1164 198.871 62.8099 198.725 62.5414C198.579 62.2696 198.375 62.0558 198.113 61.9001C197.855 61.7443 197.553 61.6664 197.208 61.6664C196.841 61.6664 196.517 61.7559 196.239 61.9349C195.961 62.1105 195.743 62.3425 195.588 62.6309C195.435 62.9159 195.357 63.2291 195.354 63.5705V64.6295C195.354 65.0736 195.435 65.4547 195.598 65.7729C195.76 66.0878 195.987 66.3297 196.279 66.4988C196.57 66.6645 196.912 66.7474 197.303 66.7474C197.565 66.7474 197.802 66.7109 198.014 66.638C198.226 66.5618 198.41 66.4507 198.566 66.3049C198.721 66.1591 198.839 65.9784 198.919 65.763L200.599 65.9519C200.493 66.396 200.291 66.7838 199.993 67.1153C199.698 67.4434 199.32 67.6986 198.859 67.8809C198.398 68.0599 197.871 68.1493 197.278 68.1493ZM209.482 60.3638V61.7559H205.092V60.3638H209.482ZM206.176 58.5343H207.976V65.7033C207.976 65.9453 208.012 66.1309 208.085 66.2601C208.161 66.3861 208.261 66.4723 208.383 66.5187C208.506 66.5651 208.642 66.5883 208.791 66.5883C208.904 66.5883 209.006 66.58 209.099 66.5634C209.195 66.5468 209.268 66.5319 209.318 66.5187L209.621 67.9256C209.525 67.9588 209.388 67.9952 209.209 68.035C209.033 68.0748 208.818 68.098 208.562 68.1046C208.112 68.1179 207.706 68.0499 207.344 67.9008C206.983 67.7483 206.696 67.513 206.484 67.1948C206.275 66.8766 206.173 66.4789 206.176 66.0016V58.5343ZM214.236 68.1493C213.49 68.1493 212.844 67.9853 212.297 67.6572C211.75 67.329 211.326 66.87 211.025 66.28C210.726 65.6901 210.577 65.0007 210.577 64.2118C210.577 63.423 210.726 62.732 211.025 62.1387C211.326 61.5454 211.75 61.0847 212.297 60.7566C212.844 60.4285 213.49 60.2644 214.236 60.2644C214.982 60.2644 215.628 60.4285 216.175 60.7566C216.722 61.0847 217.145 61.5454 217.443 62.1387C217.744 62.732 217.895 63.423 217.895 64.2118C217.895 65.0007 217.744 65.6901 217.443 66.28C217.145 66.87 216.722 67.329 216.175 67.6572C215.628 67.9853 214.982 68.1493 214.236 68.1493ZM214.246 66.7076C214.65 66.7076 214.989 66.5966 215.26 66.3745C215.532 66.1491 215.734 65.8475 215.867 65.4697C216.003 65.0918 216.071 64.6709 216.071 64.2069C216.071 63.7395 216.003 63.317 215.867 62.9391C215.734 62.558 215.532 62.2547 215.26 62.0293C214.989 61.8039 214.65 61.6913 214.246 61.6913C213.832 61.6913 213.487 61.8039 213.212 62.0293C212.94 62.2547 212.736 62.558 212.6 62.9391C212.468 63.317 212.402 63.7395 212.402 64.2069C212.402 64.6709 212.468 65.0918 212.6 65.4697C212.736 65.8475 212.94 66.1491 213.212 66.3745C213.487 66.5966 213.832 66.7076 214.246 66.7076ZM227.763 64.7886V60.3638H229.562V68.0002H227.817V66.643H227.738C227.565 67.0705 227.282 67.4202 226.888 67.692C226.497 67.9637 226.014 68.0996 225.441 68.0996C224.94 68.0996 224.498 67.9886 224.113 67.7665C223.732 67.5412 223.434 67.2147 223.219 66.7871C223.003 66.3563 222.895 65.8359 222.895 65.2261V60.3638H224.695V64.9476C224.695 65.4315 224.828 65.816 225.093 66.1011C225.358 66.3861 225.706 66.5286 226.137 66.5286C226.402 66.5286 226.659 66.464 226.907 66.3347C227.156 66.2055 227.36 66.0132 227.519 65.758C227.681 65.4995 227.763 65.1763 227.763 64.7886ZM231.413 70.8638V60.3638H233.183V61.6266H233.287C233.38 61.441 233.511 61.2438 233.68 61.035C233.849 60.8229 234.078 60.6422 234.366 60.4931C234.654 60.3406 235.022 60.2644 235.47 60.2644C236.06 60.2644 236.592 60.4152 237.066 60.7168C237.543 61.0151 237.921 61.4576 238.199 62.0442C238.481 62.6276 238.622 63.3435 238.622 64.192C238.622 65.0305 238.484 65.7431 238.209 66.3297C237.934 66.9164 237.56 67.3638 237.086 67.6721C236.612 67.9803 236.075 68.1344 235.475 68.1344C235.037 68.1344 234.674 68.0615 234.386 67.9157C234.098 67.7698 233.866 67.5942 233.69 67.3887C233.518 67.1799 233.383 66.9827 233.287 66.7971H233.213V70.8638H231.413ZM233.178 64.182C233.178 64.6759 233.248 65.1084 233.387 65.4796C233.529 65.8508 233.733 66.1408 233.998 66.3496C234.267 66.5551 234.592 66.6579 234.973 66.6579C235.37 66.6579 235.703 66.5518 235.972 66.3397C236.24 66.1243 236.443 65.8309 236.578 65.4597C236.718 65.0852 236.787 64.6593 236.787 64.182C236.787 63.7081 236.719 63.2871 236.583 62.9192C236.448 62.5513 236.245 62.263 235.977 62.0542C235.708 61.8454 235.374 61.741 234.973 61.741C234.588 61.741 234.262 61.8421 233.993 62.0442C233.725 62.2464 233.521 62.5298 233.382 62.8944C233.246 63.259 233.178 63.6882 233.178 64.182ZM241.963 57.8184V68.0002H240.163V57.8184H241.963ZM247.144 68.1493C246.399 68.1493 245.752 67.9853 245.205 67.6572C244.659 67.329 244.234 66.87 243.933 66.28C243.634 65.6901 243.485 65.0007 243.485 64.2118C243.485 63.423 243.634 62.732 243.933 62.1387C244.234 61.5454 244.659 61.0847 245.205 60.7566C245.752 60.4285 246.399 60.2644 247.144 60.2644C247.89 60.2644 248.536 60.4285 249.083 60.7566C249.63 61.0847 250.053 61.5454 250.351 62.1387C250.653 62.732 250.803 63.423 250.803 64.2118C250.803 65.0007 250.653 65.6901 250.351 66.28C250.053 66.87 249.63 67.329 249.083 67.6572C248.536 67.9853 247.89 68.1493 247.144 68.1493ZM247.154 66.7076C247.559 66.7076 247.897 66.5966 248.169 66.3745C248.44 66.1491 248.642 65.8475 248.775 65.4697C248.911 65.0918 248.979 64.6709 248.979 64.2069C248.979 63.7395 248.911 63.317 248.775 62.9391C248.642 62.558 248.44 62.2547 248.169 62.0293C247.897 61.8039 247.559 61.6913 247.154 61.6913C246.74 61.6913 246.395 61.8039 246.12 62.0293C245.848 62.2547 245.645 62.558 245.509 62.9391C245.376 63.317 245.31 63.7395 245.31 64.2069C245.31 64.6709 245.376 65.0918 245.509 65.4697C245.645 65.8475 245.848 66.1491 246.12 66.3745C246.395 66.5966 246.74 66.7076 247.154 66.7076ZM254.528 68.1543C254.045 68.1543 253.609 68.0681 253.221 67.8958C252.836 67.7201 252.531 67.4616 252.306 67.1202C252.084 66.7788 251.973 66.3579 251.973 65.8574C251.973 65.4266 252.053 65.0703 252.212 64.7886C252.371 64.5068 252.588 64.2814 252.863 64.1124C253.138 63.9434 253.448 63.8158 253.793 63.7296C254.141 63.6401 254.5 63.5755 254.871 63.5357C255.319 63.4893 255.682 63.4479 255.96 63.4114C256.239 63.3716 256.441 63.312 256.567 63.2324C256.696 63.1496 256.761 63.022 256.761 62.8496V62.8198C256.761 62.4453 256.65 62.1553 256.428 61.9498C256.205 61.7443 255.886 61.6415 255.468 61.6415C255.027 61.6415 254.678 61.7377 254.419 61.9299C254.164 62.1221 253.991 62.3492 253.902 62.611L252.222 62.3724C252.354 61.9083 252.573 61.5206 252.878 61.209C253.183 60.8941 253.556 60.6588 253.996 60.503C254.437 60.344 254.924 60.2644 255.458 60.2644C255.826 60.2644 256.192 60.3075 256.557 60.3937C256.921 60.4798 257.254 60.6224 257.556 60.8212C257.858 61.0168 258.1 61.2836 258.282 61.6216C258.468 61.9597 258.56 62.3823 258.56 62.8894V68.0002H256.83V66.9512H256.771C256.661 67.1633 256.507 67.3622 256.308 67.5478C256.113 67.7301 255.866 67.8776 255.567 67.9903C255.272 68.0996 254.926 68.1543 254.528 68.1543ZM254.996 66.8319C255.357 66.8319 255.67 66.7606 255.935 66.6181C256.201 66.4723 256.404 66.28 256.547 66.0414C256.693 65.8028 256.766 65.5426 256.766 65.2609V64.361C256.709 64.4074 256.613 64.4505 256.477 64.4903C256.345 64.53 256.196 64.5648 256.03 64.5947C255.864 64.6245 255.7 64.651 255.538 64.6742C255.375 64.6974 255.234 64.7173 255.115 64.7339C254.847 64.7703 254.606 64.83 254.394 64.9128C254.182 64.9957 254.015 65.1117 253.892 65.2609C253.769 65.4067 253.708 65.5956 253.708 65.8276C253.708 66.1591 253.829 66.4093 254.071 66.5783C254.313 66.7474 254.621 66.8319 254.996 66.8319ZM263.204 68.1344C262.604 68.1344 262.067 67.9803 261.593 67.6721C261.119 67.3638 260.745 66.9164 260.469 66.3297C260.194 65.7431 260.057 65.0305 260.057 64.192C260.057 63.3435 260.196 62.6276 260.474 62.0442C260.756 61.4576 261.136 61.0151 261.613 60.7168C262.09 60.4152 262.622 60.2644 263.209 60.2644C263.656 60.2644 264.024 60.3406 264.312 60.4931C264.601 60.6422 264.83 60.8229 264.999 61.035C265.168 61.2438 265.299 61.441 265.391 61.6266H265.466V57.8184H267.271V68.0002H265.501V66.7971H265.391C265.299 66.9827 265.164 67.1799 264.989 67.3887C264.813 67.5942 264.581 67.7698 264.293 67.9157C264.004 68.0615 263.641 68.1344 263.204 68.1344ZM263.706 66.6579C264.087 66.6579 264.412 66.5551 264.68 66.3496C264.949 66.1408 265.153 65.8508 265.292 65.4796C265.431 65.1084 265.501 64.6759 265.501 64.182C265.501 63.6882 265.431 63.259 265.292 62.8944C265.156 62.5298 264.954 62.2464 264.685 62.0442C264.42 61.8421 264.094 61.741 263.706 61.741C263.305 61.741 262.97 61.8454 262.702 62.0542C262.433 62.263 262.231 62.5513 262.095 62.9192C261.959 63.2871 261.891 63.7081 261.891 64.182C261.891 64.6593 261.959 65.0852 262.095 65.4597C262.234 65.8309 262.438 66.1243 262.707 66.3397C262.978 66.5518 263.312 66.6579 263.706 66.6579Z" fill="#282A37"/>
<path d="M98.8015 85.3635C98.7419 84.8597 98.4999 84.4687 98.0757 84.1902C97.6514 83.9118 97.1311 83.7726 96.5146 83.7726C96.0638 83.7726 95.6694 83.8455 95.3314 83.9914C94.9966 84.1372 94.7348 84.3377 94.5459 84.5929C94.3602 84.8481 94.2674 85.1382 94.2674 85.463C94.2674 85.7347 94.3321 85.9684 94.4613 86.164C94.5939 86.3562 94.7629 86.5169 94.9684 86.6462C95.1739 86.7722 95.3894 86.8766 95.6147 86.9594C95.8401 87.039 96.0473 87.1036 96.2362 87.1533L97.2703 87.4317C97.5354 87.5013 97.8304 87.5974 98.1552 87.7201C98.4834 87.8427 98.7966 88.0101 99.0949 88.2222C99.3965 88.431 99.645 88.6995 99.8406 89.0276C100.036 89.3557 100.134 89.7584 100.134 90.2357C100.134 90.7859 99.9897 91.283 99.7014 91.7272C99.4164 92.1713 98.9987 92.5243 98.4486 92.7861C97.9017 93.048 97.2371 93.1789 96.4549 93.1789C95.7258 93.1789 95.0944 93.0612 94.5608 92.8259C94.0305 92.5906 93.6129 92.2624 93.3079 91.8415C93.0063 91.4206 92.8356 90.9317 92.7959 90.3749H94.0686C94.1017 90.7594 94.231 91.0776 94.4564 91.3294C94.6851 91.578 94.9734 91.7636 95.3214 91.8863C95.6727 92.0056 96.0506 92.0652 96.4549 92.0652C96.9256 92.0652 97.3482 91.989 97.7227 91.8365C98.0972 91.6808 98.3939 91.4653 98.6126 91.1902C98.8314 90.9118 98.9407 90.587 98.9407 90.2158C98.9407 89.8777 98.8463 89.6026 98.6574 89.3905C98.4684 89.1784 98.2199 89.0061 97.9116 88.8735C97.6034 88.7409 97.2703 88.6249 96.9123 88.5255L95.6595 88.1675C94.864 87.9388 94.2343 87.6124 93.7703 87.1881C93.3063 86.7639 93.0743 86.2087 93.0743 85.5226C93.0743 84.9526 93.2284 84.4554 93.5366 84.0311C93.8482 83.6036 94.2658 83.2722 94.7895 83.0368C95.3165 82.7982 95.9048 82.6789 96.5544 82.6789C97.2106 82.6789 97.794 82.7965 98.3044 83.0319C98.8148 83.2639 99.2192 83.582 99.5174 83.9864C99.8191 84.3908 99.9781 84.8498 99.9947 85.3635H98.8015ZM105.203 93.159C104.468 93.159 103.833 92.9966 103.299 92.6718C102.769 92.3437 102.36 91.8863 102.071 91.2996C101.786 90.7097 101.644 90.0236 101.644 89.2414C101.644 88.4592 101.786 87.7698 102.071 87.1732C102.36 86.5733 102.761 86.106 103.274 85.7712C103.791 85.4331 104.395 85.2641 105.084 85.2641C105.482 85.2641 105.874 85.3304 106.262 85.463C106.65 85.5955 107.003 85.811 107.321 86.1093C107.639 86.4043 107.893 86.7954 108.082 87.2826C108.271 87.7698 108.365 88.3697 108.365 89.0823V89.5794H102.479V88.5652H107.172C107.172 88.1344 107.086 87.7499 106.914 87.4118C106.744 87.0738 106.503 86.807 106.188 86.6114C105.876 86.4159 105.508 86.3181 105.084 86.3181C104.617 86.3181 104.212 86.4341 103.871 86.6661C103.533 86.8948 103.273 87.1931 103.09 87.561C102.908 87.9289 102.817 88.3233 102.817 88.7442V89.4204C102.817 89.9971 102.916 90.4859 103.115 90.887C103.317 91.2847 103.597 91.588 103.955 91.7968C104.313 92.0023 104.729 92.105 105.203 92.105C105.512 92.105 105.79 92.0619 106.039 91.9758C106.29 91.8863 106.508 91.7537 106.69 91.578C106.872 91.399 107.013 91.177 107.112 90.9118L108.246 91.23C108.127 91.6145 107.926 91.9526 107.644 92.2442C107.363 92.5326 107.015 92.7579 106.6 92.9204C106.186 93.0794 105.72 93.159 105.203 93.159ZM111.323 82.8181V92.9999H110.15V82.8181H111.323ZM116.674 93.159C115.938 93.159 115.304 92.9966 114.77 92.6718C114.24 92.3437 113.83 91.8863 113.542 91.2996C113.257 90.7097 113.114 90.0236 113.114 89.2414C113.114 88.4592 113.257 87.7698 113.542 87.1732C113.83 86.5733 114.231 86.106 114.745 85.7712C115.262 85.4331 115.865 85.2641 116.555 85.2641C116.952 85.2641 117.345 85.3304 117.733 85.463C118.121 85.5955 118.474 85.811 118.792 86.1093C119.11 86.4043 119.364 86.7954 119.553 87.2826C119.741 87.7698 119.836 88.3697 119.836 89.0823V89.5794H113.95V88.5652H118.643C118.643 88.1344 118.557 87.7499 118.384 87.4118C118.215 87.0738 117.973 86.807 117.658 86.6114C117.347 86.4159 116.979 86.3181 116.555 86.3181C116.087 86.3181 115.683 86.4341 115.342 86.6661C115.004 86.8948 114.743 87.1931 114.561 87.561C114.379 87.9289 114.288 88.3233 114.288 88.7442V89.4204C114.288 89.9971 114.387 90.4859 114.586 90.887C114.788 91.2847 115.068 91.588 115.426 91.7968C115.784 92.0023 116.2 92.105 116.674 92.105C116.982 92.105 117.261 92.0619 117.509 91.9758C117.761 91.8863 117.978 91.7537 118.161 91.578C118.343 91.399 118.484 91.177 118.583 90.9118L119.717 91.23C119.597 91.6145 119.397 91.9526 119.115 92.2442C118.833 92.5326 118.485 92.7579 118.071 92.9204C117.657 93.0794 117.191 93.159 116.674 93.159ZM124.723 93.159C124.007 93.159 123.391 92.99 122.874 92.6519C122.357 92.3138 121.959 91.8481 121.68 91.2549C121.402 90.6616 121.263 89.9838 121.263 89.2215C121.263 88.4459 121.405 87.7615 121.69 87.1682C121.979 86.5716 122.38 86.106 122.893 85.7712C123.411 85.4331 124.014 85.2641 124.703 85.2641C125.24 85.2641 125.724 85.3635 126.155 85.5624C126.586 85.7613 126.939 86.0397 127.214 86.3976C127.489 86.7556 127.66 87.1732 127.726 87.6505H126.553C126.463 87.3025 126.264 86.9942 125.956 86.7258C125.651 86.454 125.24 86.3181 124.723 86.3181C124.266 86.3181 123.865 86.4374 123.52 86.676C123.179 86.9114 122.912 87.2445 122.719 87.6753C122.531 88.1029 122.436 88.605 122.436 89.1817C122.436 89.7717 122.529 90.2854 122.714 90.7229C122.903 91.1604 123.169 91.5001 123.51 91.7421C123.855 91.984 124.259 92.105 124.723 92.105C125.028 92.105 125.305 92.052 125.553 91.9459C125.802 91.8399 126.012 91.6874 126.185 91.4885C126.357 91.2897 126.48 91.051 126.553 90.7726H127.726C127.66 91.2234 127.496 91.6294 127.234 91.9907C126.975 92.3486 126.632 92.6337 126.205 92.8458C125.78 93.0546 125.286 93.159 124.723 93.159ZM132.762 85.3635V86.3579H128.805V85.3635H132.762ZM129.958 83.534H131.131V90.8124C131.131 91.1438 131.179 91.3924 131.276 91.5581C131.375 91.7205 131.501 91.8299 131.653 91.8863C131.809 91.9393 131.973 91.9658 132.146 91.9658C132.275 91.9658 132.381 91.9592 132.464 91.9459C132.547 91.9294 132.613 91.9161 132.663 91.9061L132.901 92.9601C132.822 92.99 132.711 93.0198 132.568 93.0496C132.426 93.0828 132.245 93.0993 132.026 93.0993C131.695 93.0993 131.37 93.0281 131.052 92.8856C130.737 92.743 130.475 92.5259 130.266 92.2343C130.061 91.9426 129.958 91.5747 129.958 91.1306V83.534ZM138.464 85.3635H139.638V93.5567C139.638 94.0274 139.557 94.435 139.394 94.7797C139.235 95.1244 138.993 95.3912 138.668 95.5802C138.347 95.7691 137.941 95.8635 137.45 95.8635C137.411 95.8635 137.371 95.8635 137.331 95.8635C137.291 95.8635 137.251 95.8635 137.212 95.8635V94.7698C137.251 94.7698 137.288 94.7698 137.321 94.7698C137.354 94.7698 137.391 94.7698 137.43 94.7698C137.788 94.7698 138.05 94.6637 138.216 94.4516C138.382 94.2428 138.464 93.9445 138.464 93.5567V85.3635ZM139.041 84.0908C138.813 84.0908 138.615 84.0129 138.45 83.8571C138.287 83.7014 138.206 83.5141 138.206 83.2954C138.206 83.0766 138.287 82.8893 138.45 82.7336C138.615 82.5778 138.813 82.4999 139.041 82.4999C139.27 82.4999 139.465 82.5778 139.628 82.7336C139.794 82.8893 139.876 83.0766 139.876 83.2954C139.876 83.5141 139.794 83.7014 139.628 83.8571C139.465 84.0129 139.27 84.0908 139.041 84.0908ZM141.787 95.8635V85.3635H142.92V86.5766H143.059C143.146 86.444 143.265 86.275 143.417 86.0695C143.573 85.8607 143.795 85.6751 144.084 85.5127C144.375 85.347 144.77 85.2641 145.267 85.2641C145.91 85.2641 146.477 85.4249 146.967 85.7463C147.458 86.0678 147.84 86.5236 148.116 87.1135C148.391 87.7035 148.528 88.3995 148.528 89.2016C148.528 90.0103 148.391 90.7113 148.116 91.3046C147.84 91.8945 147.459 92.3519 146.972 92.6767C146.485 92.9982 145.923 93.159 145.287 93.159C144.796 93.159 144.403 93.0778 144.108 92.9154C143.814 92.7497 143.586 92.5624 143.427 92.3536C143.268 92.1415 143.146 91.9658 143.059 91.8266H142.96V95.8635H141.787ZM142.94 89.1817C142.94 89.7584 143.025 90.2672 143.194 90.708C143.363 91.1455 143.61 91.4885 143.934 91.7371C144.259 91.9824 144.657 92.105 145.128 92.105C145.618 92.105 146.028 91.9758 146.356 91.7172C146.687 91.4554 146.936 91.1041 147.101 90.6633C147.27 90.2191 147.355 89.7253 147.355 89.1817C147.355 88.6448 147.272 88.1609 147.106 87.73C146.944 87.2958 146.697 86.9528 146.366 86.7009C146.037 86.4457 145.625 86.3181 145.128 86.3181C144.65 86.3181 144.249 86.4391 143.925 86.681C143.6 86.9196 143.354 87.2544 143.189 87.6853C143.023 88.1128 142.94 88.6116 142.94 89.1817ZM153.4 96.0226C152.834 96.0226 152.346 95.9497 151.939 95.8039C151.531 95.6614 151.191 95.4724 150.92 95.2371C150.651 95.0051 150.437 94.7565 150.278 94.4914L151.213 93.8351C151.319 93.9743 151.453 94.1334 151.616 94.3124C151.778 94.4947 152 94.6521 152.282 94.7847C152.567 94.9206 152.94 94.9885 153.4 94.9885C154.017 94.9885 154.526 94.8394 154.927 94.5411C155.328 94.2428 155.528 93.7755 155.528 93.1391V91.588H155.429C155.343 91.7272 155.22 91.8995 155.061 92.105C154.905 92.3072 154.68 92.4878 154.385 92.6469C154.093 92.8027 153.699 92.8806 153.202 92.8806C152.585 92.8806 152.032 92.7347 151.541 92.4431C151.054 92.1514 150.668 91.7272 150.383 91.1704C150.101 90.6135 149.96 89.9374 149.96 89.1419C149.96 88.3597 150.098 87.6786 150.373 87.0986C150.648 86.5153 151.031 86.0645 151.521 85.7463C152.012 85.4249 152.578 85.2641 153.221 85.2641C153.719 85.2641 154.113 85.347 154.405 85.5127C154.7 85.6751 154.925 85.8607 155.081 86.0695C155.24 86.275 155.363 86.444 155.449 86.5766H155.568V85.3635H156.702V93.2187C156.702 93.8749 156.552 94.4085 156.254 94.8195C155.959 95.2338 155.561 95.5371 155.061 95.7293C154.564 95.9249 154.01 96.0226 153.4 96.0226ZM153.361 91.8266C153.831 91.8266 154.229 91.7189 154.554 91.5035C154.879 91.288 155.126 90.9781 155.295 90.5738C155.464 90.1694 155.548 89.6855 155.548 89.1221C155.548 88.5719 155.465 88.0863 155.3 87.6654C155.134 87.2445 154.889 86.9147 154.564 86.676C154.239 86.4374 153.838 86.3181 153.361 86.3181C152.863 86.3181 152.449 86.444 152.118 86.6959C151.79 86.9478 151.543 87.2859 151.377 87.7101C151.215 88.1344 151.133 88.605 151.133 89.1221C151.133 89.6524 151.216 90.1213 151.382 90.529C151.551 90.9334 151.8 91.2516 152.128 91.4836C152.459 91.7123 152.87 91.8266 153.361 91.8266ZM165.889 93.159C165.2 93.159 164.595 92.9949 164.074 92.6668C163.557 92.3387 163.153 91.8796 162.861 91.2897C162.573 90.6997 162.429 90.0103 162.429 89.2215C162.429 88.426 162.573 87.7317 162.861 87.1384C163.153 86.5451 163.557 86.0844 164.074 85.7563C164.595 85.4282 165.2 85.2641 165.889 85.2641C166.578 85.2641 167.182 85.4282 167.699 85.7563C168.219 86.0844 168.623 86.5451 168.912 87.1384C169.203 87.7317 169.349 88.426 169.349 89.2215C169.349 90.0103 169.203 90.6997 168.912 91.2897C168.623 91.8796 168.219 92.3387 167.699 92.6668C167.182 92.9949 166.578 93.159 165.889 93.159ZM165.889 92.105C166.413 92.105 166.844 91.9708 167.182 91.7023C167.52 91.4338 167.77 91.0809 167.932 90.6434C168.095 90.2059 168.176 89.7319 168.176 89.2215C168.176 88.7111 168.095 88.2355 167.932 87.7946C167.77 87.3538 167.52 86.9975 167.182 86.7258C166.844 86.454 166.413 86.3181 165.889 86.3181C165.365 86.3181 164.934 86.454 164.596 86.7258C164.258 86.9975 164.008 87.3538 163.846 87.7946C163.683 88.2355 163.602 88.7111 163.602 89.2215C163.602 89.7319 163.683 90.2059 163.846 90.6434C164.008 91.0809 164.258 91.4338 164.596 91.7023C164.934 91.9708 165.365 92.105 165.889 92.105ZM171.14 92.9999V85.3635H172.274V86.5169H172.353C172.493 86.1391 172.744 85.8325 173.109 85.5972C173.474 85.3619 173.885 85.2442 174.342 85.2442C174.428 85.2442 174.536 85.2459 174.665 85.2492C174.794 85.2525 174.892 85.2575 174.958 85.2641V86.4573C174.919 86.4473 174.828 86.4324 174.685 86.4125C174.546 86.3893 174.398 86.3777 174.243 86.3777C173.871 86.3777 173.54 86.4556 173.248 86.6114C172.96 86.7639 172.731 86.976 172.562 87.2478C172.396 87.5162 172.314 87.8228 172.314 88.1675V92.9999H171.14ZM180.287 95.8635V85.3635H181.42V86.5766H181.559C181.646 86.444 181.765 86.275 181.917 86.0695C182.073 85.8607 182.295 85.6751 182.584 85.5127C182.875 85.347 183.27 85.2641 183.767 85.2641C184.41 85.2641 184.977 85.4249 185.467 85.7463C185.958 86.0678 186.34 86.5236 186.616 87.1135C186.891 87.7035 187.028 88.3995 187.028 89.2016C187.028 90.0103 186.891 90.7113 186.616 91.3046C186.34 91.8945 185.959 92.3519 185.472 92.6767C184.985 92.9982 184.423 93.159 183.787 93.159C183.296 93.159 182.903 93.0778 182.608 92.9154C182.314 92.7497 182.086 92.5624 181.927 92.3536C181.768 92.1415 181.646 91.9658 181.559 91.8266H181.46V95.8635H180.287ZM181.44 89.1817C181.44 89.7584 181.525 90.2672 181.694 90.708C181.863 91.1455 182.11 91.4885 182.434 91.7371C182.759 91.9824 183.157 92.105 183.628 92.105C184.118 92.105 184.528 91.9758 184.856 91.7172C185.187 91.4554 185.436 91.1041 185.601 90.6633C185.77 90.2191 185.855 89.7253 185.855 89.1817C185.855 88.6448 185.772 88.1609 185.606 87.73C185.444 87.2958 185.197 86.9528 184.866 86.7009C184.537 86.4457 184.125 86.3181 183.628 86.3181C183.15 86.3181 182.749 86.4391 182.425 86.681C182.1 86.9196 181.854 87.2544 181.689 87.6853C181.523 88.1128 181.44 88.6116 181.44 89.1817ZM191.702 93.159C191.065 93.159 190.503 92.9982 190.016 92.6767C189.529 92.3519 189.148 91.8945 188.873 91.3046C188.598 90.7113 188.46 90.0103 188.46 89.2016C188.46 88.3995 188.598 87.7035 188.873 87.1135C189.148 86.5236 189.531 86.0678 190.021 85.7463C190.512 85.4249 191.078 85.2641 191.721 85.2641C192.219 85.2641 192.611 85.347 192.9 85.5127C193.191 85.6751 193.413 85.8607 193.566 86.0695C193.722 86.275 193.843 86.444 193.929 86.5766H194.028V82.8181H195.202V92.9999H194.068V91.8266H193.929C193.843 91.9658 193.72 92.1415 193.561 92.3536C193.402 92.5624 193.175 92.7497 192.88 92.9154C192.585 93.0778 192.192 93.159 191.702 93.159ZM191.861 92.105C192.331 92.105 192.729 91.9824 193.054 91.7371C193.379 91.4885 193.626 91.1455 193.795 90.708C193.964 90.2672 194.048 89.7584 194.048 89.1817C194.048 88.6116 193.965 88.1128 193.8 87.6853C193.634 87.2544 193.389 86.9196 193.064 86.681C192.739 86.4391 192.338 86.3181 191.861 86.3181C191.363 86.3181 190.949 86.4457 190.618 86.7009C190.29 86.9528 190.043 87.2958 189.877 87.73C189.715 88.1609 189.633 88.6448 189.633 89.1817C189.633 89.7253 189.716 90.2191 189.882 90.6633C190.051 91.1041 190.3 91.4554 190.628 91.7172C190.959 91.9758 191.37 92.105 191.861 92.105ZM200.914 85.3635V86.3579H196.797V85.3635H200.914ZM198.03 92.9999V84.3096C198.03 83.8721 198.133 83.5075 198.339 83.2158C198.544 82.9241 198.811 82.7054 199.139 82.5596C199.467 82.4137 199.814 82.3408 200.178 82.3408C200.466 82.3408 200.702 82.364 200.884 82.4104C201.066 82.4568 201.202 82.4999 201.292 82.5397L200.954 83.5539C200.894 83.534 200.811 83.5091 200.705 83.4793C200.602 83.4495 200.466 83.4346 200.297 83.4346C199.91 83.4346 199.63 83.5323 199.457 83.7279C199.288 83.9234 199.204 84.2101 199.204 84.588V92.9999H198.03Z" fill="#515978"/>
</svg>
