<svg width="40" height="40" viewBox="0 0 40 40" fill="none" xmlns="http://www.w3.org/2000/svg">
<g clip-path="url(#clip0_162_1290)">
<path d="M40 20C40 8.9543 31.0457 0 20 0C8.9543 0 0 8.9543 0 20C0 31.0457 8.9543 40 20 40C31.0457 40 40 31.0457 40 20Z" fill="#87CDEA"/>
<path d="M15.3997 14.3197L23.8897 11.4897C27.6997 10.2197 29.7697 12.2997 28.5097 16.1097L25.6797 24.5997C23.7797 30.3097 20.6597 30.3097 18.7597 24.5997L17.9197 22.0797L15.3997 21.2397C9.68969 19.3397 9.68969 16.2297 15.3997 14.3197Z" fill="black"/>
<path d="M18.1099 21.6501L21.6899 18.0601" stroke="#87CDEA" stroke-width="1.5" stroke-linecap="round" stroke-linejoin="round"/>
</g>
<defs>
<clipPath id="clip0_162_1290">
<rect width="40" height="40" fill="white"/>
</clipPath>
</defs>
</svg>
